<svg class="cf-icon-svg" aria-label="appendix" version="1.1" viewBox="0 0 10.6 16">
<path d="M8.9,8.9v-4c0-0.1-0.1-0.3-0.1-0.4L6.3,2.2C6.2,2.1,6.1,2,5.9,2H0.5C0.2,2,0,2.2,0,2.5v10.2c0,0.3,0.2,0.5,0.5,0.5h1.3v1.3
	c0,0.3,0.3,0.5,0.5,0.5h7.8c0.3,0,0.5-0.2,0.5-0.5V9.4c0-0.3-0.2-0.5-0.5-0.5H8.9L8.9,8.9z M1,3h4.4v1.9c0,0.3,0.2,0.5,0.5,0.5h1.9
	v6.8H1V3z M2.8,14v-0.8h5.5c0.3,0,0.5-0.2,0.5-0.5V9.9h0.8V14H2.8z M4.6,11.1c0,0.3,0.2,0.5,0.5,0.5s0.5-0.2,0.5-0.5
	s-0.2-0.5-0.5-0.5C4.8,10.6,4.6,10.8,4.6,11.1L4.6,11.1z M3.2,11.1c0,0.3,0.2,0.5,0.5,0.5s0.5-0.2,0.5-0.5S4,10.6,3.7,10.6
	S3.2,10.8,3.2,11.1L3.2,11.1z M1.8,11.1c0,0.3,0.2,0.5,0.5,0.5s0.5-0.2,0.5-0.5s-0.2-0.5-0.5-0.5S1.8,10.8,1.8,11.1L1.8,11.1z
	 M6,11.1c0,0.3,0.2,0.5,0.5,0.5S7,11.4,7,11.1c0-0.3-0.2-0.5-0.5-0.5C6.3,10.6,6,10.8,6,11.1z"/>
</svg>
