<svg class="cf-icon-svg" aria-label="appendix" version="1.1" viewBox="0 0 13 16">
<path d="M6.5,2C2.9,2,0,4.9,0,8.5S2.9,15,6.5,15S13,12.1,13,8.5S10.1,2,6.5,2L6.5,2z M8.2,5.7H6.9V4.4L8.2,5.7z M3.1,10.9V4.4
	c0-0.1,0.1-0.1,0.1-0.1h3.1V6c0,0.2,0.1,0.3,0.3,0.3h1.8v4.6C8.4,11,8.3,11,8.2,11h-5C3.1,11,3.1,11,3.1,10.9L3.1,10.9z M9.8,12.3
	c0,0.1-0.1,0.1-0.1,0.1H4.6c-0.1,0-0.1-0.1-0.1-0.1v-0.8h4.2c0.2,0,0.3-0.1,0.3-0.3V8.7h0.8c0.1,0,0.1,0.1,0.1,0.1v2.7L9.8,12.3
	L9.8,12.3z M3.8,10c0,0.2,0.1,0.3,0.3,0.3c0.2,0,0.3-0.1,0.3-0.3S4.3,9.7,4.1,9.7C3.9,9.7,3.8,9.8,3.8,10L3.8,10z M7,10
	c0,0.2,0.1,0.3,0.3,0.3s0.4-0.1,0.4-0.3S7.6,9.7,7.4,9.7C7.2,9.7,7,9.8,7,10L7,10z M4.9,10c0,0.2,0.1,0.3,0.3,0.3
	c0.2,0,0.3-0.1,0.3-0.3S5.4,9.7,5.2,9.7S4.9,9.8,4.9,10L4.9,10z M6,10c0,0.2,0.1,0.3,0.3,0.3c0.2,0,0.3-0.1,0.3-0.3S6.5,9.7,6.3,9.7
	S6,9.8,6,10z"/>
</svg>
