<svg class="cf-icon-svg" aria-label="attach" version="1.1" viewBox="0 0 13 16">
<path d="M6.5,2C2.9,2,0,4.9,0,8.5S2.9,15,6.5,15S13,12.1,13,8.5S10.1,2,6.5,2L6.5,2z M9.8,11.7c-0.4,0.4-1,0.6-1.5,0.6
	s-1.1-0.2-1.5-0.6L3,8C2.7,7.7,2.6,7.3,2.6,6.9s0.2-0.8,0.5-1.1c0.3-0.3,0.7-0.5,1.1-0.5s0.8,0.2,1,0.5L9,9.5c0.4,0.4,0.4,1,0,1.4
	s-1,0.4-1.4,0L5.2,8.6C5.1,8.4,5.1,8.2,5.2,8c0.2-0.2,0.4-0.2,0.5,0L8,10.3c0.1,0.1,0.2,0.1,0.3,0s0.1-0.2,0-0.3L4.7,6.4
	c-0.3-0.3-0.8-0.3-1.1,0C3.5,6.5,3.4,6.7,3.4,6.9c0,0.2,0.1,0.4,0.2,0.5l3.7,3.7c0.5,0.5,1.4,0.5,1.9,0c0.3-0.3,0.4-0.6,0.4-1
	s-0.1-0.7-0.4-1L5.5,5.6C5.4,5.4,5.4,5.1,5.5,5C5.7,4.8,5.9,4.8,6,5l3.7,3.7c0.4,0.4,0.6,0.9,0.6,1.5C10.4,10.8,10.2,11.3,9.8,11.7z
	"/>
</svg>
