<svg class="cf-icon-svg" aria-label="audio max" version="1.1" viewBox="0 0 13 16">
<path d="M5.6,3.9c-0.1,0-0.2,0-0.3,0.1L2.7,6.6l0,0h-2C0.3,6.6,0,6.9,0,7.3v2.5c0,0.4,0.3,0.7,0.7,0.7h2l0,0l2.6,2.6
	c0.1,0.1,0.1,0.1,0.2,0.1c0.2,0,0.3-0.2,0.3-0.3V4.2C5.7,4.1,5.7,4,5.6,3.9L5.6,3.9z M6.5,7.3c0.7,0.7,0.7,1.8,0,2.5l0.8,0.8
	c1.2-1.2,1.2-3.1,0-4.2L6.5,7.3z M8.1,5.6c1.6,1.6,1.6,4.3,0,6L9,12.4c2.1-2.1,2.1-5.5,0-7.6L8.1,5.6z M9.9,3.8
	c2.6,2.6,2.6,6.8,0,9.4l0.8,0.9c3.1-3.1,3.1-8,0-11.1L9.9,3.8z"/>
</svg>
