<svg class="cf-icon-svg" version="1.1" viewBox="0 0 1000 1200">
	<path d="M347.6,569.5a34.61,34.61,0,0,1-17.6,4.8,74.56,74.56,0,0,1-8.1-1,41.33,41.33,0,0,1-7.3-2.4,11.59,11.59,0,0,1-4.3-3.5,20,20,0,1,0-30.2,26.2A51.19,51.19,0,0,0,299.8,608a90.84,90.84,0,0,0,10.8,3.7v5.7a20,20,0,0,0,40,0v-6.1a69.59,69.59,0,0,0,18.8-8.4c14.6-9.5,22.7-23.5,22.7-39.3A46.7,46.7,0,0,0,380.6,533a60.64,60.64,0,0,0-16.9-13.4,67.9,67.9,0,0,0-17.2-6.2,73.08,73.08,0,0,0-15.6-1.6,48.41,48.41,0,0,1-7.8-.6,27.4,27.4,0,0,1-7.5-2.4,16.07,16.07,0,0,1-5-4,8,8,0,0,1-1.9-4.5c0-2.3,1.7-4.6,5.1-6.7A33.72,33.72,0,0,1,331,489a40.58,40.58,0,0,1,5.9,1.1l.9.2a52.21,52.21,0,0,1,7.5,2.6,19.83,19.83,0,0,1,5.3,3.6,20,20,0,0,0,28.3-28.3,61.44,61.44,0,0,0-17.1-11.8,86.71,86.71,0,0,0-11.2-4.2v-6.1a20,20,0,1,0-40,0v5.7a67.79,67.79,0,0,0-18.2,7.9c-15.1,9.5-23.7,24.3-23.7,40.6A47.1,47.1,0,0,0,279.6,530a54,54,0,0,0,18.1,14.5,67.89,67.89,0,0,0,18.8,6.1,82.91,82.91,0,0,0,14.3,1.1,33.2,33.2,0,0,1,7.2.7,31.34,31.34,0,0,1,7.1,2.5,21.75,21.75,0,0,1,5.4,4.3,6.93,6.93,0,0,1,1.6,4.3C352.1,564.7,352.1,566.6,347.6,569.5Z"/><rect x="417" y="435.4" width="131.3" height="40"/><path d="M681.9,521.4a123.94,123.94,0,1,0,87.7,36.3A123.47,123.47,0,0,0,681.9,521.4ZM735.1,697a19.8,19.8,0,0,1-28.2,0l-37.4-37.4a20.1,20.1,0,0,1-7.4-15.5V566.6a20,20,0,0,1,40,0v69l33.1,33.1A20.13,20.13,0,0,1,735.1,697Z"/><path d="M500,102.9c-276.1,0-500,223.9-500,500s223.9,500,500,500,500-223.9,500-500S776.1,102.9,500,102.9ZM627.1,851.7a25,25,0,0,1-25,25H231.6a25,25,0,0,1-25-25v-499a25,25,0,0,1,25-25H602.1a25,25,0,0,1,25,25v41.8a59.63,59.63,0,0,0-30.4,52.2,57.92,57.92,0,0,0,1.4,12.6,204.35,204.35,0,0,0-60.4,41.8c-3.5,3.5-6.9,7.1-10.1,10.8H417v40h83.6c-2.3,4.6-4.5,9.2-6.6,14a209.52,209.52,0,0,0-8,22.6H417v40h61.7c-.5,5.6-.7,11.2-.7,16.8a184.86,184.86,0,0,0,1,19.8H276.2v40H486.9a199.58,199.58,0,0,0,7.1,19.6,209.14,209.14,0,0,0,11.6,23.2H276.2v40h260c.5.5,1,1.1,1.5,1.6a203.59,203.59,0,0,0,64.8,43.7,193.63,193.63,0,0,0,24.6,8.6Zm54.8-42.4a164,164,0,0,1-20-326.7V466.5h-5.6a20,20,0,0,1-.1-40l51.2-.2h.1a20,20,0,0,1,.1,40h-5.7v16.3a162.86,162.86,0,0,1,79.5,32.5l16.4-16.4A20,20,0,1,1,826.1,527L810,543.1a163.25,163.25,0,0,1,35.8,102.3C845.9,735.9,772.5,809.3,681.9,809.3Z"/>
</svg>
