<svg class="cf-icon-svg" version="1.1" viewBox="0 0 1000 1200">
	<path d="M413.2,564.1v50h54.6a278.44,278.44,0,0,1,7.8-50Z"/><path d="M210.8,834.9H555.5c-2.4-2.2-4.8-4.5-7.1-6.9a284,284,0,0,1-35.3-43.1H210.8Z"/><rect x="413.2" y="351.9" width="143.2" height="50"/><path d="M413.2,458v50h83.3a276.77,276.77,0,0,1,32.2-50Z"/><path d="M210.8,670.2v50H481.5a269,269,0,0,1-11.7-50Z"/><path d="M149.6,900.4V260.1H612V388.6c7.3-4,14.8-7.6,22.5-11a75,75,0,0,1-2.9-20.7A77.11,77.11,0,0,1,672,288.8V235a35.17,35.17,0,0,0-35-35H124.6a35.17,35.17,0,0,0-35,35V925.3a35.17,35.17,0,0,0,35,35H637a35.17,35.17,0,0,0,35-35v-25H149.6Z"/><path d="M353.3,486.4a81.62,81.62,0,0,0-22.6-18,95.8,95.8,0,0,0-23.2-8.4,98.11,98.11,0,0,0-21.1-2.2,66,66,0,0,1-11.2-.9,38,38,0,0,1-11.1-3.6,24.61,24.61,0,0,1-7.8-6.2,13.79,13.79,0,0,1-3.3-8c0-4.2,2.8-8.1,8.3-11.6,6.6-4.2,16.3-6.7,25.3-6.7a66.88,66.88,0,0,1,8.8,1.5l1.2.3a65.93,65.93,0,0,1,11,3.8,27.26,27.26,0,0,1,8.1,5.6,25,25,0,1,0,35.4-35.4,79.38,79.38,0,0,0-22.9-15.8,115.18,115.18,0,0,0-17.1-6.2V364.1a25,25,0,0,0-50,0V374a91.78,91.78,0,0,0-26.4,11.2c-20.1,12.7-31.6,32.3-31.6,53.9a63.1,63.1,0,0,0,14.5,39.5A72.38,72.38,0,0,0,241.8,498a90.81,90.81,0,0,0,25.2,8.2,121.12,121.12,0,0,0,19.4,1.5,49.75,49.75,0,0,1,10.5,1.1,42.12,42.12,0,0,1,10.5,3.8,30.18,30.18,0,0,1,8.2,6.6,11.71,11.71,0,0,1,2.9,7.7c0,1.9,0,5.4-7.4,10.3-5.1,3.3-14.9,7.1-25.8,7.1-3.4,0-9.6-1.1-11.6-1.4a61.68,61.68,0,0,1-10.6-3.4A19.81,19.81,0,0,1,256,534a25,25,0,0,0-37.8,32.8A67.92,67.92,0,0,0,244.5,586a119.62,119.62,0,0,0,16.6,5.5v10.1a25,25,0,0,0,50,0V591a93.84,93.84,0,0,0,27.2-11.8c19.5-12.6,30.2-31.2,30.2-52.2A60.94,60.94,0,0,0,353.3,486.4Z"/><path d="M920.1,488.3l22.1-22.1a25,25,0,1,0-35.4-35.4l-22.4,22.4a225.86,225.86,0,0,0-115-46.9V381.4h10.5a25,25,0,0,0-.1-50h-.1l-70.9.3a25,25,0,0,0,.1,50h10.4v24.7C605.6,418.8,517.2,515.2,517.2,632.1c0,125.4,101.7,227.1,227.1,227.1S971.4,757.5,971.4,632.1A226,226,0,0,0,920.1,488.3ZM816,701.8a25.11,25.11,0,0,1-35.4,0l-51.9-51.9a25,25,0,0,1-9.4-19.5V523a25,25,0,0,1,50,0v96.8L816,666.5A24.87,24.87,0,0,1,816,701.8Z"/>
</svg>
