<svg class="cf-icon-svg" aria-label="building credit" version="1.1" viewBox="0 0 13 16">
<path d="M6.5,2C2.9,2,0,4.9,0,8.5S2.9,15,6.5,15S13,12.1,13,8.5S10.1,2,6.5,2L6.5,2z M4,10.7V11h3v-0.3H4z M5.2,5.3
	C5,5.3,4.9,5.1,4.9,5c0-0.2,0.1-0.3,0.3-0.3h1v-1c0-0.2,0.1-0.3,0.3-0.3c0.2,0,0.3,0.1,0.3,0.3v1h1C8,4.7,8.1,4.8,8.1,5
	S8,5.3,7.8,5.3h-1v1c0,0.2-0.1,0.3-0.3,0.3c-0.2,0-0.3-0.1-0.3-0.3v-1C6.2,5.3,5.2,5.3,5.2,5.3z M9.6,7.8c0.3,0,0.5,0.2,0.5,0.5v0.3
	H2.9V8.3c0-0.3,0.2-0.5,0.5-0.5H9.6z M2.9,9.5h7.2v2c0,0.3-0.2,0.5-0.5,0.5H3.4c-0.3,0-0.5-0.2-0.5-0.5V9.5z"/>
</svg>
