<svg class="cf-icon-svg" aria-label="bullhorn" version="1.1" viewBox="0 0 13 16">
<path d="M5,10.3l1.3,0.3L6.5,10L5.1,9.7L5,10.3z M6.5,2C2.9,2,0,4.9,0,8.5S2.9,15,6.5,15S13,12.1,13,8.5S10.1,2,6.5,2L6.5,2z
	 M10.4,10.6c0,0.1,0,0.2-0.1,0.3S10.2,11,10.1,11H10l-2.9-0.8L6.8,11c0,0.1-0.1,0.2-0.1,0.2c-0.1,0-0.1,0-0.2,0H6.4l-2-0.5
	c-0.2,0-0.3-0.2-0.2-0.4l0.2-0.9H3.8H2.9c-0.1,0-0.2,0-0.2-0.1C2.6,9.2,2.6,9.1,2.6,9V7.6c0-0.2,0.2-0.3,0.3-0.3h0.9L10,5.7
	c0.1,0,0.2,0,0.3,0.1c0.1,0.1,0.1,0.2,0.1,0.3C10.4,6.1,10.4,10.6,10.4,10.6z"/>
</svg>
