<svg class="cf-icon-svg" aria-label="buying car" version="1.1" viewBox="0 0 13 16">
<path d="M11.8,6.7L10.7,4c-0.2-0.5-0.6-1-1.5-1H3.7C2.9,3,2.4,3.4,2.2,4l-1,2.7C0.8,6.8,0,7.3,0,8.2v3.5h1v1.1c0,1.4,1.9,1.4,1.9,0
	v-1.1h3.5H10v1.1c0,1.4,2,1.4,2,0v-1.1h1V8.2C13,7.3,12.2,6.8,11.8,6.7L11.8,6.7z M2,9.8c-0.6,0-1-0.5-1-1.1c0-0.6,0.4-1.1,1-1.1
	s1.1,0.5,1.1,1.1C3.1,9.3,2.6,9.8,2,9.8L2,9.8z M2.3,6.7l0.8-2.2C3.2,4.2,3.3,4,3.7,4h5.6c0.3,0,0.5,0.2,0.6,0.5l0.8,2.2H2.3z
	 M11,9.8c-0.6,0-1.1-0.5-1.1-1.1c0-0.6,0.5-1.1,1.1-1.1s1.1,0.5,1.1,1.1C12,9.3,11.6,9.8,11,9.8z"/>
</svg>
