<svg class="cf-icon-svg" aria-label="buying car" version="1.1" viewBox="0 0 13 16">
<path d="M8.5,6.2c0-0.2-0.1-0.3-0.3-0.3H4.8C4.6,5.9,4.5,6,4.5,6.2L4,7.5h5L8.5,6.2z M6.5,2C2.9,2,0,4.9,0,8.5S2.9,15,6.5,15
	S13,12.1,13,8.5S10.1,2,6.5,2L6.5,2z M9.7,10.4v0.7c0,0.8-1.1,0.8-1.2,0v-0.7H4.4v0.7c0,0.8-1.2,0.8-1.2,0v-0.7H2.7v-2
	c0-0.6,0.4-0.9,0.7-0.9L4,5.9c0.1-0.3,0.4-0.6,0.9-0.6h3.3c0.5,0,0.7,0.3,0.9,0.6l0.6,1.6c0.3,0,0.7,0.3,0.7,0.9v2.1
	C10.3,10.4,9.7,10.4,9.7,10.4z M3.9,8C3.5,8,3.2,8.3,3.2,8.6c0,0.3,0.3,0.7,0.6,0.7S4.5,9,4.5,8.6C4.5,8.2,4.2,8,3.9,8L3.9,8z
	 M9.1,8C8.8,8,8.5,8.3,8.5,8.6c0,0.3,0.3,0.7,0.6,0.7S9.7,9,9.7,8.6S9.5,8,9.1,8z"/>
</svg>
