<svg class="cf-icon-svg" aria-label="clock" version="1.1" viewBox="0 0 13 16">
<path d="M6.5,5.4c-1.7,0-3.1,1.4-3.1,3.1s1.4,3.1,3.1,3.1s3.1-1.4,3.1-3.1S8.2,5.4,6.5,5.4L6.5,5.4z M6.7,9.2c0,0-0.1,0.1-0.2,0.1
	C6.3,9.3,6.2,9.1,6.2,9V6.4c0-0.2,0.1-0.3,0.3-0.3s0.3,0.1,0.3,0.3v1.8l0.8-0.8c0.1-0.1,0.3-0.1,0.4,0c0.1,0.1,0.1,0.3,0,0.4
	L6.7,9.2z M6.5,2C2.9,2,0,4.9,0,8.5S2.9,15,6.5,15S13,12.1,13,8.5S10.1,2,6.5,2L6.5,2z M6.5,12.4c-2.2,0-3.9-1.7-3.9-3.9
	s1.7-3.9,3.9-3.9s3.9,1.7,3.9,3.9S8.7,12.4,6.5,12.4z"/>
</svg>
