<svg class="cf-icon-svg" aria-label="closing quote" version="1.1" viewBox="0 0 13 16">
<path d="M6.5,15c3.6,0,6.5-2.9,6.5-6.5S10.1,2,6.5,2S0,4.9,0,8.5S2.9,15,6.5,15L6.5,15z M8.6,5.8c1-0.2,2,0.4,2.3,1.7
	c0.2,1.9-1.2,3.5-3.3,3.8c-0.1,0-0.1-0.1-0.1-0.1l-0.1-0.6c0,0,0-0.1,0.1-0.1c0.6-0.2,1.1-0.5,1.3-1.2C8,9.3,7.3,8.6,7.1,7.8
	C7,6.8,7.6,5.9,8.6,5.8L8.6,5.8z M3.6,5.8c1-0.2,2,0.4,2.3,1.7c0.2,1.9-1.2,3.5-3.3,3.8c-0.1,0-0.1-0.1-0.1-0.1l-0.1-0.6
	c0,0,0-0.1,0.1-0.1c0.6-0.2,1.1-0.5,1.3-1.2C3,9.3,2.3,8.6,2.1,7.8C2,6.8,2.6,5.9,3.6,5.8z"/>
</svg>
