<svg class="cf-icon-svg" aria-label="complaint" version="1.1" viewBox="0 0 13 16">
<path d="M6.5,2C2.9,2,0,4.9,0,8.5S2.9,15,6.5,15S13,12.1,13,8.5S10.1,2,6.5,2L6.5,2z M6.5,9.7c-0.2,0-0.3,0.1-0.3,0.3v0.1
	c0,0.2,0.1,0.3,0.3,0.3s0.3-0.1,0.3-0.3V10C6.8,9.8,6.7,9.7,6.5,9.7L6.5,9.7z M6.5,6.6C6.2,6.6,6,6.8,6,7.1l0.2,2
	c0,0.2,0.1,0.3,0.3,0.3c0.2,0,0.3-0.1,0.4-0.3l0.2-2C7,6.8,6.8,6.6,6.5,6.6L6.5,6.6z M10.1,5.5c0.2,0,0.4,0.2,0.4,0.4v5.2
	c0,0.2-0.2,0.4-0.4,0.4H7.3l-0.7,1l-0.1,0.1c0,0-0.1,0-0.1-0.1l-0.7-1H2.9c-0.2,0-0.4-0.1-0.4-0.4V5.9c0-0.2,0.2-0.4,0.4-0.4H10.1z"
	/>
</svg>
