<svg class="cf-icon-svg" aria-label="copy" version="1.1" viewBox="0 0 13 16">
<path d="M6.5,2C2.9,2,0,4.9,0,8.5S2.9,15,6.5,15S13,12.1,13,8.5S10.1,2,6.5,2L6.5,2z M9.6,5.7H8.3V4.4L9.6,5.7z M4.4,4.4
	C4.4,4.3,4.5,4.3,4.4,4.4l3.2-0.1V6L7.3,5.5C7,5.3,6.9,5.2,6.6,5.2H4.4V4.4z M8.2,7.1H6.9V5.8L8.2,7.1z M3.2,12.4
	c-0.1,0-0.1-0.1-0.1-0.1V5.8c0-0.1,0.1-0.1,0.1-0.1h3.2v1.8c0,0.2,0.1,0.3,0.3,0.3h1.8v4.6c0,0.1-0.1,0.1-0.1,0.1
	C8.3,12.4,3.2,12.4,3.2,12.4z M9.6,11c-0.4,0-0.7,0-0.7,0V7.4c0-0.2-0.1-0.4-0.2-0.6L8.1,6.3h1.7v4.6C9.8,11,9.7,11,9.6,11z"/>
</svg>
