<svg class="cf-icon-svg" version="1.1" viewBox="0 0 1000 1200">
	<path d="M706.1,510.5a67.24,67.24,0,0,0-17.3-6.2,73.35,73.35,0,0,0-15.7-1.6,47.52,47.52,0,0,1-7.8-.6,26.35,26.35,0,0,1-7.5-2.4,16.07,16.07,0,0,1-5-4,8.2,8.2,0,0,1-1.9-4.6c0-2.4,1.7-4.7,5.1-6.8a34.14,34.14,0,0,1,17.3-4.6,44,44,0,0,1,6,1.1l.9.2a40.86,40.86,0,0,1,7.5,2.7,18.36,18.36,0,0,1,5.3,3.6A20,20,0,1,0,721.3,459a58.53,58.53,0,0,0-17.2-11.8,86.71,86.71,0,0,0-11.2-4.2v-6.1a20,20,0,0,0-40,0v5.7a67.79,67.79,0,0,0-18.2,7.9C619.7,460,611,474.8,611,491a47.58,47.58,0,0,0,10.9,29.8A55.58,55.58,0,0,0,640,535.4a67.89,67.89,0,0,0,18.8,6.1,83.3,83.3,0,0,0,14.4,1.1,32.58,32.58,0,0,1,7.2.7,29.71,29.71,0,0,1,7.1,2.5,22.22,22.22,0,0,1,5.4,4.4,6.5,6.5,0,0,1,1.7,4.3c0,1,0,2.9-4.5,5.8a34.71,34.71,0,0,1-17.7,4.8,74.56,74.56,0,0,1-8.1-1,41.33,41.33,0,0,1-7.3-2.4,11.06,11.06,0,0,1-4.4-3.5,20,20,0,0,0-30.2,26.2,51.5,51.5,0,0,0,19.8,14.4,90.84,90.84,0,0,0,10.8,3.7v5.8a20,20,0,0,0,40,0v-6.1a69.59,69.59,0,0,0,18.8-8.4c14.7-9.5,22.7-23.5,22.7-39.4A47.15,47.15,0,0,0,723,523.7,61.8,61.8,0,0,0,706.1,510.5Z"/><rect x="261.8" y="666.7" width="205.4" height="40"/><path d="M500,102.9c-276.1,0-500,223.9-500,500s223.9,500,500,500,500-223.9,500-500S776.1,102.9,500,102.9ZM149.4,451.3A49.72,49.72,0,0,1,199,401.7H507.2a204,204,0,0,0-36.6,88.6H149.4Zm629,300a49.72,49.72,0,0,1-49.6,49.6H199a49.72,49.72,0,0,1-49.6-49.6V540.2H469.2A204.72,204.72,0,0,0,593.1,709.9a204.33,204.33,0,0,0,159,0,190,190,0,0,0,26.2-13.4v54.8ZM672.6,686A164.3,164.3,0,1,1,836.9,521.7,164.29,164.29,0,0,1,672.6,686Z"/>
</svg>
