<svg class="cf-icon-svg" version="1.1" viewBox="0 0 1000 1200">
	<path d="M516.8,397.9H73.8a70.21,70.21,0,0,0-70,70v60.2H463a281.7,281.7,0,0,1,53.8-130.2Z"/><path d="M742.2,849.1A281.7,281.7,0,0,1,461.1,588H3.8V891.2a70.21,70.21,0,0,0,70,70H821.4a70.21,70.21,0,0,0,70-70V806.3a284,284,0,0,1-39.5,20.5A277,277,0,0,1,742.2,849.1Zm-289.9-24H162.5v-50H452.3Z"/><path d="M742.2,335.3c-128.1,0-231.9,103.8-231.9,231.9S614.1,799.1,742.2,799.1,974.1,695.3,974.1,567.2,870.3,335.3,742.2,335.3Zm53.6,331.2a97.14,97.14,0,0,1-28.1,12.1v11.1a25,25,0,0,1-50,0V679a113.25,113.25,0,0,1-17.3-5.6,67.94,67.94,0,0,1-26.6-19.5,25,25,0,0,1,37.8-32.8,21.81,21.81,0,0,0,7.4,5.8c3.7,1.5,7.5,3,10.9,3.5a83.07,83.07,0,0,0,12,1.5c9.3,0,19.8-2.9,26.7-7.3,7.8-5.1,7.8-8.9,7.8-10.9a12.3,12.3,0,0,0-3.1-8.2,34.82,34.82,0,0,0-8.6-6.9,42.75,42.75,0,0,0-10.9-3.9,52.68,52.68,0,0,0-10.8-1.1,113.09,113.09,0,0,1-19.7-1.6,89.35,89.35,0,0,1-25.6-8.3A74.34,74.34,0,0,1,673.2,564a64,64,0,0,1-14.6-40c0-21.8,11.7-41.7,32-54.6A94.27,94.27,0,0,1,717.8,458V447.5a25,25,0,0,1,50,0v11.1a120.86,120.86,0,0,1,17.8,6.4,79.93,79.93,0,0,1,23.3,16,25,25,0,0,1-35.4,35.4,29.77,29.77,0,0,0-8.5-5.8,62.32,62.32,0,0,0-11.3-4l-1.2-.3a58.41,58.41,0,0,0-9.1-1.6c-9.3,0-19.3,2.7-26.1,7q-8.7,5.55-8.7,12.3c0,2.6,1.4,5.9,3.4,8.5a25.29,25.29,0,0,0,8.1,6.5,43,43,0,0,0,11.5,3.7,69.67,69.67,0,0,0,11.5.9,106.34,106.34,0,0,1,21.4,2.2,92.73,92.73,0,0,1,23.5,8.5,81.81,81.81,0,0,1,22.9,18.2,62.71,62.71,0,0,1,15.5,41.1C826.4,628.7,821.1,650.1,795.8,666.5Z"/>
</svg>
