<svg class="cf-icon-svg" aria-label="credit report" version="1.1" viewBox="0 0 10.2 16">
<path d="M4,10.6L3.1,9.5C2.9,9.3,2.5,9.2,2.3,9.4C2,9.6,1.9,10,2.1,10.3l1.3,1.8c0.1,0.2,0.3,0.3,0.5,0.3s0.4-0.1,0.5-0.3l3.1-4.2
	c0.3-0.3,0.3-0.7,0-0.9C7.2,6.7,6.8,6.8,6.6,7.1L4,10.6z M10.1,5c0,0,0,0-2.8-2.8C7.2,2.1,7,2,6.9,2H0.6C0.2,2,0,2.3,0,2.6v11.8
	C0,14.7,0.2,15,0.6,15h9.1c0.3,0,0.6-0.3,0.6-0.6v-9C10.3,5.2,10.2,5.1,10.1,5L10.1,5z M1.2,13.8V3.2h5.1v2.2C6.3,5.7,6.5,6,6.8,6H9
	v7.8H1.2L1.2,13.8z"/>
</svg>
