<svg class="cf-icon-svg" aria-label="credit report" version="1.1" viewBox="0 0 13 16">
<path d="M5.8,9.8L5.3,9.1C5.2,8.9,5,8.9,4.8,9C4.6,9.2,4.6,9.4,4.7,9.6l0.8,1.1c0.1,0.1,0.2,0.2,0.3,0.2c0.1,0,0.2-0.1,0.3-0.2
	L8,8.1c0.1-0.2,0.1-0.4-0.1-0.5c-0.2-0.2-0.4-0.1-0.5,0L5.8,9.8z M6.5,2C2.9,2,0,4.9,0,8.5S2.9,15,6.5,15S13,12.1,13,8.5
	S10.1,2,6.5,2L6.5,2z M7.9,4.8l1.5,1.5H7.9V4.8z M9.6,12.1c0,0.2-0.2,0.4-0.4,0.4H3.8c-0.2,0-0.4-0.2-0.4-0.4V4.9
	c0-0.2,0.2-0.3,0.4-0.3h3.4v2C7.2,6.8,7.4,7,7.5,7h2v5.1H9.6z"/>
</svg>
