<svg class="cf-icon-svg" aria-label="date" version="1.1" viewBox="0 0 13 16">
<path d="M4.2,11.6c-0.4,0-0.8-0.4-0.8-0.8c0-0.3-0.2-0.5-0.5-0.5s-0.5,0.2-0.5,0.5c0,1,0.8,1.8,1.8,1.8S6,11.8,6,10.8
	c0-0.7-0.4-1.3-1-1.6l1-1.1C6.1,8,6.1,7.8,6,7.6C5.9,7.4,5.7,7.3,5.6,7.3H2.9c-0.3,0-0.5,0.2-0.5,0.5s0.2,0.5,0.5,0.5h1.6L3.8,9.2
	c0,0-0.1,0.1-0.1,0.2l0,0v0.1l0,0l0,0c0,0.1,0,0.1,0.1,0.2l0,0c0,0,0,0.1,0.1,0.1l0,0l0,0C4,9.9,4,9.9,4.1,10l0,0h0.1
	C4.7,10,5,10.4,5,10.8C5.1,11.3,4.7,11.6,4.2,11.6L4.2,11.6z M8.8,12.7c1,0,1.8-0.8,1.8-1.8V9.2c0-1-0.8-1.8-1.8-1.8S7,8.2,7,9.2
	v1.7C6.9,11.8,7.8,12.7,8.8,12.7L8.8,12.7z M7.9,9.2c0-0.5,0.4-0.8,0.8-0.8c0.5,0,0.9,0.4,0.9,0.8v1.7c0,0.5-0.4,0.8-0.9,0.8
	c-0.4,0-0.8-0.4-0.8-0.8C7.9,10.8,7.9,9.2,7.9,9.2z M12.5,2h-12C0.2,2,0,2.2,0,2.5v3v9C0,14.8,0.2,15,0.5,15h12
	c0.3,0,0.5-0.2,0.5-0.5v-9v-3C13,2.2,12.8,2,12.5,2L12.5,2z M12,14H1V6h11V14z"/>
</svg>
