<svg class="cf-icon-svg" aria-label="date" version="1.1" viewBox="0 0 13 16">
<path d="M7.7,10.2c0.3,0,0.5-0.2,0.5-0.4V8.9c0-0.3-0.2-0.5-0.5-0.5S7.2,8.6,7.2,8.9v0.9C7.3,10,7.5,10.2,7.7,10.2L7.7,10.2z
	 M3.5,11.5h6.1V7.1H3.5V11.5z M6.7,8.9c0-0.6,0.5-1,1-1c0.6,0,1,0.4,1,1v0.9c0,0.6-0.4,1-1,1c-0.5,0-1-0.4-1-1V8.9z M5.3,9.3
	C5.2,9.3,5.2,9.3,5.3,9.3C5.2,9.3,5.2,9.3,5.3,9.3H5.1l0,0c0,0,0-0.1-0.1-0.1l0,0V9.1l0,0l0,0C5,9,5,9,5,8.9l0,0V8.8l0,0l0.4-0.5
	H4.5C4.3,8.3,4.2,8.2,4.2,8c0-0.2,0.1-0.3,0.3-0.3H6c0.1,0,0.2,0.1,0.2,0.2c0.1,0.1,0,0.2,0,0.3L5.7,8.8C6,9,6.2,9.4,6.2,9.7
	c0,0.6-0.4,1-1,1s-1-0.4-1-1c0-0.2,0.1-0.3,0.3-0.3c0.2,0,0.3,0.1,0.3,0.3c0,0.3,0.2,0.5,0.4,0.5c0.3,0,0.5-0.2,0.5-0.5
	C5.7,9.5,5.5,9.3,5.3,9.3L5.3,9.3z M6.5,2C2.9,2,0,4.9,0,8.5S2.9,15,6.5,15S13,12.1,13,8.5S10.1,2,6.5,2L6.5,2z M10.1,6.8v5
	c0,0.2-0.1,0.3-0.3,0.3H3.2c-0.2,0-0.3-0.1-0.3-0.3v-5V5.2C2.9,5,3,4.9,3.2,4.9h6.6c0.2,0,0.3,0.1,0.3,0.3V6.8L10.1,6.8z"/>
</svg>
