<svg class="cf-icon-svg" aria-label="debt" version="1.1" viewBox="0 0 13 16">
<path d="M12.1,7.4c0,0.1,0,0.2,0,0.2l-0.5,1.6c-0.1,0.2-0.2,0.3-0.4,0.2C11,9.4,10.9,9.2,11,9l0.3-0.9l-6.4,3.3
	c-0.1,0.1-0.2,0-0.3,0l-2.3-1.2c0,0-1.6,0.8-1.8,0.9c1,2.3,3.3,3.9,6,3.9c3.6,0,6.5-2.9,6.5-6.5S10.1,2,6.5,2S0,4.9,0,8.5
	c0,0.7,0.1,1.4,0.3,2c0.1-0.1,1.5-0.8,1.5-0.8l0.3-0.1c0.1,0,0.2-0.1,0.3,0l2.3,1.2L6,10.1c-0.8,0-1.6-0.5-2-1.3
	C3.4,7.6,3.8,6.2,5,5.6c0.3-0.2,0.7-0.3,1.1-0.3c0.9,0,1.7,0.5,2.1,1.3C8.6,7.5,8.5,8.4,8,9l3-1.4l-0.9-0.3C9.9,7.2,9.8,7.1,9.9,6.9
	c0.1-0.2,0.2-0.3,0.4-0.2l1.6,0.5C12,7.2,12,7.3,12.1,7.4L12.1,7.4z M6.8,8.7c0.3-0.2,0.4-0.6,0.3-0.9C6.9,7.4,6.4,7.3,6,7.5
	c-0.1,0.1-0.4,0.1-0.5,0s0-0.3,0.3-0.4C5.9,7,6.1,7,6.2,7.1s0.2,0.2,0.3,0.1c0.2,0,0.2-0.2,0.2-0.3C6.5,6.6,6.1,6.5,5.8,6.6L5.6,6.3
	c0-0.1-0.2-0.1-0.3-0.1C5.2,6.3,5.1,6.4,5.2,6.5l0.1,0.2C5,7,4.9,7.4,5,7.7C5.3,8.1,5.8,8.2,6.2,8c0.1-0.1,0.4-0.1,0.5,0
	c0.1,0.2-0.1,0.3-0.3,0.4C6.2,8.4,6,8.5,5.9,8.3C5.8,8.2,5.7,8.2,5.6,8.2C5.4,8.3,5.4,8.4,5.4,8.6C5.6,8.9,6,9,6.3,8.9l0.1,0.2
	c0.1,0.1,0.2,0.2,0.3,0.1C6.9,9.2,7,9,6.9,8.9L6.8,8.7z"/>
</svg>
