<svg class="cf-icon-svg" aria-label="debt collection" version="1.1" viewBox="0 0 12.8 16">
<path d="M11.4,10.7c-0.4,0.6-1.1,1-2.3,1H3.5c0,0-0.4,0-0.4-0.4V11c0,0,0-0.4,0.4-0.4h1.2c0.4,0.5,1.1,0.8,1.7,0.8
	c1.3,0,2.4-1.1,2.4-2.4S7.7,6.6,6.4,6.6c-0.7,0-1.3,0.3-1.7,0.7H2.5C2.4,7.4,2,7.4,2,7V6.7c0-0.1,0.1-0.4,0.5-0.4H8
	c0.2,0,0.2-0.4,0-0.4H6.4C6,6,6,5.6,6,5.6V5.3c0-0.4,0.4-0.4,0.4-0.4h2.5c1.2,0,2.1,1.6,2.5,2.2h1.4C12.2,4.2,9.6,2,6.5,2
	C2.9,2,0,4.9,0,8.5S2.9,15,6.5,15c2.8,0,5.3-1.8,6.1-4.4L11.4,10.7L11.4,10.7z M6.4,9.3C6.2,9.3,5.9,9.2,5.8,9
	C5.6,8.9,5.6,8.7,5.6,8.6c0-0.3,0.3-0.6,0.6-0.7V7.6c0-0.1,0.1-0.2,0.2-0.2s0.2,0.1,0.2,0.2v0.3C7,8,7.3,8.2,7.3,8.6
	c0,0.1-0.1,0.2-0.2,0.2S6.8,8.7,6.8,8.6c0-0.2-0.3-0.2-0.4-0.2C6.2,8.4,6,8.5,6,8.6c0,0.2,0.3,0.2,0.4,0.2c0.4,0,0.9,0.3,0.9,0.7
	c0,0.3-0.3,0.6-0.6,0.7v0.3c0,0.1-0.1,0.2-0.2,0.2s-0.3-0.1-0.3-0.2v-0.3c-0.4-0.1-0.6-0.3-0.6-0.7c0-0.1,0.1-0.2,0.2-0.2
	S6,9.4,6,9.5c0,0.2,0.2,0.2,0.4,0.2c0.2,0,0.4-0.1,0.4-0.2C6.8,9.4,6.6,9.3,6.4,9.3L6.4,9.3z M1.5,8.2C1.5,8,1.6,7.8,2,7.8h2.4
	C4.2,8.1,4.1,8.5,4.1,8.9H2c-0.2,0-0.5,0-0.5-0.4V8.2z M2,9.6c0-0.2,0.1-0.4,0.5-0.4h1.6c0,0.4,0.2,0.7,0.3,1H2.5
	C2.2,10.3,2,10.1,2,9.9V9.6z"/>
</svg>
