<svg class="cf-icon-svg" aria-label="debt collection" version="1.1" viewBox="0 0 13 16">
<path d="M2.9,8.5C3,8,3.1,7.6,3.3,7.2H0.6C0.1,7.2,0,7.5,0,7.7v0.4c0,0.4,0.4,0.4,0.6,0.4H2.9L2.9,8.5z M1.2,8.9
	c-0.5,0-0.6,0.2-0.6,0.4v0.3c0,0.3,0.2,0.4,0.6,0.4h2.1C3.1,9.7,3,9.3,2.9,8.9H1.2z M11.2,6.5C10.8,5.8,9.7,4,8.4,4H5.6
	c0,0-0.5,0-0.5,0.5v0.3c0,0,0,0.4,0.5,0.4h1.8c0.2,0,0.2,0.4,0,0.4H1.2C0.7,5.7,0.6,6,0.6,6.1v0.3c0,0.4,0.5,0.4,0.6,0.4h2.5
	C4.2,6.3,4.8,6,5.6,6c1.5,0,2.7,1.2,2.7,2.7s-1.2,2.7-2.7,2.7c-0.8,0-1.5-0.3-2-0.9H2.3c-0.5,0-0.5,0.4-0.5,0.4v0.3
	c0,0.4,0.5,0.4,0.5,0.4h6.3c1.3,0,2.2-0.5,2.6-1.2h1.4C12.9,9.7,13,8.9,13,8.1c0-0.6-0.1-1.1-0.2-1.6H11.2L11.2,6.5z M5.6,9.5
	c-0.2,0-0.4-0.1-0.4-0.3S5.1,8.9,4.9,8.9C4.8,8.9,4.6,9,4.6,9.2C4.6,9.6,5,9.9,5.3,10v0.3c0,0.2,0.1,0.3,0.3,0.3
	c0.1,0,0.3-0.1,0.3-0.3V10c0.4-0.1,0.7-0.4,0.7-0.8c0-0.2-0.1-0.4-0.2-0.5C6.2,8.5,5.9,8.4,5.6,8.4c-0.2,0-0.4-0.1-0.4-0.3
	c0-0.1,0.2-0.3,0.4-0.3C5.8,7.8,6,7.9,6,8.1c0,0.1,0.1,0.3,0.3,0.3c0.2,0,0.3-0.1,0.3-0.3c0-0.4-0.4-0.7-0.7-0.8V7.1
	c0-0.1-0.1-0.3-0.3-0.3C5.5,6.8,5.3,6.9,5.3,7v0.3C4.9,7.4,4.6,7.8,4.6,8.1c0,0.2,0.1,0.4,0.2,0.5C5,8.8,5.3,8.9,5.6,8.9
	C5.7,8.9,6,9,6,9.2C6,9.3,5.9,9.5,5.6,9.5z"/>
</svg>
