<svg class="cf-icon-svg" aria-label="dialogue" version="1.1" viewBox="0 0 13 16">
<path d="M12.1,5.6H8.9V4.9C8.9,4.4,8.5,4,8,4H1C0.4,4,0,4.4,0,4.9v4.8c0,0.5,0.4,0.9,0.9,0.9h1v1.2c0,0.3,0.2,0.5,0.4,0.5
	c0.1,0,0.2,0,0.3-0.2L4,10.7v0.6c0,0.5,0.4,0.9,0.9,0.9h3.8l1.5,1.5c0.1,0.1,0.3,0.2,0.3,0.2c0.2,0,0.4-0.2,0.4-0.5v-1.1h0.9
	c0.5,0,0.9-0.4,0.9-0.9V6.5C13,6,12.6,5.6,12.1,5.6L12.1,5.6z M12.3,11.4c0,0.1-0.1,0.2-0.2,0.2h-1.6v1.3l-1.4-1.3H5
	c-0.1,0-0.2-0.1-0.2-0.2V6.5c0-0.1,0.1-0.2,0.2-0.2h7c0.1,0,0.2,0.1,0.2,0.2v4.9H12.3z"/>
</svg>
