<svg class="cf-icon-svg" aria-label="document" version="1.1" viewBox="0 0 13 16">
<path d="M5.4,7.1c0.3,0,0.5-0.2,0.5-0.5S5.6,6,5.4,6S4.8,6.2,4.8,6.5S5.1,7.1,5.4,7.1L5.4,7.1z M8.3,10.8v-0.5H4.7v0.5H8.3z M6.5,2
	C2.9,2,0,4.9,0,8.5S2.9,15,6.5,15S13,12.1,13,8.5S10.1,2,6.5,2L6.5,2z M9.4,6.3H7.9V4.8L9.4,6.3z M9.6,12.3c0,0.1-0.1,0.1-0.1,0.1
	H3.6c-0.1,0-0.1-0.1-0.1-0.1V4.7c0-0.1,0.1-0.1,0.1-0.1h3.7v2.2C7.2,6.9,7.3,7,7.4,7h2.2V12.3L9.6,12.3z M8.3,8.4V7.9H4.7v0.5H8.3z
	 M8.3,9.6V9.1H4.7v0.5H8.3z"/>
</svg>
