<svg class="cf-icon-svg" aria-label="document" version="1.1" viewBox="0 0 10.2 16">
<path d="M8.2,12.4v-0.9H2.1v0.9H8.2z M8.2,10.3V9.5H2.1v0.9L8.2,10.3L8.2,10.3z M3.2,6.1c0.5,0,0.9-0.4,0.9-0.9S3.7,4.3,3.2,4.3
	S2.3,4.7,2.3,5.2C2.4,5.7,2.7,6.1,3.2,6.1L3.2,6.1z M8.2,8.3V7.4H2.1v0.9H8.2z M10.1,5c0,0,0,0-2.8-2.8C7.2,2.1,7,2,6.8,2H0.6
	C0.3,2,0,2.3,0,2.6v11.8C0,14.7,0.3,15,0.6,15h9.1c0.3,0,0.6-0.3,0.6-0.6v-9C10.2,5.2,10.2,5.1,10.1,5L10.1,5z M1.2,13.8V3.2h5.1
	v2.2C6.3,5.7,6.5,6,6.8,6H9v7.8H1.2z"/>
</svg>
