<svg class="cf-icon-svg" aria-label="double quote" version="1.1" viewBox="0 0 13 16">
<path d="M6.5,2C2.9,2,0,4.9,0,8.5S2.9,15,6.5,15S13,12.1,13,8.5S10.1,2,6.5,2L6.5,2z M4.4,11.2c-1,0.2-2-0.4-2.3-1.7
	C1.9,7.6,3.3,6,5.4,5.7c0.1,0,0.1,0.1,0.1,0.1l0.1,0.6c0,0,0,0.1-0.1,0.1C4.9,6.7,4.4,7,4.2,7.7c0.8,0,1.5,0.7,1.7,1.5
	C6,10.2,5.4,11.1,4.4,11.2L4.4,11.2z M9.4,11.2c-1,0.2-2-0.4-2.3-1.7C6.9,7.6,8.3,6,10.4,5.7c0.1,0,0.1,0.1,0.1,0.1l0.1,0.6
	c0,0,0,0.1-0.1,0.1C9.9,6.7,9.4,7,9.2,7.7c0.8,0,1.5,0.7,1.7,1.5C11,10.2,10.4,11.1,9.4,11.2z"/>
</svg>
