<svg class="cf-icon-svg" aria-label="download" version="1.1" viewBox="0 0 10.3 16">
<path d="M4.7,12.7c0.2,0.2,0.6,0.2,0.8,0c0,0,1.7-1.7,1.8-1.8c0.2-0.2,0.2-0.6,0-0.8C7.1,9.8,6.7,9.8,6.5,10c0,0.1-0.8,0.8-0.8,0.8
	V6.7c0-0.3-0.3-0.6-0.6-0.6c-0.3,0-0.6,0.3-0.6,0.6v4.1L3.7,10c-0.2-0.2-0.5-0.2-0.8,0c-0.2,0.2-0.2,0.6,0,0.8
	C2.9,10.9,4.7,12.7,4.7,12.7L4.7,12.7z M10.1,5c0,0,0,0-2.8-2.8C7.2,2.1,7,2,6.9,2H0.6C0.3,2,0,2.3,0,2.6v11.8C0,14.7,0.3,15,0.6,15
	h9.1c0.3,0,0.6-0.3,0.6-0.6v-9C10.3,5.2,10.2,5.1,10.1,5L10.1,5z M1.2,3.2h5.1v2.2C6.3,5.7,6.6,6,6.9,6h2.2v7.8H1.2V3.2z"/>
</svg>
