<svg class="cf-icon-svg" aria-label="download" version="1.1" viewBox="0 0 13 16">
<path d="M6.5,2C2.9,2,0,4.9,0,8.5S2.9,15,6.5,15S13,12.1,13,8.5S10.1,2,6.5,2L6.5,2z M9.4,6.3H7.9V4.8L9.4,6.3z M9.6,12.3
	c0,0.1-0.1,0.1-0.1,0.1H3.6c-0.1,0-0.1-0.1-0.1-0.1V4.7c0-0.1,0.1-0.1,0.1-0.1h3.7v2.2C7.2,6.9,7.3,7,7.4,7h2.2V12.3L9.6,12.3z
	 M6.8,9.9V7.4C6.8,7.2,6.6,7,6.5,7C6.3,7,6.2,7.2,6.2,7.4v2.5L5.7,9.4c-0.1-0.1-0.4-0.1-0.5,0C5,9.6,5,9.8,5.2,9.9L6.3,11
	c0.1,0.1,0.4,0.1,0.5,0l1.1-1.1C8,9.8,8,9.6,7.8,9.4c-0.1-0.1-0.4-0.1-0.5,0L6.8,9.9z"/>
</svg>
