<svg class="cf-icon-svg" aria-label="external link" version="1.1" viewBox="0 0 13 16">
<path d="M6.5,2C2.9,2,0,4.9,0,8.5S2.9,15,6.5,15S13,12.1,13,8.5S10.1,2,6.5,2L6.5,2z M10.3,7.8c0,0.3-0.2,0.5-0.5,0.5
	S9.3,8.1,9.3,7.8V6.4L8.4,7.3v4.5c0,0.3-0.2,0.5-0.5,0.5H3.2C3,12.2,2.7,12,2.7,11.8V7.1c0-0.3,0.2-0.5,0.5-0.5h4.5l0.9-0.9H7.2
	c-0.3,0-0.5-0.2-0.5-0.5s0.2-0.5,0.5-0.5h2.6c0.3,0,0.5,0.2,0.5,0.5C10.3,5.2,10.3,7.8,10.3,7.8z M5.2,9.8C5,9.6,5,9.3,5.2,9.1
	l1.5-1.5h-3v3.7h3.7v-3L5.9,9.8C5.7,10,5.4,10,5.2,9.8z"/>
</svg>
