<svg class="cf-icon-svg" version="1.1" viewBox="0 0 1000 1200">
	<path d="M480.1,604.6h0a25,25,0,1,0,25,25A24.95,24.95,0,0,0,480.1,604.6Z"/><path d="M564.8,678.8h-.1a25,25,0,0,0,0,50h.1a25,25,0,0,0,0-50Z"/><path d="M480.1,753.1h0a25,25,0,1,0,25,25A24.95,24.95,0,0,0,480.1,753.1Z"/><path d="M564.8,604.6h-.1a25,25,0,0,0,0,50h.1a25,25,0,0,0,0-50Z"/><path d="M480.1,678.8h0a25,25,0,1,0,25,25A24.95,24.95,0,0,0,480.1,678.8Z"/><path d="M564.8,753.1h-.1a25,25,0,0,0,0,50h.1a25,25,0,0,0,0-50Z"/><path d="M500,102.9c-276.1,0-500,223.9-500,500s223.9,500,500,500,500-223.9,500-500S776.1,102.9,500,102.9ZM564.7,252h0L698.9,381.5v.3H564.7ZM353.9,814.1a65.23,65.23,0,0,1-53.3,64.1,67.79,67.79,0,0,1-12,1.1A65.39,65.39,0,0,1,223.3,814V538.6a65.2,65.2,0,0,1,111.3-46.1,65.73,65.73,0,0,1,15.3,24,64.54,64.54,0,0,1,3.8,22.1V814.1Zm16.3-357A114.58,114.58,0,0,0,301.1,424V277a25,25,0,0,1,25-25H524.7V395.4a26.5,26.5,0,0,0,26.4,26.4H698.9v43.7H377.8C375.4,462.6,372.9,459.8,370.2,457.1ZM775.9,853.3a25,25,0,0,1-25,25H384.4A114.42,114.42,0,0,0,404,814V538.6a115.78,115.78,0,0,0-2.1-22.1H751a25,25,0,0,1,25,25V853.3Z"/><path d="M649.4,604.6h0a25,25,0,1,0,25,25A24.95,24.95,0,0,0,649.4,604.6Z"/><path d="M649.4,753.1h0a25,25,0,1,0,25,25A24.95,24.95,0,0,0,649.4,753.1Z"/><path d="M649.4,678.8h0a25,25,0,1,0,25,25A24.95,24.95,0,0,0,649.4,678.8Z"/>
</svg>
