<svg class="cf-icon-svg" version="1.1" viewBox="0 0 1000 1200">
	<path d="M846.9,525H795.1V393.5l-96.8-96.8-72-72h0L601.6,200H251.3a35.17,35.17,0,0,0-35,35V415.7a138.93,138.93,0,0,1,46.6,10.8,127.41,127.41,0,0,1,13.4,6.5V259.8H549.2V406.2a38.54,38.54,0,0,0,38.4,38.4H735.1V525H345.2a141.76,141.76,0,0,1,3.3,30.5V936.4a139.79,139.79,0,0,1-11,54.6,142.5,142.5,0,0,1-20.7,34.3H847a35.17,35.17,0,0,0,35-35V560A35.19,35.19,0,0,0,846.9,525Zm-374,374.5a30,30,0,0,1,0-60h.1a30,30,0,1,1-.1,60Zm0-94.1a30,30,0,1,1,0-60h.1a30,30,0,1,1-.1,60Zm0-94a30,30,0,1,1,0-60h.1a30,30,0,1,1-.1,60ZM590,899.5h-.2a30,30,0,0,1,0-60h.2a30,30,0,0,1,0,60Zm0-94.1h-.2a30,30,0,0,1,0-60h.2a30,30,0,0,1,0,60Zm0-94h-.2a30,30,0,0,1,0-60h.2a30,30,0,0,1,0,60ZM707.1,899.5a30,30,0,0,1,0-60h.1a30,30,0,1,1-.1,60Zm0-94.1a30,30,0,0,1,0-60h.1a30,30,0,1,1-.1,60Zm0-94a30,30,0,0,1,0-60h.1a30,30,0,1,1-.1,60Z"/><path d="M208.3,465.3a90.22,90.22,0,0,0-90.2,90.2V936.4a90.2,90.2,0,0,0,180.4,0V555.5A90.22,90.22,0,0,0,208.3,465.3Z"/>
</svg>
