<svg class="cf-icon-svg" aria-label="fax" version="1.1" viewBox="0 0 13 16">
<path d="M7.8,10.3c-0.2,0-0.3,0.1-0.3,0.3S7.6,11,7.8,11c0.2,0,0.3-0.2,0.3-0.4C8.1,10.4,7.9,10.3,7.8,10.3L7.8,10.3z M6.8,8.6
	c-0.2,0-0.3,0.1-0.3,0.3c0,0.2,0.1,0.3,0.3,0.3s0.3-0.1,0.3-0.3C7.1,8.7,6.9,8.6,6.8,8.6L6.8,8.6z M6.8,10.3c-0.2,0-0.3,0.1-0.3,0.3
	S6.6,11,6.8,11s0.3-0.1,0.3-0.3C7.1,10.4,6.9,10.3,6.8,10.3L6.8,10.3z M6.8,9.5c-0.2,0-0.3,0.2-0.3,0.3c0,0.2,0.1,0.3,0.3,0.3
	S7.1,10,7.1,9.8S6.9,9.5,6.8,9.5L6.8,9.5z M8.8,9.5c-0.2,0-0.3,0.2-0.3,0.3c0,0.2,0.1,0.3,0.3,0.3S9.1,10,9.1,9.8S9,9.5,8.8,9.5
	L8.8,9.5z M8.8,8.6c-0.2,0-0.3,0.1-0.3,0.3c0,0.2,0.1,0.3,0.3,0.3s0.3-0.1,0.3-0.3C9.1,8.7,9,8.6,8.8,8.6L8.8,8.6z M6.5,2
	C2.9,2,0,4.9,0,8.5S2.9,15,6.5,15S13,12.1,13,8.5S10.1,2,6.5,2L6.5,2z M9.3,5.7H8.1V4.5L9.3,5.7z M4.3,11.1c0,0.4-0.4,0.7-0.9,0.7
	s-0.9-0.3-0.9-0.7V7c0-0.4,0.4-0.7,0.9-0.7S4.3,6.6,4.3,7V11.1z M4.1,4.4c0-0.1,0.1-0.2,0.2-0.2h3.1V6c0,0.2,0.2,0.3,0.3,0.3h1.8
	v0.8H5C5,6.4,4.7,6,4.2,5.8L4.1,4.4L4.1,4.4z M10.2,11.4c0,0.2-0.1,0.3-0.3,0.3H4.8C4.9,11.6,5,11.4,5,11.1V7.8h4.9
	c0.2,0,0.3,0.2,0.3,0.3V11.4L10.2,11.4z M7.8,8.6c-0.2,0-0.3,0.1-0.3,0.3c0,0.2,0.1,0.3,0.3,0.3c0.2,0,0.3-0.1,0.3-0.3
	C8.1,8.7,7.9,8.6,7.8,8.6L7.8,8.6z M7.8,9.5c-0.2,0-0.3,0.2-0.3,0.3c0,0.2,0.1,0.3,0.3,0.3c0.2,0,0.3-0.1,0.3-0.3S7.9,9.5,7.8,9.5
	L7.8,9.5z M8.8,10.3c-0.2,0-0.3,0.1-0.3,0.3S8.6,11,8.8,11s0.3-0.1,0.3-0.3C9.1,10.4,9,10.3,8.8,10.3z"/>
</svg>
