<svg class="cf-icon-svg" version="1.1" viewBox="0 0 950 1200">
	<path d="M532.7,788.7h0a20,20,0,1,0-.1,40h.1a20,20,0,0,0,0-40Z"/><path d="M532.7,846h0a20,20,0,1,0-.1,40h.1a20,20,0,0,0,0-40Z"/><path d="M461.3,846h0a20,20,0,1,0,20,20A20,20,0,0,0,461.3,846Z"/><path d="M461.3,731.3h0a20,20,0,1,0,20,20A20,20,0,0,0,461.3,731.3Z"/><path d="M461.3,788.7h0a20,20,0,1,0,20,20A20,20,0,0,0,461.3,788.7Z"/><path d="M532.7,731.3h0a20,20,0,1,0-.1,40h.1a20,20,0,0,0,0-40Z"/><path d="M604.1,731.3h0a20,20,0,1,0,20,20A20,20,0,0,0,604.1,731.3Z"/><path d="M604.1,846h0a20,20,0,1,0,20,20A20,20,0,0,0,604.1,846Z"/><path d="M475,249.9c-262.3,0-475,212.7-475,475s212.7,475,475,475,475-212.7,475-475S737.3,249.9,475,249.9Zm62.4,218.5c.2.2.5.4.7.6L648.3,578.5a5.72,5.72,0,0,1,.7.8H544.5a7.19,7.19,0,0,1-7.1-7.1ZM355,906.9a55,55,0,0,1-44.1,53.9,52.74,52.74,0,0,1-8.1,1c-.9,0-1.9.1-2.8.1a55,55,0,0,1-55-55V674.6a55,55,0,0,1,55-55,20.91,20.91,0,0,1,2.5.1,19.41,19.41,0,0,1,2.4.2,54.83,54.83,0,0,1,40,23c1,1.5,2,3,2.9,4.5.1.1.1.2.2.3.3.5.5,1,.8,1.4.1.2.2.3.2.5a24,24,0,0,1,1.1,2.3c.1.3.3.6.4.9s.3.8.5,1.2.3.7.4,1.1.3.7.4,1.1a54.66,54.66,0,0,1,3.2,18.6Zm-47.6-317c-1.2-.1-2.3-.2-3.4-.2V475.5a22.11,22.11,0,0,1,22.1-22.1H500.3a36.28,36.28,0,0,1,7.1.7V572.2a37.09,37.09,0,0,0,37.1,37.1H663.3a42.48,42.48,0,0,1,.7,6.9v10.3H370c-.2-.4-.5-.7-.7-1.1A84.9,84.9,0,0,0,307.4,589.9ZM710.7,937.6A23.43,23.43,0,0,1,687.3,961H365.4A84.65,84.65,0,0,0,385,906.8V674.6a81.59,81.59,0,0,0-2.1-18.6H687.3a23.43,23.43,0,0,1,23.4,23.4Z"/><path d="M604.1,788.7h0a20,20,0,1,0,20,20A20,20,0,0,0,604.1,788.7Z"/>
</svg>
