<svg class="cf-icon-svg" aria-label="fax" version="1.1" viewBox="0 0 13 16">
<path d="M11.7,6.8V5.2c0,0,0-0.1,0-0.2c0-0.1-0.1-0.2-0.1-0.2L8.9,2.2c0,0-0.1-0.1-0.2-0.1C8.6,2,8.5,2,8.4,2H2.9
	C2.6,2,2.3,2.3,2.3,2.6v2.2C1.1,4.8,0,5.7,0,6.8v5.8c0,1.1,1.1,2,2.4,2h10c0.3,0,0.6-0.2,0.6-0.6V7.4c0-0.3-0.2-0.6-0.6-0.6H11.7z
	 M3.7,12.6c0,0.5-0.6,0.9-1.3,0.9s-1.3-0.4-1.3-0.9V6.8c0-0.5,0.6-0.9,1.3-0.9s1.3,0.4,1.3,0.9V12.6z M3.5,3.1h4.4v2.1
	c0,0.3,0.2,0.6,0.6,0.6h2.1v1H4.8C4.8,6,4.3,5.3,3.5,5V3.1z M6.7,12.6c-0.2,0-0.4-0.2-0.4-0.5c0-0.2,0.2-0.4,0.4-0.4
	c0.2,0,0.5,0.2,0.5,0.4C7.2,12.4,6.9,12.6,6.7,12.6L6.7,12.6z M6.7,11.1c-0.2,0-0.4-0.2-0.4-0.5c0-0.2,0.2-0.4,0.4-0.4
	c0.2,0,0.5,0.2,0.5,0.4C7.2,10.9,6.9,11.1,6.7,11.1L6.7,11.1z M6.7,9.7c-0.2,0-0.4-0.2-0.4-0.5c0-0.2,0.2-0.5,0.4-0.5
	c0.2,0,0.5,0.2,0.5,0.5C7.2,9.4,6.9,9.7,6.7,9.7L6.7,9.7z M8.4,12.6c-0.2,0-0.4-0.2-0.4-0.5c0-0.2,0.2-0.4,0.4-0.4s0.4,0.2,0.4,0.4
	C8.9,12.4,8.7,12.6,8.4,12.6L8.4,12.6z M8.4,11.1c-0.2,0-0.4-0.2-0.4-0.4s0.2-0.4,0.4-0.4s0.4,0.2,0.4,0.4
	C8.9,10.9,8.7,11.1,8.4,11.1L8.4,11.1z M8.4,9.7C8.2,9.7,8,9.4,8,9.2s0.2-0.5,0.4-0.5s0.4,0.2,0.4,0.5C8.9,9.4,8.7,9.7,8.4,9.7
	L8.4,9.7z M10.2,12.6c-0.2,0-0.4-0.2-0.4-0.5c0-0.2,0.2-0.4,0.4-0.4s0.5,0.2,0.5,0.4C10.6,12.4,10.4,12.6,10.2,12.6L10.2,12.6z
	 M10.2,11.1c-0.2,0-0.4-0.2-0.4-0.5c0-0.2,0.2-0.4,0.4-0.4s0.5,0.2,0.5,0.4C10.6,10.9,10.4,11.1,10.2,11.1L10.2,11.1z M10.2,9.7
	c-0.2,0-0.4-0.2-0.4-0.5c0-0.2,0.2-0.5,0.4-0.5s0.5,0.2,0.5,0.5C10.6,9.4,10.4,9.7,10.2,9.7z"/>
</svg>
