<svg class="cf-icon-svg" version="1.1" viewBox="0 0 950 1200">
	<path d="M350.9,652c-.2-.4-.3-.8-.5-1.2s-.3-.6-.4-.9c-.4-.8-.7-1.6-1.1-2.3-.1-.2-.2-.3-.2-.5-.3-.5-.5-1-.8-1.4-.1-.1-.1-.2-.2-.3a49.67,49.67,0,0,0-2.9-4.5,55.15,55.15,0,0,0-40-23c-.8-.1-1.6-.1-2.4-.2s-1.6-.1-2.5-.1a55,55,0,0,0-55,55V905a55,55,0,0,0,55,55,26.21,26.21,0,0,0,2.8-.1,52.74,52.74,0,0,0,8.1-1A55.11,55.11,0,0,0,355,905V672.7a54.66,54.66,0,0,0-3.2-18.6c-.1-.4-.3-.7-.4-1.1A4.67,4.67,0,0,1,350.9,652Z"/><path d="M687.3,654.1H657.8V573.9l-68.7-68.7-32.8-32.8h0l-16.6-16.6H328.2a23.43,23.43,0,0,0-23.4,23.4V587.8a84.32,84.32,0,0,1,40,12.7V495.9h163v85.8a23.43,23.43,0,0,0,23.4,23.4h86.5v49H382.9a87.62,87.62,0,0,1,2.1,18.6V905a84.65,84.65,0,0,1-19.6,54.2H687.3a23.43,23.43,0,0,0,23.4-23.4V677.5A23.49,23.49,0,0,0,687.3,654.1Zm-226,230.1a20,20,0,0,1,0-40h.1a20,20,0,1,1-.1,40Zm0-57.4a20,20,0,0,1,0-40h.1a20,20,0,1,1-.1,40Zm0-57.3a20,20,0,0,1,0-40h.1a20,20,0,1,1-.1,40Zm71.4,114.7h-.1a20,20,0,1,1,0-40h.1a20,20,0,0,1,0,40Zm0-57.4h-.1a20,20,0,1,1,0-40h.1a20,20,0,0,1,0,40Zm0-57.3h-.1a20,20,0,1,1,0-40h.1a20,20,0,0,1,0,40Zm71.4,114.7a20,20,0,0,1,0-40h.1a20,20,0,1,1-.1,40Zm0-57.4a20,20,0,0,1,0-40h.1a20,20,0,1,1-.1,40Zm0-57.3a20,20,0,0,1,0-40h.1a20,20,0,1,1-.1,40Z"/>
</svg>
