<?xml version="1.0" encoding="utf-8"?>
<!-- Generator: Adobe Illustrator 21.1.0, SVG Export Plug-In . SVG Version: 6.00 Build 0)  -->
<svg version="1.1" id="Icon" xmlns="http://www.w3.org/2000/svg" xmlns:xlink="http://www.w3.org/1999/xlink" x="0px" y="0px"
	 viewBox="0 0 950 1000" style="enable-background:new 0 0 950 1000;" xml:space="preserve">
<g>
	<path d="M350.9,452c-0.2-0.4-0.3-0.8-0.5-1.2c-0.1-0.3-0.3-0.6-0.4-0.9c-0.4-0.8-0.7-1.6-1.1-2.3c-0.1-0.2-0.2-0.3-0.2-0.5
		c-0.3-0.5-0.5-1-0.8-1.4c-0.1-0.1-0.1-0.2-0.2-0.3c-0.9-1.6-1.9-3.1-2.9-4.5c-9.1-12.8-23.5-21.5-40-23c-0.8-0.1-1.6-0.1-2.4-0.2
		c-0.8,0-1.6-0.1-2.5-0.1c-30.4,0-55,24.6-55,55V705c0,30.4,24.6,55,55,55c0.9,0,1.9,0,2.8-0.1c2.8-0.1,5.5-0.5,8.1-1
		C336,753.8,355,731.6,355,705V472.7c0-6.5-1.1-12.8-3.2-18.6c-0.1-0.4-0.3-0.7-0.4-1.1C351.2,452.7,351,452.3,350.9,452z"/>
	<path d="M687.3,454.1h-29.5v-25.8c0-7.1,0-15.6,0-23.2v-0.2v-31l-68.7-68.7l-32.8-32.8c0,0,0,0,0,0l-16.6-16.6h-12c0,0,0,0,0,0
		c-6.6,0-22.5,0-35.4,0H328.2c-12.9,0-23.4,10.5-23.4,23.4v108.6c14.6,0.8,28.3,5.4,40,12.7V295.9h147.5h15.5v85.8
		c0,12.9,10.5,23.4,23.4,23.4h86.5v23.2v25.8H382.9c1.3,6,2.1,12.2,2.1,18.6V705c0,20.6-7.4,39.5-19.6,54.2h321.9
		c12.9,0,23.4-10.5,23.4-23.4V477.5C710.7,464.6,700.1,454.1,687.3,454.1z M461.3,684.2c-11,0-20-9-20-20s8.9-20,20-20h0.1
		c11,0,20,9,20,20S472.4,684.2,461.3,684.2z M461.3,626.8c-11,0-20-9-20-20s8.9-20,20-20h0.1c11,0,20,9,20,20
		S472.4,626.8,461.3,626.8z M461.3,569.5c-11,0-20-9-20-20s8.9-20,20-20h0.1c11,0,20,9,20,20S472.4,569.5,461.3,569.5z M532.7,684.2
		h-0.1c-11,0-20-9-20-20s9-20,20-20h0.1c11,0,20,9,20,20S543.8,684.2,532.7,684.2z M532.7,626.8h-0.1c-11,0-20-9-20-20s9-20,20-20
		h0.1c11,0,20,9,20,20S543.8,626.8,532.7,626.8z M532.7,569.5h-0.1c-11,0-20-9-20-20s9-20,20-20h0.1c11,0,20,9,20,20
		S543.8,569.5,532.7,569.5z M604.1,684.2c-11,0-20-9-20-20s8.9-20,20-20h0.1c11,0,20,9,20,20S615.1,684.2,604.1,684.2z M604.1,626.8
		c-11,0-20-9-20-20s8.9-20,20-20h0.1c11,0,20,9,20,20S615.1,626.8,604.1,626.8z M604.1,569.5c-11,0-20-9-20-20s8.9-20,20-20h0.1
		c11,0,20,9,20,20S615.1,569.5,604.1,569.5z"/>
</g>
</svg>
