<?xml version="1.0" encoding="utf-8"?>
<!-- Generator: Adobe Illustrator 21.1.0, SVG Export Plug-In . SVG Version: 6.00 Build 0)  -->
<svg version="1.1" id="Icon" xmlns="http://www.w3.org/2000/svg" xmlns:xlink="http://www.w3.org/1999/xlink" x="0px" y="0px"
	 viewBox="0 0 950 1200" style="enable-background:new 0 0 950 1200;" xml:space="preserve">
<path d="M532.7,788.7L532.7,788.7c-11.1,0-20.1,9-20.1,20s9,20,20,20h0.1c11,0,20-9,20-20S543.8,788.7,532.7,788.7z"/>
<path d="M532.7,846L532.7,846c-11.1,0-20.1,9-20.1,20s9,20,20,20h0.1c11,0,20-9,20-20S543.8,846,532.7,846z"/>
<path d="M461.3,846L461.3,846c-11.1,0-20,9-20,20s9,20,20,20s20-9,20-20S472.4,846,461.3,846z"/>
<path d="M461.3,731.3L461.3,731.3c-11.1,0-20,9-20,20s9,20,20,20s20-9,20-20S472.4,731.3,461.3,731.3z"/>
<path d="M461.3,788.7L461.3,788.7c-11.1,0-20,9-20,20s9,20,20,20s20-9,20-20S472.4,788.7,461.3,788.7z"/>
<path d="M532.7,731.3L532.7,731.3c-11.1,0-20.1,9-20.1,20s9,20,20,20h0.1c11,0,20-9,20-20S543.8,731.3,532.7,731.3z"/>
<path d="M604.1,731.3L604.1,731.3c-11.1,0-20,9-20,20s9,20,20,20s20-9,20-20S615.1,731.3,604.1,731.3z"/>
<path d="M604.1,846L604.1,846c-11.1,0-20,9-20,20s9,20,20,20s20-9,20-20S615.1,846,604.1,846z"/>
<path d="M475,249.9c-262.3,0-475,212.7-475,475s212.7,475,475,475s475-212.7,475-475S737.3,249.9,475,249.9z M537.4,468.4
	c0.2,0.2,0.5,0.4,0.7,0.6l110.2,109.5c0.2,0.2,0.5,0.5,0.7,0.8H544.5c-3.8,0-7.1-3.2-7.1-7.1V468.4z M355,906.9
	c0,26.6-18.9,48.8-44.1,53.9c-2.6,0.5-5.3,0.9-8.1,1c-0.9,0-1.9,0.1-2.8,0.1c-30.4,0-55-24.6-55-55V674.6c0-30.4,24.6-55,55-55
	c0.8,0,1.7,0,2.5,0.1c0.8,0,1.6,0.1,2.4,0.2c16.5,1.4,30.9,10.2,40,23c1,1.5,2,3,2.9,4.5c0.1,0.1,0.1,0.2,0.2,0.3
	c0.3,0.5,0.5,1,0.8,1.4c0.1,0.2,0.2,0.3,0.2,0.5c0.4,0.8,0.8,1.5,1.1,2.3c0.1,0.3,0.3,0.6,0.4,0.9c0.2,0.4,0.3,0.8,0.5,1.2
	c0.1,0.4,0.3,0.7,0.4,1.1c0.1,0.4,0.3,0.7,0.4,1.1c2.1,5.8,3.2,12.1,3.2,18.6V906.9z M307.4,589.9c-1.2-0.1-2.3-0.2-3.4-0.2V475.5
	c0-12.2,9.9-22.1,22.1-22.1h174.2c2.2,0,4.6,0.2,7.1,0.7v118.1c0,20.5,16.6,37.1,37.1,37.1h118.8c0.4,2.4,0.7,4.7,0.7,6.9v10.3H370
	c-0.2-0.4-0.5-0.7-0.7-1.1C354.8,605,332.3,592.1,307.4,589.9z M710.7,937.6c0,12.9-10.5,23.4-23.4,23.4H365.4
	c12.2-14.7,19.6-33.6,19.6-54.2V674.6c0-6.4-0.7-12.6-2.1-18.6h234.9h40h29.5c12.9,0,23.4,10.5,23.4,23.4V937.6z"/>
<path d="M604.1,788.7L604.1,788.7c-11.1,0-20,9-20,20s9,20,20,20s20-9,20-20S615.1,788.7,604.1,788.7z"/>
</svg>
