<svg class="cf-icon-svg" aria-label="getting credit card" version="1.1" viewBox="0 0 13 16">
<path d="M12.5,14v-1.2H6.2V14H12.5z M7.3,11.8h4.1L13,8.5c0,0-1.1-0.9-1.8-2.1c-0.8-1.2-1.1-2.5-1.1-3.4c0-0.2-0.5,0-0.5,0v5.7
	c0.3,0.1,0.5,0.3,0.5,0.6c0,0.3-0.3,0.6-0.7,0.6S8.7,9.7,8.7,9.3c0-0.3,0.2-0.5,0.5-0.6V3.1c0,0-0.5-0.2-0.5,0
	c0,0.9-0.3,2.2-1.1,3.4c-0.8,1.1-1.8,2-1.8,2L7.3,11.8z M1.8,10.2V9.8h3.5L4.9,8.9C4.7,8.5,4.8,8,5.3,7.7H0V11
	c0,0.4,0.4,0.8,0.8,0.8h5.5l-0.8-1.6H1.8z M0.8,4.9C0.4,4.9,0,5.3,0,5.8v0.5h6.5c0.3-0.4,0.6-1,0.8-1.4H0.8z"/>
</svg>
