<svg class="cf-icon-svg" aria-label="getting credit card" version="1.1" viewBox="0 0 13 16">
<path d="M6.5,2C2.9,2,0,4.9,0,8.5S2.9,15,6.5,15S13,12.1,13,8.5S10.1,2,6.5,2L6.5,2z M1.8,6.8c0-0.3,0.3-0.6,0.6-0.6h4.5
	c-0.2,0.3-0.4,0.7-0.6,1H1.8V6.8z M1.8,8.1h3.7C5.1,8.3,5.1,8.7,5.2,9l0.3,0.6H3.1v0.3h2.6L6.1,11H2.4c-0.3,0-0.6-0.3-0.6-0.6V8.1
	L1.8,8.1z M6.1,12.5v-0.9h4.3v0.9H6.1z M6.9,11L5.8,8.7c0,0,0.7-0.6,1.3-1.4C7.6,6.5,7.8,5.6,7.8,5c0-0.1,0.3,0,0.3,0v3.9
	c-0.2,0-0.3,0.2-0.3,0.4S8,9.7,8.3,9.7s0.5-0.2,0.5-0.4S8.7,9,8.5,8.9v-4c0,0,0.3-0.1,0.3,0c0,0.6,0.2,1.5,0.7,2.3s1.3,1.4,1.3,1.4
	L9.7,11H6.9z"/>
</svg>
