<svg class="cf-icon-svg" aria-label="help" version="1.1" viewBox="0 0 13 16">
<path d="M6.5,2C2.9,2,0,4.9,0,8.5S2.9,15,6.5,15S13,12.1,13,8.5S10.1,2,6.5,2L6.5,2z M6.3,13.2c-0.5,0-0.9-0.4-0.9-0.9
	s0.4-0.9,0.9-0.9s0.9,0.4,0.9,0.9C7.2,12.8,6.8,13.2,6.3,13.2L6.3,13.2z M7.7,8.6C7.3,9,7.1,9.3,7.1,10c0,0.4-0.3,0.7-0.7,0.7
	c-0.5,0-0.8-0.3-0.8-0.7c0-1.3,0.6-1.9,1.1-2.4C7,7.2,7.2,7,7.2,6.5S6.8,5.6,6.3,5.6S5.4,6,5.4,6.5c0,0.4-0.3,0.7-0.7,0.7
	C4.3,7.2,4,6.9,4,6.5c0-1.3,1-2.3,2.3-2.3s2.4,1.1,2.4,2.4C8.7,7.6,8.2,8.2,7.7,8.6z"/>
</svg>
