<?xml version="1.0" encoding="utf-8"?>
<!-- Generator: Adobe Illustrator 21.1.0, SVG Export Plug-In . SVG Version: 6.00 Build 0)  -->
<svg version="1.1" id="Icon" xmlns="http://www.w3.org/2000/svg" xmlns:xlink="http://www.w3.org/1999/xlink" x="0px" y="0px"
	 viewBox="0 0 950 1000" style="enable-background:new 0 0 950 1000;" xml:space="preserve">
<rect x="331" y="522.1" width="94" height="95.2"/>
<rect x="525" y="522.1" width="94" height="95.2"/>
<path d="M475,49.9c-262.3,0-475,212.7-475,475s212.7,475,475,475s475-212.7,475-475S737.3,49.9,475,49.9z M710.5,737.1
	c0,12.8-10.5,23.3-23.3,23.3H262.9c-12.8,0-23.3-10.5-23.3-23.3V466.9l234.7-134.5L710.5,467V737.1z M766.5,441.3
	c-3.7,6.5-10.4,10.1-17.4,10.1c-3.4,0-6.8-0.8-9.9-2.6l-265-150.9L210.9,448.8c-9.6,5.5-21.8,2.2-27.3-7.4
	c-5.5-9.6-2.2-21.8,7.4-27.3l48.6-27.8c0-0.5-0.1-1-0.1-1.5V281.4c0-12.8,10.5-23.3,23.3-23.3h44.8c12.8,0,23.3,10.5,23.3,26.3v49.4
	l133.2-76.3c6.1-3.5,13.7-3.5,19.8,0L759,414C768.6,419.5,771.9,431.7,766.5,441.3z"/>
</svg>
