<svg class="cf-icon-svg" version="1.1" viewBox="0 0 1000 1200">
	<rect x="554.1" y="615.2" width="104" height="105.3"/><rect x="339.4" y="615.2" width="104" height="105.3"/><path d="M500,102.9c-276.1,0-500,223.9-500,500s223.9,500,500,500,500-223.9,500-500S776.1,102.9,500,102.9ZM759.2,853.8a25,25,0,0,1-25,25H263.3a25,25,0,0,1-25-25v-277L497.9,428.1,759.2,576.9V853.8Zm64.5-326.6a24.86,24.86,0,0,1-34,9.3l-291.9-166L208,536.5a25,25,0,1,1-24.8-43.4l55.1-31.6V352.1a25,25,0,0,1,25-25h51.2a25,25,0,0,1,25,25v51.5L485.4,320a25,25,0,0,1,24.8,0L814.3,493.1A25,25,0,0,1,823.7,527.2Z"/>
</svg>
