<?xml version="1.0" encoding="utf-8"?>
<!-- Generator: Adobe Illustrator 21.1.0, SVG Export Plug-In . SVG Version: 6.00 Build 0)  -->
<svg version="1.1" id="Icon" xmlns="http://www.w3.org/2000/svg" xmlns:xlink="http://www.w3.org/1999/xlink" x="0px" y="0px"
	 viewBox="0 0 950 1000" style="enable-background:new 0 0 950 1000;" xml:space="preserve">
<g>
	<path d="M759,413.5L484,257c-6.2-3.5-13.7-3.5-19.8,0L331,333.4v-49.4c0-15.8-10.5-26.3-23.3-26.3h-44.8
		c-12.8,0-23.3,10.5-23.3,23.3v103.3c0,0.5,0,1,0.1,1.5L191,413.6c-9.6,5.5-12.9,17.7-7.4,27.3c5.5,9.6,17.7,12.9,27.3,7.4
		l263.3-150.8l265,150.9c3.1,1.8,6.5,2.6,9.9,2.6c7,0,13.7-3.6,17.4-10.1C771.9,431.2,768.6,419,759,413.5z"/>
	<path d="M474.2,332L239.5,466.4v270.2c0,12.8,10.5,23.3,23.3,23.3h424.3c12.8,0,23.3-10.5,23.3-23.3V466.5L474.2,332z M425,616.9
		h-94v-95.2h94V616.9z M619,616.9h-94v-95.2h94V616.9z"/>
</g>
</svg>
