<svg class="cf-icon-svg" aria-label="lightbulb" version="1.1" viewBox="0 0 8.7 16">
<path d="M8.4,4.7C7.8,3.1,6.2,2,4.4,2C4.2,2,4,2,3.9,2C2.7,2.1,1.7,2.6,1,3.4c-1.2,1.4-1.2,3.4-0.4,4.8c0.3,0.5,0.6,0.9,0.9,1.3
	c0.4,0.6,0.6,1.2,0.6,1.8c0,0.3,0.3,0.5,0.6,0.5c0.2,0,2.6,0,3,0l0,0c0.4,0,0.7-0.2,0.7-0.6c0-0.1,0-0.2,0-0.3
	c0.1-0.6,0.3-1.2,0.7-1.7c0.2-0.3,0.5-0.6,0.7-1C8.7,7.2,8.9,6,8.4,4.7L8.4,4.7z M7.1,7.8C7,8.1,6.8,8.3,6.6,8.5L6.4,8.8
	C5.9,9.6,5.6,10.2,5.5,11H3.1c0-0.7-0.3-1.4-0.7-2C2.3,8.8,2.1,8.7,2,8.5C1.8,8.3,1.6,8,1.5,7.7c-0.6-1-0.8-2.5,0.2-3.6
	C2.3,3.5,3,3.1,4,3c0.1,0,0.2,0,0.4,0C5.8,3,7,3.8,7.5,5C7.8,6,7.7,6.9,7.1,7.8L7.1,7.8z M6,12.6H2.7c-0.2,0-0.5,0.2-0.5,0.4
	s0.2,0.4,0.5,0.4H6c0.2,0,0.5-0.2,0.5-0.4C6.4,12.8,6.2,12.6,6,12.6L6,12.6z M4.5,15c0.6-0.1,1.1-0.4,1.4-0.8H2.8
	C3.1,14.6,3.8,15.1,4.5,15z"/>
</svg>
