<svg class="cf-icon-svg" aria-label="lightbulb" version="1.1" viewBox="0 0 13 16">
<path d="M6.5,2C2.9,2,0,4.9,0,8.5S2.9,15,6.5,15S13,12.1,13,8.5S10.1,2,6.5,2L6.5,2z M6.6,12.9c-0.4,0.1-0.9-0.2-1.2-0.6h2.1
	C7.3,12.6,7,12.8,6.6,12.9L6.6,12.9z M7.6,11.9H5.4c-0.2,0-0.3-0.1-0.3-0.3s0.1-0.3,0.3-0.3h2.2c0.2,0,0.3,0.1,0.3,0.3
	C7.9,11.7,7.8,11.9,7.6,11.9L7.6,11.9z M8.9,8.4C8.8,8.7,8.6,8.9,8.4,9.1C8.2,9.5,8,9.8,8,10.2c0,0.1,0,0.1,0,0.2
	c0,0.2-0.2,0.4-0.4,0.4l0,0c-0.3,0-1.9,0-2,0c-0.4,0-0.6-0.1-0.6-0.3C5,10,4.9,9.6,4.6,9.2C4.4,8.9,4.2,8.6,4,8.3
	C3.4,7.4,3.4,6,4.2,5.1c0.5-0.6,1.2-0.9,1.9-1c0.1,0,0.2,0,0.3,0c1.2,0,2.4,0.7,2.7,1.8C9.6,6.8,9.4,7.6,8.9,8.4z"/>
</svg>
