<svg class="cf-icon-svg" aria-label="link" version="1.1" viewBox="0 0 13 16">
<path d="M6.5,2C2.9,2,0,4.9,0,8.5S2.9,15,6.5,15S13,12.1,13,8.5S10.1,2,6.5,2L6.5,2z M5.6,8.4L5.1,7.9c-0.2-0.2-0.2-0.4,0-0.6
	s0.4-0.2,0.6,0l0.5,0.5l0.1-0.1c0.1-0.1,0.1-0.2,0.1-0.3c0-0.1-0.1-0.2-0.1-0.3l-1-1C5.1,6,5,5.9,4.9,5.9S4.6,6,4.5,6.1L3.8,6.8
	C3.7,6.9,3.6,7,3.6,7.2c0,0.1,0.1,0.2,0.1,0.3l1,1c0.2,0.2,0.5,0.2,0.7,0L5.6,8.4z M9.4,10.4c0-0.1-0.1-0.2-0.1-0.3l-1-1
	C8.1,9,8,8.9,7.9,8.9C7.7,8.9,7.6,9,7.5,9.1H7.4c0,0,0.4,0.4,0.5,0.5c0.2,0.2,0.2,0.4,0,0.6c-0.2,0.2-0.4,0.2-0.6,0L6.8,9.7v0.1
	C6.7,9.9,6.6,10,6.6,10.1s0.1,0.3,0.1,0.3l1,1c0.2,0.2,0.5,0.2,0.7,0l0.8-0.8C9.3,10.7,9.4,10.5,9.4,10.4L9.4,10.4z M9.8,9.5
	c0.2,0.2,0.4,0.5,0.4,0.9c0,0.3-0.1,0.7-0.4,0.9L9,12c-0.3,0.2-0.6,0.4-0.9,0.4c-0.3,0-0.7-0.1-0.9-0.4l-1-1
	c-0.2-0.2-0.3-0.5-0.3-0.9c0-0.3,0.1-0.7,0.4-0.9l0.1-0.1L6.1,8.9V9c-0.3,0.3-0.6,0.4-1,0.4C4.8,9.4,4.5,9.3,4.2,9l-1-1
	C3,7.8,2.9,7.5,2.9,7.1c0-0.3,0.1-0.7,0.4-0.9L4,5.5c0.2-0.2,0.6-0.4,0.9-0.4s0.7,0.1,0.9,0.4l1,1C7,6.7,7.2,7,7.2,7.4
	C7.2,7.7,7,8,6.8,8.3L6.7,8.4l0.2,0.2L7,8.5c0.2-0.2,0.5-0.4,0.9-0.4c0.3,0,0.7,0.1,0.9,0.4L9.8,9.5z"/>
</svg>
