<svg class="cf-icon-svg" aria-label="link" version="1.1" viewBox="0 0 13 16">
<path d="M10.5,8c-0.4-0.4-1-0.7-1.6-0.7S7.7,7.6,7.3,8L7.1,8.2L6.8,7.8L7,7.7c0.4-0.4,0.7-1,0.7-1.6S7.5,4.9,7,4.5L5.2,2.7
	C4.8,2.2,4.2,2,3.6,2S2.4,2.2,2,2.7L0.7,4C0.2,4.4,0,5,0,5.6s0.2,1.2,0.7,1.6L2.4,9c0.4,0.4,1,0.7,1.6,0.7S5.2,9.5,5.7,9l0.1-0.2
	l0.3,0.3L6,9.3c-0.4,0.5-0.7,1-0.7,1.7c0,0.6,0.2,1.2,0.7,1.6l1.7,1.8c0.4,0.4,1,0.7,1.6,0.7s1.2-0.2,1.6-0.7l1.3-1.3
	c0.4-0.4,0.7-1,0.7-1.6s-0.2-1.2-0.7-1.6L10.5,8z M4.7,8C4.3,8.3,3.8,8.3,3.4,8L1.7,6.2C1.5,6.1,1.4,5.9,1.4,5.6
	c0-0.2,0.1-0.4,0.3-0.6L3,3.7c0.1-0.2,0.4-0.2,0.6-0.2c0.2,0,0.4,0.1,0.6,0.2L6,5.5c0.2,0.2,0.2,0.4,0.2,0.6s0,0.4-0.2,0.6L5.8,6.8
	L5,6C4.8,5.7,4.3,5.7,4,6S3.7,6.7,4,7l0.8,0.8L4.7,8z M11.6,11.4c0,0.2-0.1,0.5-0.2,0.6L10,13.3c-0.3,0.3-0.9,0.3-1.2,0L7,11.5
	c-0.2-0.1-0.3-0.3-0.3-0.6c0-0.2,0.1-0.4,0.3-0.6l0.2-0.2C7.1,10.2,7.9,11,8,11c0.3,0.3,0.7,0.3,1,0s0.3-0.7,0-1L8.2,9.2L8.3,9
	c0.1-0.2,0.4-0.3,0.6-0.3S9.4,8.8,9.5,9l1.8,1.8C11.5,10.9,11.6,11.1,11.6,11.4z"/>
</svg>
