<svg class="cf-icon-svg" aria-label="loan" version="1.1" viewBox="0 0 13 16">
<path d="M5,8.1c0,0.1,0.1,0.2,0.2,0.2s0.2-0.1,0.2-0.2V7.8C5.8,7.8,6,7.5,6,7.2c0-0.1,0-0.3-0.2-0.4C5.7,6.7,5.5,6.6,5.3,6.6
	C5.1,6.6,5,6.6,5,6.5L4.9,6.4c0-0.1,0.1-0.2,0.3-0.2c0.1,0,0.2,0,0.3,0.1l0.1,0.1c0,0.1,0.1,0.2,0.2,0.2S6,6.5,6,6.4
	C6,6.2,5.9,6,5.8,5.9C5.7,5.8,5.6,5.8,5.5,5.8V5.6c0-0.1-0.1-0.2-0.2-0.2C5.1,5.3,5,5.4,5,5.5v0.2C4.7,5.8,4.5,6.1,4.5,6.4
	c0,0.1,0.1,0.3,0.2,0.4C4.8,6.9,5,7,5.2,7c0.1,0,0.2,0,0.3,0.1l0.1,0.1c0,0.1-0.1,0.2-0.3,0.2C5.1,7.4,5,7.4,5,7.3L4.9,7.2
	C4.9,7.1,4.8,7,4.7,7C4.6,7,4.5,7.1,4.5,7.2s0.1,0.3,0.2,0.4c0,0.1,0.2,0.2,0.3,0.2V8.1z M8.3,8.4V7.9H6.7v0.5H8.3z M6.5,2
	C2.9,2,0,4.9,0,8.5S2.9,15,6.5,15S13,12.1,13,8.5S10.1,2,6.5,2L6.5,2z M9.4,6.3H7.9V4.8L9.4,6.3z M9.6,12.1c0,0.2-0.2,0.4-0.4,0.4
	H3.8c-0.2,0-0.4-0.2-0.4-0.4V5c0-0.2,0.2-0.4,0.4-0.4h3.4v2C7.2,6.8,7.4,7,7.5,7h2v5.1H9.6z M8.3,9.6V9.1H4.7v0.5H8.3z M8.3,10.8
	v-0.5H4.7v0.5H8.3z"/>
</svg>
