<svg class="cf-icon-svg" aria-label="loan" version="1.1" viewBox="0 0 10.2 16">
<path d="M3.2,7C3,7,2.9,7,2.8,6.9L2.7,6.8c0-0.1-0.1-0.3-0.3-0.3S2.1,6.6,2.1,6.8c0,0.2,0.1,0.4,0.2,0.5C2.6,7.4,2.8,7.5,3,7.5v0.3
	C3,8,3.1,8.1,3.2,8.1c0.2,0,0.3-0.1,0.3-0.3V7.5C4,7.4,4.3,7.1,4.3,6.7c0-0.2-0.1-0.4-0.2-0.5C3.9,6,3.6,5.9,3.2,5.9
	C3,5.9,2.9,5.8,2.8,5.8L2.7,5.7c0-0.1,0.2-0.3,0.4-0.3c0.1,0,0.3,0,0.4,0.1c0,0,0.1,0.1,0.1,0.2C3.6,5.9,3.7,6,3.9,6
	C4,6,4.2,5.9,4.2,5.7c0-0.2-0.1-0.5-0.3-0.6C3.8,4.9,3.7,4.8,3.5,4.8V4.4c0-0.1-0.1-0.3-0.3-0.3C3.1,4.2,3,4.3,3,4.4v0.3
	C2.5,4.8,2.2,5.2,2.2,5.6c0,0.2,0.1,0.4,0.2,0.5c0.2,0.2,0.5,0.3,0.8,0.3c0.2,0,0.3,0,0.4,0.1l0.1,0.1C3.7,6.8,3.5,7,3.2,7L3.2,7z
	 M8.2,10.3V9.5H2.1v0.9L8.2,10.3L8.2,10.3z M8.2,12.4v-0.9H2.1v0.9H8.2z M8.2,8.3V7.4H5.5v0.9H8.2z M10.1,5c0,0,0,0-2.8-2.8
	C7.2,2.1,7,2,6.9,2H0.6C0.3,2,0,2.3,0,2.6v11.8C0,14.7,0.3,15,0.6,15h9.1c0.3,0,0.6-0.3,0.6-0.6v-9C10.3,5.2,10.2,5.1,10.1,5L10.1,5
	z M1.2,13.8V3.2h5.1v2.2C6.3,5.7,6.5,6,6.9,6h2.2v7.8H1.2L1.2,13.8z"/>
</svg>
