<svg class="cf-icon-svg" aria-label="lock" version="1.1" viewBox="0 0 13 16">
<path d="M6.5,8.7C6.1,8.7,5.8,9,5.8,9.4C5.8,9.7,6,9.9,6.3,10v1.1c0,0.1,0.1,0.2,0.2,0.2s0.2-0.1,0.2-0.2V10C7,9.9,7.2,9.7,7.2,9.4
	C7.2,9,6.9,8.7,6.5,8.7L6.5,8.7z M6.5,5.4C5.7,5.4,5.1,6,5.1,6.8v0.7h2.7V6.8C7.9,6,7.3,5.4,6.5,5.4L6.5,5.4z M6.5,2
	C2.9,2,0,4.9,0,8.5S2.9,15,6.5,15S13,12.1,13,8.5S10.1,2,6.5,2L6.5,2z M9.6,11.2c0,0.6-0.5,1.1-1.1,1.1h-4c-0.6,0-1.1-0.5-1.1-1.1
	V8.6c0-0.5,0.4-1,0.9-1.1V6.8c0-1.2,1-2.1,2.1-2.1s2.2,1,2.2,2.1v0.7C9.1,7.6,9.5,8,9.5,8.6v2.6H9.6z"/>
</svg>
