<svg class="cf-icon-svg" version="1.1" viewBox="0 0 950 1200">
	<path d="M475,249.9c-262.3,0-475,212.7-475,475s212.7,475,475,475s475-212.7,475-475S737.3,249.9,475,249.9z M776.2,874.4
		c-0.1,12.1-9.8,21.8-21.9,21.9H195.7c-12.1-0.1-21.8-9.8-21.9-21.9V578.9c0.1-12.1,9.8-21.8,21.9-21.9h558.6
		c12.1,0.1,21.8,9.8,21.9,21.9V874.4z"/>
	<rect x="292.1" y="799" width="232.2" height="30"/>
	<rect x="292.1" y="732.9" width="232.2" height="30"/>
	<rect x="292.1" y="666.7" width="232.2" height="30"/>
	<path d="M598.7,735h109.7V623.9H598.7V735z M628.7,653.9h49.7V705h-49.7V653.9z"/>
</svg>
