<svg class="cf-icon-svg" aria-label="microphone" version="1.1" viewBox="0 0 8.6 16">
<path d="M8.1,6.6c-0.3,0-0.5,0.2-0.5,0.5v1.2c0,1.8-1.5,3.3-3.3,3.3s-3.4-1.5-3.4-3.3V7.1c0-0.3-0.2-0.5-0.5-0.5S0,6.8,0,7.1v1.2
	c0,2.2,1.7,4,3.8,4.2l0,0V14H2c-0.3,0-0.5,0.2-0.5,0.5S1.7,15,2,15h4.6c0.3,0,0.5-0.2,0.5-0.5S6.9,14,6.6,14H4.8v-1.5l0,0
	c2.1-0.3,3.8-2.1,3.8-4.3V7.1C8.6,6.9,8.4,6.6,8.1,6.6L8.1,6.6z M4.3,10.8c1.4,0,2.5-1.2,2.5-2.6V4.5C6.8,3.2,5.7,2,4.3,2
	S1.7,3.2,1.7,4.6v3.7C1.7,9.7,2.9,10.8,4.3,10.8z"/>
</svg>
