<svg class="cf-icon-svg" aria-label="microphone" version="1.1" viewBox="0 0 13 16">
<path d="M6.5,2C2.9,2,0,4.9,0,8.5S2.9,15,6.5,15S13,12.1,13,8.5S10.1,2,6.5,2L6.5,2z M4.8,5.9c0-0.9,0.8-1.7,1.7-1.7S8.2,5,8.2,5.9
	v2.4c0,1-0.8,1.7-1.7,1.7S4.8,9.3,4.8,8.3V5.9z M9.3,8.4c0,1.5-1.1,2.7-2.5,2.8l0,0v1H8c0.2,0,0.3,0.1,0.3,0.3S8.2,12.8,8,12.8H5
	c-0.2,0-0.3-0.1-0.3-0.3s0.1-0.3,0.3-0.3h1.2v-1l0,0C4.8,11,3.7,9.8,3.7,8.4V7.6c0-0.2,0.1-0.3,0.3-0.3c0.2,0,0.3,0.1,0.3,0.3v0.8
	c0,1.2,1,2.2,2.2,2.2s2.2-1,2.2-2.2V7.6c0-0.2,0.1-0.3,0.3-0.3s0.3,0.1,0.3,0.3V8.4L9.3,8.4z"/>
</svg>
