<svg class="cf-icon-svg" aria-label="money transfer" version="1.1" viewBox="0 0 11.2 16">
<path d="M11,5.7H0.2C0.1,5.7,0,5.7,0,5.9v5.4c0,0.1,0.1,0.2,0.2,0.2H11c0.1,0,0.2-0.1,0.2-0.2V5.8C11.2,5.7,11.1,5.7,11,5.7L11,5.7z
	 M5.6,9.4c0.3,0,0.5-0.2,0.5-0.3c0-0.2-0.3-0.3-0.5-0.3c-0.3,0-0.7-0.1-0.8-0.3C4.6,8.3,4.5,8.1,4.5,7.9c0-0.4,0.3-0.7,0.8-0.8V6.7
	c0-0.2,0.1-0.3,0.3-0.3c0.2,0,0.3,0.1,0.3,0.3V7c0.4,0.1,0.8,0.4,0.8,0.8c0,0.2-0.1,0.3-0.3,0.3C6.2,8.1,6.1,8,6.1,7.8
	S5.8,7.5,5.6,7.5c-0.3,0-0.5,0.1-0.5,0.3c0,0.2,0.3,0.3,0.5,0.3c0.3,0,0.6,0.1,0.8,0.3C6.6,8.6,6.6,8.8,6.6,9c0,0.4-0.3,0.7-0.8,0.8
	v0.3c0,0.2-0.1,0.3-0.3,0.3c-0.2,0-0.3-0.1-0.3-0.3V9.9c-0.3,0-0.7-0.4-0.7-0.8c0-0.2,0.1-0.3,0.3-0.3s0.3,0.1,0.3,0.3
	C5.1,9.3,5.4,9.4,5.6,9.4L5.6,9.4z M5.9,3.3c0.2,0.2,0.8,0.8,0.8,0.8c0.2,0.1,0.4,0.1,0.5,0c0.2-0.2,0.2-0.4,0-0.5L5.7,2.1
	c0-0.1-0.3-0.1-0.4,0c0,0-1.4,1.4-1.5,1.5C3.7,3.7,3.7,4,3.8,4.1c0.2,0.1,0.4,0.1,0.6,0l0.8-0.8v1.3C5.2,4.8,5.4,5,5.6,5
	C5.8,5,6,4.8,6,4.6L5.9,3.3L5.9,3.3z M5.2,13.7c-0.2-0.2-0.8-0.8-0.8-0.8c-0.2-0.1-0.4-0.1-0.5,0c-0.2,0.2-0.2,0.4,0,0.5l1.5,1.5
	c0.2,0.2,0.4,0.2,0.5,0c0,0,1.4-1.4,1.5-1.5s0.1-0.4,0-0.5c-0.2-0.1-0.4-0.1-0.6,0L6,13.7v-1.3C6,12.2,5.8,12,5.6,12
	c-0.2,0-0.4,0.2-0.4,0.4L5.2,13.7L5.2,13.7z"/>
</svg>
