<svg class="cf-icon-svg" aria-label="money transfer" version="1.1" viewBox="0 0 13 16">
<path d="M6.5,2C2.9,2,0,4.9,0,8.5S2.9,15,6.5,15S13,12.1,13,8.5S10.1,2,6.5,2L6.5,2z M6.5,9.3C6.3,9.3,6.1,9.2,6.1,9
	c0-0.1-0.1-0.2-0.2-0.2C5.7,8.8,5.6,8.9,5.6,9c0,0.4,0.3,0.6,0.6,0.7V10c0,0.1,0.1,0.2,0.3,0.2c0.1,0,0.2-0.1,0.2-0.2V9.7
	C7.1,9.6,7.4,9.4,7.4,9c0-0.2-0.1-0.3-0.2-0.5C7,8.4,6.8,8.3,6.5,8.3c-0.2,0-0.4-0.1-0.4-0.2s0.2-0.2,0.4-0.2c0.1,0,0.4,0.1,0.4,0.2
	S7,8.3,7.1,8.3s0.2-0.1,0.2-0.2c0-0.4-0.3-0.6-0.6-0.7V7.1c0-0.1-0.1-0.2-0.2-0.2C6.4,6.8,6.3,7,6.3,7.1v0.3C5.9,7.4,5.6,7.7,5.6,8
	c0,0.2,0.1,0.3,0.2,0.5C6,8.7,6.2,8.8,6.5,8.8c0.1,0,0.4,0.1,0.4,0.2S6.7,9.3,6.5,9.3L6.5,9.3z M6.8,5.3c0,0.2-0.1,0.3-0.3,0.3
	c-0.2,0-0.3-0.1-0.3-0.3v-1c0,0-0.6,0.6-0.7,0.7C5.4,5,5.2,5,5,4.9C4.9,4.8,4.9,4.6,5,4.5l1.2-1.2c0.1-0.1,0.3-0.1,0.5,0l1.2,1.2
	C8,4.6,8,4.8,7.9,4.9S7.6,5,7.5,4.9c0,0-0.5-0.5-0.7-0.7V5.3L6.8,5.3z M6.2,11.7c0-0.2,0.1-0.3,0.3-0.3c0.2,0,0.3,0.1,0.3,0.3v1.1
	l0.6-0.6c0.1-0.1,0.3-0.1,0.5,0c0.1,0.1,0.1,0.3,0,0.4l-1.2,1.2c-0.1,0.1-0.3,0.1-0.5,0L5,12.6c-0.1-0.1-0.1-0.3,0-0.5
	c0.1-0.1,0.3-0.1,0.5,0c0,0,0.5,0.5,0.7,0.6V11.7z M11,6.2c0.1,0,0.1,0.1,0.1,0.1v4.4c0,0.1-0.1,0.1-0.1,0.1H2
	c-0.1,0-0.1-0.1-0.1-0.1V6.3c0-0.1,0-0.1,0.1-0.1C2,6.2,11,6.2,11,6.2z"/>
</svg>
