<svg class="cf-icon-svg" aria-label="money" version="1.1" viewBox="0 0 13 16">
<path d="M13,5.2C13,5.1,12.9,5,12.8,5H0.2C0.1,5,0,5.1,0,5.2v6.3c0,0.1,0.1,0.2,0.2,0.2h12.7c0.1,0,0.2-0.1,0.2-0.2L13,5.2L13,5.2z
	 M6,7.9C6.1,8,6.3,8.1,6.5,8.1c0.4,0,0.7,0.1,1,0.4c0.2,0.2,0.3,0.4,0.3,0.7c0,0.5-0.4,0.9-0.9,1v0.4c0,0.2-0.2,0.3-0.3,0.3
	c-0.2,0-0.3-0.2-0.3-0.3v-0.5C5.9,10,5.7,9.9,5.5,9.7S5.2,9.3,5.2,9.1c0-0.2,0.2-0.3,0.3-0.3c0.2,0,0.4,0.2,0.4,0.3
	c0,0.1,0,0.1,0.1,0.2c0.1,0.1,0.3,0.1,0.5,0.1c0.3,0,0.6-0.2,0.6-0.3C7.1,9,7,9,7,8.9C6.9,8.8,6.7,8.7,6.5,8.7c-0.4,0-0.7-0.1-1-0.4
	C5.4,8.2,5.3,7.9,5.3,7.7c0-0.5,0.4-0.9,0.9-1V6.3C6.2,6.2,6.3,6,6.5,6s0.4,0.2,0.4,0.3v0.4C7.1,6.8,7.4,6.9,7.5,7
	c0.2,0.2,0.3,0.4,0.3,0.6C7.8,7.9,7.6,8,7.4,8C7.3,8,7.1,7.9,7.1,7.7C7.1,7.6,7,7.6,7,7.5C6.9,7.4,6.8,7.4,6.5,7.4S6,7.5,6,7.7
	C5.9,7.8,6,7.8,6,7.9z"/>
</svg>
