<svg class="cf-icon-svg" aria-label="money" version="1.1" viewBox="0 0 13 16">
<path d="M6.5,2C2.9,2,0,4.9,0,8.5S2.9,15,6.5,15S13,12.1,13,8.5S10.1,2,6.5,2L6.5,2z M2,10.9c-0.1,0-0.1-0.1-0.1-0.1V6.3
	C1.9,6.2,2,6.2,2,6.2h9c0.1,0,0.1,0.1,0.1,0.1v4.5c0,0.1-0.1,0.1-0.1,0.1L2,10.9L2,10.9z M6.5,7.8c0.1,0,0.3,0.1,0.3,0.1L6.9,8
	c0,0.1,0.1,0.2,0.2,0.2S7.3,8.1,7.3,8c0-0.2-0.1-0.3-0.2-0.5c0,0-0.2-0.1-0.4-0.2V7.1c0-0.1-0.1-0.2-0.2-0.2s-0.2,0-0.2,0.2v0.3
	C5.9,7.4,5.6,7.7,5.6,8c0,0.2,0.1,0.3,0.2,0.5C6,8.7,6.2,8.8,6.5,8.8c0.1,0,0.3,0.1,0.3,0.1L6.9,9c0,0.1-0.2,0.2-0.4,0.2
	c-0.1,0-0.3,0-0.3-0.1L6.1,9c0-0.1-0.1-0.2-0.2-0.2C5.7,8.8,5.6,8.9,5.6,9c0,0.2,0.1,0.3,0.2,0.5c0.1,0.1,0.3,0.2,0.4,0.2V10
	c0,0.1,0.1,0.2,0.2,0.2s0.2-0.1,0.2-0.2V9.7C7.1,9.6,7.4,9.4,7.4,9c0-0.2-0.1-0.3-0.2-0.5C7,8.4,6.8,8.3,6.5,8.3
	c-0.1,0-0.3,0-0.3-0.1L6.1,8.1C6.1,7.9,6.3,7.8,6.5,7.8z"/>
</svg>
