<svg class="cf-icon-svg" aria-label="mortgage-round" version="1.1" viewBox="0 0 13 16">
<path d="M9.3,6.8V6.2H5.1v0.6C5.1,6.8,9.3,6.8,9.3,6.8z M6.5,2C2.9,2,0,4.9,0,8.5c0,2.1,1,4,2.6,5.2V5.1c0-0.2,0.1-0.3,0.3-0.3
	S3.2,5,3.2,5.1v0.4h7c0.2,0,0.3,0.2,0.3,0.3c0,0.2-0.2,0.3-0.3,0.3H9.6v0.6h0.8c0.2,0,0.3,0.2,0.3,0.3v4c0,0.2-0.1,0.3-0.3,0.3H3.9
	c-0.2,0-0.3-0.1-0.3-0.3V7.1c0-0.2,0.1-0.3,0.3-0.3h0.8V6.2H3.2v7.9C4.3,14.7,5.4,15,6.5,15c3.6,0,6.5-2.9,6.5-6.5S10.1,2,6.5,2
	L6.5,2z M8.7,9.8h0.6c0.4,0,0.9-0.3,0.9-0.8c0-0.6-0.4-0.8-0.9-0.8H8.7V9.8z M9.7,9c0,0.3-0.2,0.5-0.5,0.5H9V8.6h0.2
	C9.5,8.6,9.7,8.7,9.7,9L9.7,9z M5.5,9c0,0.5,0.4,0.8,0.9,0.8S7.2,9.6,7.2,9c0-0.5-0.4-0.8-0.9-0.8S5.5,8.5,5.5,9L5.5,9z M6.9,9
	c0,0.3-0.2,0.5-0.5,0.5S5.9,9.3,5.9,9s0.2-0.5,0.5-0.5C6.7,8.5,6.9,8.8,6.9,9L6.9,9z M4.3,8.7C4.3,9,4.5,9,4.7,9.1
	C4.8,9.2,5,9.2,5,9.4c0,0.1-0.1,0.2-0.2,0.2S4.6,9.5,4.5,9.4L4.3,9.7c0.1,0.1,0.3,0.2,0.5,0.2c0.3,0,0.6-0.2,0.6-0.5
	C5.4,9.1,5.2,9,5,8.9C4.8,8.8,4.7,8.8,4.7,8.7c0-0.1,0.1-0.2,0.2-0.2s0.2,0,0.3,0.1l0.2-0.3c-0.1,0-0.3-0.1-0.5-0.1
	C4.6,8.2,4.3,8.4,4.3,8.7L4.3,8.7z M7.5,9.8h1V9.5H7.8V8.3H7.5V9.8L7.5,9.8z"/>
</svg>
