<svg class="cf-icon-svg" aria-label="mortgage" version="1.1" viewBox="0 0 11 16">
<path d="M9.4,4.7V3.9h0.8c0.2,0,0.4-0.2,0.4-0.4s-0.2-0.4-0.4-0.4H0.9V2.4C0.9,2.2,0.7,2,0.4,2C0.2,2,0,2.2,0,2.4v12.1
	C0,14.8,0.2,15,0.4,15s0.4-0.2,0.4-0.4V3.9h2v0.8h-1c-0.2,0-0.4,0.2-0.4,0.4v5.2c0,0.2,0.2,0.4,0.4,0.4h8.7c0.2,0,0.4-0.2,0.4-0.4
	V5.2c0-0.2-0.2-0.4-0.4-0.4L9.4,4.7L9.4,4.7z M3.4,3.9H9v0.8H3.4V3.9z M8.2,8.8V6.7h0.7c0.8,0,1.3,0.3,1.3,1.1c0,0.7-0.6,1-1.2,1
	C9,8.8,8.2,8.8,8.2,8.8z M3,8.9c-0.3,0-0.5-0.1-0.7-0.3l0.3-0.4C2.7,8.4,2.9,8.4,3,8.4c0.2,0,0.3-0.1,0.3-0.2C3.3,8,3,8,2.8,7.9
	S2.3,7.6,2.3,7.3c0-0.4,0.4-0.7,0.8-0.7c0.3,0,0.5,0.1,0.6,0.2L3.5,7.2C3.4,7.1,3.2,7.1,3.1,7.1c-0.1,0-0.3,0-0.3,0.2
	c0,0.1,0.1,0.2,0.5,0.3c0.3,0.1,0.5,0.3,0.5,0.6C3.8,8.6,3.3,8.9,3,8.9L3,8.9z M6.6,8.8V6.7h0.5v1.7H8v0.4C8,8.8,6.6,8.8,6.6,8.8z
	 M8.6,7.1v1.3h0.2c0.4,0,0.7-0.2,0.7-0.7c0-0.4-0.4-0.6-0.7-0.6H8.6z M4.5,7.8c0,0.4,0.3,0.7,0.7,0.7s0.7-0.3,0.7-0.7
	c0-0.4-0.3-0.7-0.7-0.7C4.8,7.1,4.5,7.4,4.5,7.8L4.5,7.8z M4,7.8c0-0.7,0.5-1.1,1.1-1.1c0.7,0,1.2,0.4,1.2,1.1S5.8,8.9,5.1,8.9
	C4.5,8.9,4,8.4,4,7.8z"/>
</svg>
