<?xml version="1.0" encoding="utf-8"?>
<!-- Generator: Adobe Illustrator 21.1.0, SVG Export Plug-In . SVG Version: 6.00 Build 0)  -->
<svg version="1.1" id="Icon" xmlns="http://www.w3.org/2000/svg" xmlns:xlink="http://www.w3.org/1999/xlink" x="0px" y="0px"
	 viewBox="0 0 1000 1200" style="enable-background:new 0 0 1000 1200;" xml:space="preserve">
<style type="text/css">
	.st0{fill:none;stroke:#FFFFFF;stroke-width:31.2952;stroke-linecap:round;stroke-linejoin:round;stroke-miterlimit:10;}
</style>
<g>
	<path d="M499.4,385.6c-134.6,0-243.7,109.1-243.7,243.7c0,134.6,109.1,243.7,243.7,243.7s243.7-109.1,243.7-243.7
		C743.1,494.7,634,385.6,499.4,385.6z M643.4,773.3c-38.5,38.5-89.6,59.7-144,59.7c-54.4,0-105.5-21.2-144-59.7
		c-38.5-38.5-59.7-89.6-59.7-144s21.2-105.6,59.7-144s89.6-59.7,144-59.7c54.4,0,105.5,21.2,144,59.7c38.5,38.5,59.7,89.6,59.7,144
		S681.9,734.8,643.4,773.3z"/>
	<path d="M462.9,569.2c7.5-4.7,18.4-7.6,28.6-7.6c2.1,0,5.9,0.8,10,1.7l1.3,0.3c3.5,0.8,7.7,2.2,12.3,4.3c3.5,1.6,6.8,3.9,9.4,6.4
		c2.6,2.6,4.5,6.8,4.5,9.9c0,13.8,11.2,25,25,25s25-11.2,25-25c0-16.3-7.1-33.2-19.2-45.2c-6.9-6.9-15.3-12.6-24.3-16.7
		c-7-3.2-13.5-5.5-19.8-7v-18.9c0-13.8-11.2-25-25-25s-25,11.2-25,25v18.3c-10.8,2.6-21,6.8-29.7,12.3c-21.2,13.4-33.3,34-33.3,56.7
		c0,14.7,5.4,29.5,15.2,41.5c6.9,8.5,15.8,15.6,25.6,20.5c8.2,4.1,17.5,7.1,26.8,8.7c6.6,1.1,13.4,1.7,20.7,1.7
		c4.2,0,8.2,0.4,11.8,1.2c4.2,0.9,8.5,2.5,11.9,4.3c3.2,1.7,6.9,4.7,9.5,7.7c2.4,2.7,3.7,6.3,3.7,9.8c0,2.3,0,7.1-9,12.9
		c-7.6,4.9-19,8.1-29.2,8.1c-3.9,0-10.7-1.2-13-1.6c-3.8-0.7-7.9-2.3-11.9-3.9c-2.8-1.1-5.7-3.4-8.5-6.6c-1.9-2.2-4.2-5.5-4.2-8.9
		v-2.3c0-13.8-11.2-25-25-25c-13.8,0-25,11.2-25,25v2.3c0,14.9,5.7,29.3,16.4,41.7c8.1,9.4,17.4,16.2,27.7,20.3
		c5.9,2.4,12.3,4.7,19.4,6.2v18.7c0,13.8,11.2,25,25,25s25-11.2,25-25v-19c11.1-2.7,21.6-7.1,30.5-12.9
		c26.3-17.1,31.8-39.3,31.8-54.9c0-15.6-5.7-30.8-16.1-42.7c-6.7-7.7-15.2-14.4-23.9-19c-7.5-3.9-16-7-24.6-8.9
		c-7.2-1.5-14.7-2.3-22.5-2.3c-4.5,0-8.6-0.3-12.5-1c-4.3-0.7-8.9-2.2-12.6-4.1c-3.4-1.7-6.7-4.3-9.1-7.3c-2.5-3-4-6.9-4-10
		C452.9,578.2,456.3,573.4,462.9,569.2z"/>
	<path d="M500,102.9c-276.1,0-500,223.9-500,500s223.9,500,500,500s500-223.9,500-500S776.1,102.9,500,102.9z M499.4,920
		c-160.5,0-290.7-130.1-290.7-290.7c0-152.1,116.8-276.9,265.7-289.6v-38l-20.3,0.1c0,0-0.1,0-0.1,0c-13.8,0-24.9-11.1-25-24.9
		c-0.1-13.8,11.1-25,24.9-25.1l90.7-0.3c0,0,0.1,0,0.1,0c13.8,0,24.9,11.1,25,24.9c0.1,13.8-11.1,25-24.9,25.1l-20.4,0.1v38.2
		c60.4,5.1,115.5,28.7,159.7,65.1l28.2-28.2c9.8-9.8,25.6-9.8,35.4,0c9.8,9.8,9.8,25.6,0,35.4l-27.8,27.8
		c43.8,50.9,70.2,117.1,70.2,189.5C790.1,789.8,659.9,920,499.4,920z"/>
</g>
</svg>
