<?xml version="1.0" encoding="utf-8"?>
<!-- Generator: Adobe Illustrator 21.1.0, SVG Export Plug-In . SVG Version: 6.00 Build 0)  -->
<svg version="1.1" id="Icon" xmlns="http://www.w3.org/2000/svg" xmlns:xlink="http://www.w3.org/1999/xlink" x="0px" y="0px"
	 viewBox="0 0 1000 1200" style="enable-background:new 0 0 1000 1200;" xml:space="preserve">
<style type="text/css">
	.st0{fill:none;stroke:#FFFFFF;stroke-width:31.2952;stroke-linecap:round;stroke-linejoin:round;stroke-miterlimit:10;}
</style>
<polyline class="st0" points="280,529.1 500.7,308.3 721.5,529.1 "/>
<line class="st0" x1="500.7" y1="327.1" x2="500.7" y2="895.5"/>
<path d="M500,102.9c-276.1,0-500,223.9-500,500s223.9,500,500,500s500-223.9,500-500S776.1,102.9,500,102.9z M743,570
	c-9.8,9.8-22.6,14.6-35.4,14.6s-25.6-4.9-35.4-14.6L550,447.8v431.5c0,27.6-22.4,50-50,50s-50-22.4-50-50V447.8L327.8,570
	c-19.5,19.5-51.2,19.5-70.7,0c-19.5-19.5-19.5-51.2,0-70.7l207.6-207.6c19.5-19.5,51.2-19.5,70.7,0L743,499.3
	C762.5,518.8,762.5,550.5,743,570z"/>
</svg>
