<?xml version="1.0" encoding="utf-8"?>
<!-- Generator: Adobe Illustrator 21.1.0, SVG Export Plug-In . SVG Version: 6.00 Build 0)  -->
<svg version="1.1" id="Icon" xmlns="http://www.w3.org/2000/svg" xmlns:xlink="http://www.w3.org/1999/xlink" x="0px" y="0px"
	 viewBox="0 0 1000 1200" style="enable-background:new 0 0 1000 1200;" xml:space="preserve">
<style type="text/css">
	.st0{fill:none;stroke:#FFFFFF;stroke-width:31.2952;stroke-linecap:round;stroke-linejoin:round;stroke-miterlimit:10;}
</style>
<g>
	<path d="M706.1,510.5c-5.3-2.8-11.2-4.9-17.3-6.2c-5-1.1-10.3-1.6-15.7-1.6c-2.8,0-5.4-0.2-7.8-0.6c-2.6-0.4-5.3-1.3-7.5-2.4
		c-1.8-0.9-3.7-2.4-5-4c-1.3-1.6-1.9-3.5-1.9-4.6c0-2.4,1.7-4.7,5.1-6.8c3.5-2.2,9.9-4.6,17.3-4.6c1,0,3.8,0.6,6,1.1l0.9,0.2
		c2.1,0.5,4.7,1.4,7.5,2.7c2,0.9,3.9,2.2,5.3,3.6c7.8,7.8,20.5,7.8,28.3,0c7.8-7.8,7.8-20.5,0-28.3c-4.9-4.9-10.8-8.9-17.2-11.8
		c-3.9-1.8-7.6-3.1-11.2-4.2v-6.1c0-11-9-20-20-20s-20,9-20,20v5.7c-6.6,1.8-12.8,4.5-18.2,7.9C619.7,460,611,474.8,611,491
		c0,10.6,3.9,21.2,10.9,29.8c4.9,6.1,11.2,11.1,18.1,14.6c5.8,2.9,12.3,5,18.8,6.1c4.6,0.8,9.3,1.1,14.4,1.1c2.6,0,5,0.2,7.2,0.7
		c2.5,0.5,5.1,1.5,7.1,2.5c1.8,1,3.9,2.7,5.4,4.4c1.1,1.2,1.7,2.8,1.7,4.3c0,1,0,2.9-4.5,5.8c-3.4,2.2-10.1,4.8-17.7,4.8
		c-2.3,0-6.6-0.8-8.1-1c-2.2-0.4-4.8-1.4-7.3-2.4c-1.4-0.5-2.9-1.7-4.4-3.5c-7.2-8.4-19.9-9.3-28.2-2c-8.4,7.2-9.3,19.9-2,28.2
		c5.8,6.6,12.4,11.5,19.8,14.4c3.3,1.3,6.9,2.7,10.8,3.7v5.8c0,11,9,20,20,20s20-9,20-20v-6.1c6.8-1.9,13.2-4.8,18.8-8.4
		c14.7-9.5,22.7-23.5,22.7-39.4c0-11.2-4.1-22.1-11.5-30.7C718.3,518.5,712.3,513.7,706.1,510.5z"/>
	<rect x="261.8" y="666.7" width="205.4" height="40"/>
	<path d="M500,102.9c-276.1,0-500,223.9-500,500s223.9,500,500,500s500-223.9,500-500S776.1,102.9,500,102.9z M149.4,451.3
		c0-27.3,22.3-49.6,49.6-49.6h308.2c-9.1,12.5-16.8,26.1-22.9,40.5c-6.6,15.5-11.1,31.6-13.7,48.1H149.4V451.3z M778.4,751.3
		c0,27.3-22.3,49.6-49.6,49.6H199c-27.3,0-49.6-22.3-49.6-49.6V540.2h319.8c1.9,21,7,41.5,15.2,61c10.3,24.3,25,46.2,43.8,64.9
		c18.8,18.8,40.6,33.5,64.9,43.8c25.2,10.7,52,16.1,79.5,16.1s54.3-5.4,79.5-16.1c9.1-3.8,17.9-8.3,26.2-13.4V751.3z M672.6,686
		c-90.8,0-164.3-73.6-164.3-164.3s73.6-164.3,164.3-164.3c90.8,0,164.3,73.6,164.3,164.3S763.4,686,672.6,686z"/>
</g>
</svg>
