<?xml version="1.0" encoding="utf-8"?>
<!-- Generator: Adobe Illustrator 21.1.0, SVG Export Plug-In . SVG Version: 6.00 Build 0)  -->
<svg version="1.1" id="Icon" xmlns="http://www.w3.org/2000/svg" xmlns:xlink="http://www.w3.org/1999/xlink" x="0px" y="0px"
	 viewBox="0 0 1000 1200" style="enable-background:new 0 0 1000 1200;" xml:space="preserve">
<style type="text/css">
	.st0{fill:none;stroke:#FFFFFF;stroke-width:31.2952;stroke-linecap:round;stroke-linejoin:round;stroke-miterlimit:10;}
</style>
<g>
	<path d="M926.1,441.4L513.5,206.6c-9.2-5.3-20.5-5.2-29.8,0L283.9,321.1v-78.7c0-19.2-15.8-35-35-35h-67.2c-19.2,0-35,15.8-35,35
		v155c0,0.8,0,1.5,0.1,2.3l-72.9,41.8c-14.4,8.2-19.4,26.6-11.1,40.9c8.2,14.4,26.6,19.4,40.9,11.1l395.1-226.3l397.7,226.4
		c4.7,2.7,9.8,3.9,14.8,3.9c10.4,0,20.6-5.4,26.1-15.2C945.5,467.9,940.5,449.6,926.1,441.4z"/>
	<path d="M498.8,324.8L146.7,526.5v399.7c0,19.2,15.8,35,35,35h636.7c19.2,0,35-15.8,35-35V526.6L498.8,324.8z M425,746.5H283.9
		V603.6H425V746.5z M716.1,746.5H575V603.6h141.1V746.5z"/>
</g>
</svg>
