<?xml version="1.0" encoding="utf-8"?>
<!-- Generator: Adobe Illustrator 21.1.0, SVG Export Plug-In . SVG Version: 6.00 Build 0)  -->
<svg version="1.1" id="Icon" xmlns="http://www.w3.org/2000/svg" xmlns:xlink="http://www.w3.org/1999/xlink" x="0px" y="0px"
	 viewBox="0 0 1000 1200" style="enable-background:new 0 0 1000 1200;" xml:space="preserve">
<style type="text/css">
	.st0{fill:none;stroke:#FFFFFF;stroke-width:31.2952;stroke-linecap:round;stroke-linejoin:round;stroke-miterlimit:10;}
</style>
<g>
	<rect x="287" y="548.8" width="270.9" height="40"/>
	<rect x="287" y="708.6" width="270.9" height="40"/>
	<rect x="287" y="628.7" width="270.9" height="40"/>
	<rect x="668.8" y="483.5" width="104" height="105.3"/>
	<path d="M500,102.9c-276.1,0-500,223.9-500,500s223.9,500,500,500s500-223.9,500-500S776.1,102.9,500,102.9z M851.9,776.4
		c0,13.8-11.2,25-25,25H174c-13.8,0-25-11.2-25-25v-346c0-13.8,11.2-25,25-25h652.9c13.8,0,25,11.2,25,25V776.4z"/>
</g>
</svg>
