<?xml version="1.0" encoding="utf-8"?>
<!-- Generator: Adobe Illustrator 21.1.0, SVG Export Plug-In . SVG Version: 6.00 Build 0)  -->
<svg version="1.1" id="Icon" xmlns="http://www.w3.org/2000/svg" xmlns:xlink="http://www.w3.org/1999/xlink" x="0px" y="0px"
	 viewBox="0 0 1000 1200" style="enable-background:new 0 0 1000 1200;" xml:space="preserve">
<style type="text/css">
	.st0{fill:none;stroke:#FFFFFF;stroke-width:31.2952;stroke-linecap:round;stroke-linejoin:round;stroke-miterlimit:10;}
</style>
<g>
	<path d="M773.4,620.2c-14.9-35.3-36.3-67.1-63.6-94.3c-27.3-27.3-59-48.7-94.3-63.6C578.9,446.8,540.1,439,500,439
		c-40.1,0-78.9,7.8-115.5,23.3c-35.3,14.9-67.1,36.3-94.3,63.6c-27.3,27.3-48.7,59-63.6,94.3c-15.5,36.5-23.3,75.4-23.3,115.5
		s7.8,78.9,23.3,115.5c14.9,35.3,36.3,67.1,63.6,94.3c27.3,27.3,59,48.7,94.3,63.6c36.5,15.5,75.4,23.3,115.5,23.3
		c40.1,0,78.9-7.8,115.5-23.3c35.3-14.9,67.1-36.3,94.3-63.6c27.3-27.3,48.7-59,63.6-94.3c15.5-36.5,23.3-75.4,23.3-115.5
		S788.9,656.8,773.4,620.2z M431.4,691.6c4.4,5.4,10.2,10.1,16.5,13.2c6.2,3.1,13.8,5.6,21,6.7c6.1,1,12.5,1.5,19.5,1.5
		c10.2,0,20.2,1,29.7,3.1c11.3,2.5,22.5,6.5,32.4,11.7c11.3,6,22.3,14.7,31,24.7c13.1,15,20.2,34.1,20.2,53.8
		c0,28.1-14,52-40.5,69.2c-13.7,8.9-30.7,15.3-48.3,18.7v35.7c0,13.8-11.2,25-25,25s-25-11.2-25-25v-35.5c-1.7-0.3-3.5-0.6-5.1-0.9
		c-11.1-1.9-20.8-5.6-29.1-8.9c-13.1-5.2-25-13.9-35.4-26c-13.6-15.6-20.7-33.7-20.7-52.4v-3.2c0-13.8,11.2-25,25-25s25,11.2,25,25
		v3.2c0,8.1,4.6,15.1,8.5,19.6c5.1,5.9,10.6,10.1,16.2,12.3c6.2,2.5,12.7,5,19.1,6.1c3.8,0.7,13.8,2.4,20.3,2.4
		c16.7,0,34.8-5,47.3-13.2c15.7-10.2,17.7-19.9,17.7-27.3c0-7.5-2.9-15.1-7.9-20.9c-4.6-5.3-10.8-10.3-16.6-13.3
		c-5.9-3.1-12.7-5.6-19.7-7.1c-6-1.3-12.4-1.9-19.1-1.9c-9.8,0-18.9-0.7-27.7-2.2c-12-2-24.5-6-35.1-11.3
		c-12.6-6.3-24-15.4-32.9-26.4c-12.4-15.2-19.3-33.9-19.3-52.4c0-28.5,15.5-54.7,42.4-71.7c13.6-8.6,30-14.7,47.2-17.8v-34.6
		c0-13.8,11.2-25,25-25s25,11.2,25,25V582c1,0.2,2,0.4,3,0.7l1.9,0.4c9.2,2,18.9,5.3,29.5,10.1c11.6,5.2,22.5,12.7,31.4,21.6
		c15.2,15.2,24.2,36.4,24.2,56.9c0,13.8-11.2,25-25,25s-25-11.2-25-25c0-7.2-3.8-15.8-9.5-21.5c-4.6-4.6-10.4-8.6-16.5-11.3
		c-7.3-3.3-13.9-5.6-19.6-6.8l-1.9-0.4c-6.7-1.5-12.4-2.7-16.5-2.7c-16.6,0-34,4.7-46.4,12.5c-15.8,10-19.1,21.5-19.1,29.4
		C423.3,677.6,426.3,685.4,431.4,691.6z"/>
	<path d="M810,461.9l39.3-39.3c11.7-11.7,11.7-30.7,0-42.4c-11.7-11.7-30.7-11.7-42.4,0l-39.8,39.8c-64.9-55-147-90.3-237.1-96.7
		v-59.4l34.6-0.1c16.6-0.1,30-13.5,29.9-30.1c-0.1-16.5-13.5-29.9-30-29.9c0,0-0.1,0-0.1,0l-129,0.5c-16.6,0.1-30,13.5-29.9,30.1
		c0.1,16.5,13.5,29.9,30,29.9c0,0,0.1,0,0.1,0L470,264v59.2C255.6,338.6,86.4,517.4,86.4,735.7c0,228.4,185.2,413.6,413.6,413.6
		s413.6-185.2,413.6-413.6C913.6,630.7,874.4,534.8,810,461.9z M500,1082.4c-191.5,0-346.7-155.2-346.7-346.7S308.5,389,500,389
		s346.7,155.2,346.7,346.7S691.5,1082.4,500,1082.4z"/>
</g>
</svg>
