<?xml version="1.0" encoding="utf-8"?>
<!-- Generator: Adobe Illustrator 21.1.0, SVG Export Plug-In . SVG Version: 6.00 Build 0)  -->
<svg version="1.1" id="Icon" xmlns="http://www.w3.org/2000/svg" xmlns:xlink="http://www.w3.org/1999/xlink" x="0px" y="0px"
	 viewBox="0 0 1000 1200" style="enable-background:new 0 0 1000 1200;" xml:space="preserve">
<style type="text/css">
	.st0{fill:none;stroke:#FFFFFF;stroke-width:31.2952;stroke-linecap:round;stroke-linejoin:round;stroke-miterlimit:10;}
</style>
<path d="M831.2,505.4L546,220.2c-12.2-12.2-28.7-19-46-19s-33.8,6.8-46,19L168.8,505.4c-25.4,25.4-25.4,66.5,0,91.9
	c25.4,25.4,66.5,25.4,91.9,0L435,423.1v601.8c0,35.9,29.1,65,65,65s65-29.1,65-65V423.1l174.3,174.3c12.7,12.7,29.3,19,46,19
	s33.3-6.3,46-19C856.6,572,856.6,530.8,831.2,505.4z"/>
</svg>
