<?xml version="1.0" encoding="utf-8"?>
<!-- Generator: Adobe Illustrator 21.1.0, SVG Export Plug-In . SVG Version: 6.00 Build 0)  -->
<svg version="1.1" id="Icon" xmlns="http://www.w3.org/2000/svg" xmlns:xlink="http://www.w3.org/1999/xlink" x="0px" y="0px"
	 viewBox="0 0 1000 1200" style="enable-background:new 0 0 1000 1200;" xml:space="preserve">
<style type="text/css">
	.st0{fill:none;stroke:#FFFFFF;stroke-width:31.2952;stroke-linecap:round;stroke-linejoin:round;stroke-miterlimit:10;}
</style>
<g>
	<path d="M480.1,604.6L480.1,604.6c-13.9,0-25,11.2-25,25s11.2,25,25,25s25-11.2,25-25S493.9,604.6,480.1,604.6z"/>
	<path d="M564.8,678.8h-0.1c-13.8,0-25,11.2-25,25s11.2,25,25,25h0.1c13.8,0,25-11.2,25-25S578.6,678.8,564.8,678.8z"/>
	<path d="M480.1,753.1L480.1,753.1c-13.9,0-25,11.2-25,25s11.2,25,25,25s25-11.2,25-25S493.9,753.1,480.1,753.1z"/>
	<path d="M564.8,604.6h-0.1c-13.8,0-25,11.2-25,25s11.2,25,25,25h0.1c13.8,0,25-11.2,25-25S578.6,604.6,564.8,604.6z"/>
	<path d="M480.1,678.8L480.1,678.8c-13.9,0-25,11.2-25,25s11.2,25,25,25s25-11.2,25-25S493.9,678.8,480.1,678.8z"/>
	<path d="M564.8,753.1h-0.1c-13.8,0-25,11.2-25,25s11.2,25,25,25h0.1c13.8,0,25-11.2,25-25S578.6,753.1,564.8,753.1z"/>
	<path d="M500,102.9c-276.1,0-500,223.9-500,500s223.9,500,500,500s500-223.9,500-500S776.1,102.9,500,102.9z M564.7,252L564.7,252
		l134.2,129.5v0.3H564.7V252z M353.9,814.1c0,16.9-6.5,32.4-17.1,44c-9.4,10.3-22,17.5-36.2,20.1c-3.9,0.7-7.9,1.1-12,1.1
		c-19.1,0-36.3-8.2-48.2-21.3c-10.6-11.6-17.1-27-17.1-44V538.6c0-18,7.3-34.3,19.1-46.1c11.8-11.8,28.1-19.1,46.1-19.1
		s34.3,7.3,46.1,19.1c6.7,6.7,12,14.9,15.3,24c2.5,6.9,3.8,14.3,3.8,22.1V814.1z M370.2,457.1c-18.8-18.8-43-30.3-69.1-33.1V277
		c0-13.8,11.2-25,25-25h198.6v143.4c0,14.5,11.9,26.4,26.4,26.4h147.8v43.7H377.8C375.4,462.6,372.9,459.8,370.2,457.1z
		 M775.9,853.3c0,13.8-11.2,25-25,25H384.4c12.7-18.8,19.6-41,19.6-64.3V538.6c0-7.5-0.7-14.9-2.1-22.1h349.1c13.8,0,25,11.2,25,25
		V853.3z"/>
	<path d="M649.4,604.6L649.4,604.6c-13.9,0-25,11.2-25,25s11.2,25,25,25c13.8,0,25-11.2,25-25S663.2,604.6,649.4,604.6z"/>
	<path d="M649.4,753.1L649.4,753.1c-13.9,0-25,11.2-25,25s11.2,25,25,25c13.8,0,25-11.2,25-25S663.2,753.1,649.4,753.1z"/>
	<path d="M649.4,678.8L649.4,678.8c-13.9,0-25,11.2-25,25s11.2,25,25,25c13.8,0,25-11.2,25-25S663.2,678.8,649.4,678.8z"/>
</g>
</svg>
