<?xml version="1.0" encoding="utf-8"?>
<!-- Generator: Adobe Illustrator 21.1.0, SVG Export Plug-In . SVG Version: 6.00 Build 0)  -->
<svg version="1.1" id="Icon" xmlns="http://www.w3.org/2000/svg" xmlns:xlink="http://www.w3.org/1999/xlink" x="0px" y="0px"
	 viewBox="0 0 1000 1200" style="enable-background:new 0 0 1000 1200;" xml:space="preserve">
<style type="text/css">
	.st0{fill:none;stroke:#FFFFFF;stroke-width:31.2952;stroke-linecap:round;stroke-linejoin:round;stroke-miterlimit:10;}
</style>
<g>
	<path d="M846.9,525h-51.8v-80.4v-0.3v-11.4c0-5,0-7.3,0-8.4c0-0.6,0-0.8,0-0.8c0-0.8,0-2.2,0-4.8v-25.4l-96.8-96.8l-72-72
		c0,0,0,0,0,0l-24.7-24.7h-52.3v0H251.3c-19.2,0-35,15.8-35,35v180.7c16.1,0.9,31.7,4.5,46.6,10.8c4.6,1.9,9.1,4.1,13.4,6.5V259.8
		h272.9v146.4c0,21.1,17.3,38.4,38.4,38.4h147.5V525H345.2c2.2,10,3.3,20.2,3.3,30.5v380.9c0,18.9-3.7,37.3-11,54.6
		c-5.3,12.4-12.2,23.9-20.7,34.3h530.2c19.2,0,35-15.8,35-35V560C881.9,540.7,866.2,525,846.9,525z M472.9,899.5
		c-16.6,0-30-13.4-30-30s13.4-30,30-30h0.1c16.6,0,30,13.4,30,30S489.5,899.5,472.9,899.5z M472.9,805.4c-16.6,0-30-13.4-30-30
		s13.4-30,30-30h0.1c16.6,0,30,13.4,30,30S489.5,805.4,472.9,805.4z M472.9,711.4c-16.6,0-30-13.4-30-30s13.4-30,30-30h0.1
		c16.6,0,30,13.4,30,30S489.5,711.4,472.9,711.4z M590,899.5h-0.2c-16.6,0-30-13.4-30-30s13.4-30,30-30h0.2c16.6,0,30,13.4,30,30
		S606.6,899.5,590,899.5z M590,805.4h-0.2c-16.6,0-30-13.4-30-30s13.4-30,30-30h0.2c16.6,0,30,13.4,30,30S606.6,805.4,590,805.4z
		 M590,711.4h-0.2c-16.6,0-30-13.4-30-30s13.4-30,30-30h0.2c16.6,0,30,13.4,30,30S606.6,711.4,590,711.4z M707.1,899.5
		c-16.6,0-30-13.4-30-30s13.4-30,30-30h0.1c16.6,0,30,13.4,30,30S723.6,899.5,707.1,899.5z M707.1,805.4c-16.6,0-30-13.4-30-30
		s13.4-30,30-30h0.1c16.6,0,30,13.4,30,30S723.6,805.4,707.1,805.4z M707.1,711.4c-16.6,0-30-13.4-30-30s13.4-30,30-30h0.1
		c16.6,0,30,13.4,30,30S723.6,711.4,707.1,711.4z"/>
	<path d="M208.3,465.3c-49.8,0-90.2,40.4-90.2,90.2v380.9c0,49.8,40.4,90.2,90.2,90.2s90.2-40.4,90.2-90.2V555.5
		C298.5,505.7,258.1,465.3,208.3,465.3z"/>
</g>
</svg>
