<?xml version="1.0" encoding="utf-8"?>
<!-- Generator: Adobe Illustrator 21.1.0, SVG Export Plug-In . SVG Version: 6.00 Build 0)  -->
<svg version="1.1" id="Icon" xmlns="http://www.w3.org/2000/svg" xmlns:xlink="http://www.w3.org/1999/xlink" x="0px" y="0px"
	 viewBox="0 0 1000 1200" style="enable-background:new 0 0 1000 1200;" xml:space="preserve">
<style type="text/css">
	.st0{fill:none;stroke:#FFFFFF;stroke-width:31.2952;stroke-linecap:round;stroke-linejoin:round;stroke-miterlimit:10;}
</style>
<g>
	<rect x="554.1" y="615.2" width="104" height="105.3"/>
	<rect x="339.4" y="615.2" width="104" height="105.3"/>
	<path d="M500,102.9c-276.1,0-500,223.9-500,500s223.9,500,500,500c276.1,0,500-223.9,500-500S776.1,102.9,500,102.9z M759.2,853.8
		c0,13.8-11.2,25-25,25H263.3c-13.8,0-25-11.2-25-25v-277l259.6-148.7l261.3,148.8V853.8z M823.7,527.2
		c-4.6,8.1-13.1,12.6-21.7,12.6c-4.2,0-8.4-1.1-12.3-3.3L497.8,370.5L208,536.5c-12,6.9-27.3,2.7-34.1-9.3
		c-6.9-12-2.7-27.3,9.3-34.1l55.1-31.6V352.1c0-13.8,11.2-25,25-25h51.2c13.8,0,25,11.2,25,25v51.5L485.4,320
		c7.7-4.4,17.1-4.4,24.8,0l304.1,173.1C826.3,499.9,830.5,515.2,823.7,527.2z"/>
</g>
</svg>
