<?xml version="1.0" encoding="utf-8"?>
<!-- Generator: Adobe Illustrator 21.1.0, SVG Export Plug-In . SVG Version: 6.00 Build 0)  -->
<svg version="1.1" id="Icon" xmlns="http://www.w3.org/2000/svg" xmlns:xlink="http://www.w3.org/1999/xlink" x="0px" y="0px"
	 viewBox="0 0 1000 1200" style="enable-background:new 0 0 1000 1200;" xml:space="preserve">
<style type="text/css">
	.st0{fill:none;stroke:#FFFFFF;stroke-width:31.2952;stroke-linecap:round;stroke-linejoin:round;stroke-miterlimit:10;}
</style>
<g>
	<path d="M518.3,510.7c-9.8-9.8-25.6-9.8-35.4,0L374.5,619.2c-9.8,9.8-9.8,25.6,0,35.4c9.8,9.8,25.6,9.8,35.4,0l65.8-65.8V817
		c0,13.8,11.2,25,25,25c13.8,0,25-11.2,25-25V588.7l65.8,65.8c4.9,4.9,11.3,7.3,17.7,7.3s12.8-2.4,17.7-7.3c9.8-9.8,9.8-25.6,0-35.4
		L518.3,510.7z"/>
	<path d="M500,102.9c-276.1,0-500,223.9-500,500s223.9,500,500,500s500-223.9,500-500S776.1,102.9,500,102.9z M575.8,290.4l0-0.3
		l154.9,150.8H575.8V290.4z M705.8,917.3H295.3c-13.8,0-25-11.2-25-25V315c0-13.8,11.2-25,25-25l234.2,0v166.5
		c0,16.8,13.8,30.6,30.6,30.6h170.7l0,405.2C730.8,906.1,719.5,917.3,705.8,917.3z"/>
</g>
</svg>
