<?xml version="1.0" encoding="utf-8"?>
<!-- Generator: Adobe Illustrator 21.1.0, SVG Export Plug-In . SVG Version: 6.00 Build 0)  -->
<svg version="1.1" id="Icon" xmlns="http://www.w3.org/2000/svg" xmlns:xlink="http://www.w3.org/1999/xlink" x="0px" y="0px"
	 viewBox="0 0 1000 1200" style="enable-background:new 0 0 1000 1200;" xml:space="preserve">
<style type="text/css">
	.st0{fill:none;stroke:#FFFFFF;stroke-width:31.2952;stroke-linecap:round;stroke-linejoin:round;stroke-miterlimit:10;}
</style>
<path d="M413.2,564.1v50h54.6c1.1-17,3.7-33.7,7.8-50H413.2z"/>
<path d="M210.8,834.9h344.7c-2.4-2.2-4.8-4.5-7.1-6.9c-13.3-13.3-25-27.7-35.3-43.1H210.8V834.9z"/>
<rect x="413.2" y="351.9" width="143.2" height="50"/>
<path d="M413.2,458v50h83.3c8.9-17.8,19.7-34.5,32.2-50H413.2z"/>
<path d="M210.8,670.2v50h270.7c-5.5-16.3-9.4-33-11.7-50H210.8z"/>
<path d="M149.6,900.4V260.1H612v128.5c7.3-4,14.8-7.6,22.5-11c-1.9-6.6-2.9-13.6-2.9-20.7c-0.1-29.3,16.2-55,40.4-68.1v-53.8
	c0-19.2-15.8-35-35-35H124.6c-19.2,0-35,15.8-35,35v690.3c0,19.2,15.8,35,35,35H637c19.2,0,35-15.8,35-35v-25H149.6z"/>
<path d="M353.3,486.4c-6.3-7.2-14.3-13.6-22.6-18c-7.1-3.7-15.1-6.6-23.2-8.4c-6.8-1.5-13.9-2.2-21.1-2.2c-4,0-7.7-0.3-11.2-0.9
	c-3.8-0.6-7.8-1.9-11.1-3.6c-2.9-1.4-5.7-3.7-7.8-6.2c-2-2.4-3.3-5.6-3.3-8c0-4.2,2.8-8.1,8.3-11.6c6.6-4.2,16.3-6.7,25.3-6.7
	c1.7,0,5.3,0.8,8.8,1.5l1.2,0.3c3.1,0.7,6.8,2,11,3.8c3,1.4,5.9,3.3,8.1,5.6c9.8,9.8,25.6,9.7,35.4,0s9.7-25.6,0-35.4
	c-6.5-6.5-14.4-11.9-22.9-15.8c-6-2.7-11.6-4.7-17.1-6.2v-10.5c0-13.8-11.2-25-25-25s-25,11.2-25,25v9.9
	c-9.6,2.5-18.6,6.2-26.4,11.2c-20.1,12.7-31.6,32.3-31.6,53.9c0,14,5.2,28.1,14.5,39.5c6.5,8.1,14.9,14.8,24.2,19.4
	c7.7,3.9,16.5,6.7,25.2,8.2c6.2,1,12.6,1.5,19.4,1.5c3.7,0,7.3,0.4,10.5,1.1c3.7,0.8,7.5,2.2,10.5,3.8c2.8,1.5,6,4,8.2,6.6
	c1.9,2.1,2.9,5,2.9,7.7c0,1.9,0,5.4-7.4,10.3c-5.1,3.3-14.9,7.1-25.8,7.1c-3.4,0-9.6-1.1-11.6-1.4c-3.3-0.6-7-2-10.6-3.4
	c-2.3-0.9-4.7-2.8-7.1-5.5c-9-10.4-24.8-11.6-35.3-2.5c-10.4,9-11.6,24.8-2.5,35.3c7.7,8.9,16.5,15.3,26.3,19.2
	c5.1,2,10.6,4.1,16.6,5.5v10.1c0,13.8,11.2,25,25,25s25-11.2,25-25V591c9.9-2.6,19.2-6.6,27.2-11.8c19.5-12.6,30.2-31.2,30.2-52.2
	C368.6,512.1,363.2,497.7,353.3,486.4z"/>
<path d="M920.1,488.3l22.1-22.1c9.8-9.8,9.8-25.6,0-35.4c-9.8-9.8-25.6-9.8-35.4,0l-22.4,22.4c-32.4-25.4-71.9-42.2-115-46.9v-24.9
	l10.5,0c13.8-0.1,25-11.3,24.9-25.1c-0.1-13.8-11.2-24.9-25-24.9c0,0-0.1,0-0.1,0l-70.9,0.3c-13.8,0.1-25,11.3-24.9,25.1
	c0.1,13.8,11.2,24.9,25,24.9c0,0,0.1,0,0.1,0l10.3,0v24.7c-113.7,12.4-202.1,108.8-202.1,225.7c0,125.4,101.7,227.1,227.1,227.1
	s227.1-101.7,227.1-227.1C971.4,577.5,952.2,527.5,920.1,488.3z M816,701.8c-4.9,4.9-11.3,7.3-17.7,7.3s-12.8-2.4-17.7-7.3
	l-51.9-51.9c-5.7-4.6-9.4-11.6-9.4-19.5V523c0-13.8,11.2-25,25-25s25,11.2,25,25v96.8l46.7,46.7C825.8,676.2,825.8,692,816,701.8z"
	/>
</svg>
