<?xml version="1.0" encoding="utf-8"?>
<!-- Generator: Adobe Illustrator 21.1.0, SVG Export Plug-In . SVG Version: 6.00 Build 0)  -->
<svg version="1.1" id="Icon" xmlns="http://www.w3.org/2000/svg" xmlns:xlink="http://www.w3.org/1999/xlink" x="0px" y="0px"
	 viewBox="0 0 1000 1200" style="enable-background:new 0 0 1000 1200;" xml:space="preserve">
<style type="text/css">
	.st0{fill:none;stroke:#FFFFFF;stroke-width:31.2952;stroke-linecap:round;stroke-linejoin:round;stroke-miterlimit:10;}
</style>
<g>
	<path d="M516.8,397.9h-443c-38.5,0-70,31.5-70,70v60.2H463c3.4-24.2,9.9-47.9,19.5-70.6C491.5,436.2,503,416.2,516.8,397.9z"/>
	<path d="M742.2,849.1c-38,0-75-7.5-109.7-22.2c-33.6-14.2-63.7-34.5-89.6-60.4c-25.9-25.9-46.2-56-60.4-89.6
		c-12-28.4-19.2-58.2-21.4-88.9H3.8v303.2c0,38.5,31.5,70,70,70h747.6c38.5,0,70-31.5,70-70v-84.9c-12.6,7.8-25.7,14.7-39.5,20.5
		C817.1,841.7,780.2,849.1,742.2,849.1z M452.3,825.1H162.5v-50h289.8V825.1z"/>
	<g>
		<path d="M742.2,335.3c-128.1,0-231.9,103.8-231.9,231.9s103.8,231.9,231.9,231.9c128.1,0,231.9-103.8,231.9-231.9
			S870.3,335.3,742.2,335.3z M795.8,666.5c-8.3,5.4-17.9,9.4-28.1,12.1v11.1c0,13.8-11.2,25-25,25s-25-11.2-25-25V679
			c-6.3-1.4-12-3.5-17.3-5.6c-9.9-3.9-18.9-10.5-26.6-19.5c-9-10.4-7.9-26.2,2.5-35.3c10.4-9,26.2-7.9,35.3,2.5
			c2.5,2.8,5,4.8,7.4,5.8c3.7,1.5,7.5,3,10.9,3.5c2.1,0.4,8.4,1.5,12,1.5c9.3,0,19.8-2.9,26.7-7.3c7.8-5.1,7.8-8.9,7.8-10.9
			c0-3-1.1-6-3.1-8.2c-2.4-2.7-5.7-5.3-8.6-6.9c-3.2-1.7-7.1-3.1-10.9-3.9c-3.3-0.7-7-1.1-10.8-1.1c-7,0-13.4-0.5-19.7-1.6
			c-8.9-1.5-17.8-4.3-25.6-8.3c-9.4-4.7-17.9-11.5-24.5-19.7c-9.4-11.6-14.6-25.8-14.6-40c0-21.8,11.7-41.7,32-54.6
			c8-5.1,17.4-8.9,27.2-11.4v-10.5c0-13.8,11.2-25,25-25s25,11.2,25,25v11.1c5.6,1.5,11.5,3.6,17.8,6.4c8.6,3.9,16.7,9.4,23.3,16
			c9.8,9.8,9.8,25.6,0,35.4c-9.8,9.8-25.6,9.8-35.4,0c-2.3-2.3-5.4-4.4-8.5-5.8c-4.3-1.9-8.1-3.3-11.3-4l-1.2-0.3
			c-3.6-0.8-7.3-1.6-9.1-1.6c-9.3,0-19.3,2.7-26.1,7c-5.8,3.7-8.7,7.8-8.7,12.3c0,2.6,1.4,5.9,3.4,8.5c2.2,2.7,5.1,5,8.1,6.5
			c3.4,1.7,7.5,3,11.5,3.7c3.6,0.6,7.4,0.9,11.5,0.9c7.4,0,14.6,0.8,21.4,2.2c8.2,1.8,16.4,4.7,23.5,8.5
			c8.4,4.4,16.5,10.9,22.9,18.2c10,11.5,15.5,26.1,15.5,41.1C826.4,628.7,821.1,650.1,795.8,666.5z"/>
	</g>
</g>
</svg>
