<?xml version="1.0" encoding="utf-8"?>
<!-- Generator: Adobe Illustrator 21.1.0, SVG Export Plug-In . SVG Version: 6.00 Build 0)  -->
<svg version="1.1" id="Icon" xmlns="http://www.w3.org/2000/svg" xmlns:xlink="http://www.w3.org/1999/xlink" x="0px" y="0px"
	 viewBox="0 0 1000 1200" style="enable-background:new 0 0 1000 1200;" xml:space="preserve">
<style type="text/css">
	.st0{fill:none;stroke:#FFFFFF;stroke-width:31.2952;stroke-linecap:round;stroke-linejoin:round;stroke-miterlimit:10;}
</style>
<g>
	<path d="M347.6,569.5c-3.4,2.2-10.1,4.8-17.6,4.8c-2.3,0-6.6-0.8-8.1-1c-2.2-0.4-4.8-1.4-7.3-2.4c-1.3-0.5-2.8-1.7-4.3-3.5
		c-7.2-8.4-19.9-9.3-28.2-2c-8.4,7.2-9.3,19.9-2,28.2c5.7,6.6,12.4,11.5,19.7,14.4c3.3,1.3,6.9,2.7,10.8,3.7v5.7c0,11,9,20,20,20
		s20-9,20-20v-6.1c6.8-1.9,13.2-4.8,18.8-8.4c14.6-9.5,22.7-23.5,22.7-39.3c0-11.2-4.1-22.1-11.5-30.6c-4.7-5.4-10.7-10.1-16.9-13.4
		c-5.3-2.8-11.2-4.9-17.2-6.2c-5-1.1-10.3-1.6-15.6-1.6c-2.8,0-5.3-0.2-7.8-0.6c-2.6-0.4-5.2-1.3-7.5-2.4c-1.8-0.9-3.7-2.4-5-4
		c-1.3-1.6-1.9-3.4-1.9-4.5c0-2.3,1.7-4.6,5.1-6.7c3.5-2.2,9.8-4.6,17.2-4.6c1,0,3.8,0.6,5.9,1.1l0.9,0.2c2.1,0.5,4.6,1.4,7.5,2.6
		c2,0.9,3.8,2.2,5.3,3.6c7.8,7.8,20.5,7.8,28.3,0c7.8-7.8,7.8-20.5,0-28.3c-4.9-4.8-10.8-8.9-17.1-11.8c-3.9-1.8-7.6-3.1-11.2-4.2
		v-6.1c0-11-9-20-20-20s-20,9-20,20v5.7c-6.6,1.8-12.8,4.5-18.2,7.9c-15.1,9.5-23.7,24.3-23.7,40.6c0,10.6,3.9,21.2,10.9,29.7
		c4.9,6.1,11.2,11.1,18.1,14.5c5.8,2.9,12.3,5,18.8,6.1c4.6,0.8,9.3,1.1,14.3,1.1c2.5,0,5,0.2,7.2,0.7c2.5,0.5,5,1.5,7.1,2.5
		c1.8,0.9,3.9,2.7,5.4,4.3c1,1.2,1.6,2.8,1.6,4.3C352.1,564.7,352.1,566.6,347.6,569.5z"/>
	<rect x="417" y="435.4" width="131.3" height="40"/>
	<path d="M681.9,521.4c-33.1,0-64.2,12.9-87.7,36.3c-23.4,23.4-36.3,54.5-36.3,87.7s12.9,64.2,36.3,87.7
		c23.4,23.4,54.5,36.3,87.7,36.3s64.2-12.9,87.7-36.3c23.4-23.4,36.3-54.5,36.3-87.7s-12.9-64.2-36.3-87.7
		C746.2,534.3,715,521.4,681.9,521.4z M735.1,697c-3.9,3.9-9,5.9-14.1,5.9s-10.2-2-14.1-5.9l-37.4-37.4c-4.5-3.7-7.4-9.3-7.4-15.5
		v-77.5c0-11,9-20,20-20s20,9,20,20v69l33.1,33.1C742.9,676.6,742.9,689.2,735.1,697z"/>
	<path d="M500,102.9c-276.1,0-500,223.9-500,500s223.9,500,500,500s500-223.9,500-500S776.1,102.9,500,102.9z M627.1,851.7
		c0,13.8-11.2,25-25,25H231.6c-13.8,0-25-11.2-25-25V352.7c0-13.8,11.2-25,25-25h370.5c13.8,0,25,11.2,25,25v41.8
		c-18.2,10.3-30.5,29.8-30.4,52.2c0,4.3,0.5,8.6,1.4,12.6c-22.5,10.2-42.8,24.2-60.4,41.8c-3.5,3.5-6.9,7.1-10.1,10.8H417v40h83.6
		c-2.3,4.6-4.5,9.2-6.6,14c-3.1,7.4-5.8,15-8,22.6h-69v40h61.7c-0.5,5.6-0.7,11.2-0.7,16.8c0,6.7,0.3,13.3,1,19.8H276.2v40h210.7
		c2,6.6,4.4,13.2,7.1,19.6c3.4,8,7.3,15.8,11.6,23.2H276.2v40h260c0.5,0.5,1,1.1,1.5,1.6c18.7,18.7,40.5,33.4,64.8,43.7
		c8,3.4,16.2,6.3,24.6,8.6V851.7z M681.9,809.3c-90.6,0-164-73.4-164-164c0-83.8,62.8-152.9,144-162.7v-16.1l-5.5,0c0,0-0.1,0-0.1,0
		c-11,0-20-8.9-20-19.9c0-11,8.9-20,19.9-20.1l51.2-0.2c0,0,0.1,0,0.1,0c11,0,20,8.9,20,19.9c0,11-8.9,20-19.9,20.1l-5.7,0v16.3
		c29.7,3.6,56.9,15.2,79.5,32.5l16.4-16.4c7.8-7.8,20.5-7.8,28.3,0c7.8,7.8,7.8,20.5,0,28.3L810,543.1c22.4,28,35.8,63.6,35.8,102.3
		C845.9,735.9,772.5,809.3,681.9,809.3z"/>
</g>
</svg>
