<?xml version="1.0" encoding="utf-8"?>
<!-- Generator: Adobe Illustrator 21.1.0, SVG Export Plug-In . SVG Version: 6.00 Build 0)  -->
<svg version="1.1" id="Icon" xmlns="http://www.w3.org/2000/svg" xmlns:xlink="http://www.w3.org/1999/xlink" x="0px" y="0px"
	 viewBox="0 0 1000 1200" style="enable-background:new 0 0 1000 1200;" xml:space="preserve">
<style type="text/css">
	.st0{fill:none;stroke:#FFFFFF;stroke-width:31.2952;stroke-linecap:round;stroke-linejoin:round;stroke-miterlimit:10;}
</style>
<path d="M500,102.9c-276.1,0-500,223.9-500,500s223.9,500,500,500c276.1,0,500-223.9,500-500S776.1,102.9,500,102.9z M499.6,288.6
	c40.4,0,73.2,32.8,73.2,73.2S540,435,499.6,435s-73.2-32.8-73.2-73.2S459.1,288.6,499.6,288.6z M499.6,918.4
	c-40.4,0-73.2-32.8-73.2-73.2s32.8-73.2,73.2-73.2s73.2,32.8,73.2,73.2S540,918.4,499.6,918.4z M763.1,653.5H236
	c-27.6,0-50-22.4-50-50s22.4-50,50-50h527.1c27.6,0,50,22.4,50,50S790.7,653.5,763.1,653.5z"/>
</svg>
