<?xml version="1.0" encoding="utf-8"?>
<!-- Generator: Adobe Illustrator 21.1.0, SVG Export Plug-In . SVG Version: 6.00 Build 0)  -->
<svg version="1.1" id="Icon" xmlns="http://www.w3.org/2000/svg" xmlns:xlink="http://www.w3.org/1999/xlink" x="0px" y="0px"
	 viewBox="0 0 1000 1200" style="enable-background:new 0 0 1000 1200;" xml:space="preserve">
<style type="text/css">
	.st0{fill:none;stroke:#FFFFFF;stroke-width:31.2952;stroke-linecap:round;stroke-linejoin:round;stroke-miterlimit:10;}
</style>
<g>
	<path d="M675,640.4L521.7,487c-11.7-11.7-30.7-11.7-42.4,0L325.9,640.4c-11.7,11.7-11.7,30.7,0,42.4c11.7,11.7,30.7,11.7,42.4,0
		l102.1-102.1v335.5c0,16.6,13.4,30,30,30s30-13.4,30-30V580.6l102.1,102.1c5.9,5.9,13.5,8.8,21.2,8.8s15.4-2.9,21.2-8.8
		C686.7,671.1,686.7,652.1,675,640.4z"/>
	<g>
		<path d="M801.8,360.6C801.8,360.6,801.8,360.6,801.8,360.6L668.6,227.4c0,0,0,0,0,0l-24.7-24.7h-24.7c0,0,0,0,0,0
			c-13.6,0-40.4,0-59.7,0H209.9c-19.2,0-35,15.8-35,35v817.8c0,19.2,15.8,35,35,35h581.7c19.2,0,35-15.8,35-35V468.4
			c0-10.5,0-23.2,0-34.7h0v-0.3v-48L801.8,360.6z M766.6,468.4v562.1H234.9V262.6h324.6h35v134.8c0,19.9,16.3,36.2,36.2,36.2h135.9
			V468.4z"/>
	</g>
</g>
</svg>
