<svg viewBox="0 0 707.6 1200" class="cf-icon-svg"><circle cx="500" cy="605.2" r="500"/><circle cx="268.9" cy="398.5" r="144.6"/><path d="M401.2 629.5c-9.3-13.4-16.4-28.2-20.9-43.9H141.5C63.7 585.6 0 649.3 0 727.1V812c.1 31.2 25.4 56.5 56.6 56.6h241.7c-6.1-12.1-9.2-25.5-9.2-39v-58.4c.1-67.5 46.5-126.1 112.1-141.7z"/><path d="M610.1 673.7H434.7c-53.6 0-97.4 43.8-97.4 97.4v58.5c0 21.5 17.5 39 39 39h292.3c21.5 0 39-17.5 39-39v-58.5c-.1-53.5-43.9-97.4-97.5-97.4z"/><circle cx="522.4" cy="544.9" r="99.6"/></svg>