<svg class="cf-icon-svg" aria-label="payday loan" version="1.1" viewBox="0 0 13 16">
<path d="M6.2,4C6,4,5.8,4.2,5.8,4.4v1.4C5.9,5.9,5.9,6,6,6c0.3,0.3,0.4,0.6,0.4,1c0,0.3-0.1,0.5-0.2,0.7c0.2,0.5,0.4,1,0.4,1.6
	c0,0.8-0.3,1.6-0.8,2.3v1.2c0,0.2,0.2,0.4,0.4,0.4h6.4c0.2,0,0.4-0.2,0.4-0.4V4.4C13,4.2,12.8,4,12.6,4H6.2z M5.4,7.2
	c0.2-0.1,0.2-0.4,0-0.5C5.2,6.5,5,6.5,4.8,6.7L4.6,7c-0.5-0.4-1-0.5-1.5-0.6V5.8h0.3c0.1,0,0.2-0.1,0.2-0.3c0-0.1-0.1-0.2-0.2-0.2
	h-1C2.2,5.3,2,5.4,2,5.6c0,0.2,0.1,0.3,0.3,0.3h0.3v0.6C1.1,6.5,0,7.8,0,9.2C0,10.8,1.3,12,2.8,12c1.6,0,2.8-1.3,2.8-2.8
	c0-0.7-0.2-1.3-0.6-1.7L5.4,7.2z M2.8,11.5c-1.2,0-2.2-1-2.2-2.2S1.6,7,2.8,7C4.1,7,5,8,5,9.2S4.1,11.5,2.8,11.5L2.8,11.5z
	 M7.2,11.7v-0.6h4.6v0.7L7.2,11.7L7.2,11.7z M7.2,10.2V9.5h4.6v0.7H7.2z M3.1,8.6V7.8c0-0.2-0.1-0.3-0.3-0.3S2.6,7.6,2.6,7.8v1.5
	c0,0.1,0.1,0.2,0.2,0.3h0.1c0.1,0,0.2,0,0.2-0.1L4,8.6c0-0.1,0-0.3-0.1-0.4c-0.1-0.1-0.3-0.1-0.4,0L3.1,8.6z M9.8,7.2V6.6h2v0.7h-2
	V7.2z M9.8,5.8V5.1h2v0.7H9.8z M9.8,8.7V8h2v0.7H9.8z M7.9,7.5c0.3,0,0.4-0.1,0.4-0.2C8.3,7.1,8.1,7,7.9,7C7.6,7,7.4,6.9,7.2,6.7
	C7,6.6,7,6.4,7,6.2c0-0.3,0.3-0.6,0.7-0.7V5.2c0-0.1,0.1-0.3,0.3-0.3c0.2,0,0.2,0.1,0.2,0.3v0.3c0.3,0.1,0.7,0.3,0.7,0.7
	c0,0.1-0.1,0.3-0.3,0.3c-0.1,0-0.3-0.1-0.3-0.3C8.3,6,8,6,7.9,6C7.6,6,7.5,6.1,7.5,6.2c0,0.2,0.3,0.3,0.4,0.3c0.3,0,0.5,0.1,0.7,0.3
	c0.1,0.1,0.2,0.3,0.2,0.5c0,0.4-0.3,0.6-0.7,0.7v0.3c0,0.1-0.1,0.2-0.3,0.2S7.7,8.4,7.7,8.3V8C7.3,7.9,7,7.6,7,7.2
	C7,7.1,7.1,7,7.2,7s0.3,0.1,0.3,0.3C7.5,7.4,7.7,7.5,7.9,7.5z"/>
</svg>
