<svg class="cf-icon-svg" aria-label="payday loan" version="1.1" viewBox="0 0 13 16">
<path d="M6.5,2C2.9,2,0,4.9,0,8.5S2.9,15,6.5,15S13,12.1,13,8.5S10.1,2,6.5,2L6.5,2z M9.8,6.5V6.1H8.3v0.5L9.8,6.5L9.8,6.5z
	 M9.8,8.6V8.1H8.3v0.5H9.8z M9.8,7.6V7.1H8.3v0.5H9.8z M3.9,8.2c0.1-0.1,0.2-0.1,0.3,0c0.1,0.1,0.1,0.2,0,0.3L3.6,9.1L3.5,9.2H3.4
	C3.3,9.1,3.2,9.1,3.2,9V8c0-0.1,0.1-0.2,0.2-0.2c0.1,0,0.2,0.1,0.2,0.2v0.5L3.9,8.2z M9.8,9.6V9.2H6.5v0.5L9.8,9.6L9.8,9.6z
	 M9.8,10.7v-0.4H6.5v0.5h3.3V10.7z M7,7.7c-0.1,0-0.3,0-0.3-0.2c0-0.1-0.1-0.2-0.2-0.2S6.3,7.4,6.3,7.5C6.3,7.8,6.5,8,6.8,8v0.2
	c0,0.1,0.1,0.2,0.2,0.2s0.2-0.1,0.2-0.2V8.1C7.5,8,7.7,7.8,7.7,7.6c0-0.1-0.1-0.3-0.2-0.3C7.4,7.1,7.2,7,7,7C6.9,7,6.7,7,6.7,6.8
	c0-0.1,0.1-0.2,0.3-0.2c0.1,0,0.3,0,0.3,0.2C7.3,6.9,7.4,7,7.5,7s0.2-0.1,0.2-0.2c0-0.3-0.2-0.5-0.5-0.5V6.1c0-0.1,0-0.2-0.2-0.2
	C6.9,5.9,6.9,6,6.9,6.1v0.2C6.6,6.4,6.4,6.6,6.4,6.8c0,0.1,0.1,0.3,0.2,0.4c0,0.1,0.2,0.2,0.4,0.2c0.1,0,0.3,0.1,0.3,0.2
	C7.3,7.6,7.2,7.7,7,7.7L7,7.7z M3.5,10.6C4.3,10.6,5,9.8,5,9S4.3,7.4,3.5,7.4S1.9,8.1,1.9,9C1.9,9.8,2.6,10.6,3.5,10.6L3.5,10.6z
	 M5,7.7C5.3,8.1,5.5,8.5,5.5,9c0,1.1-0.9,2-2,2s-2-0.9-2-2c0-1,0.8-1.9,1.8-2V6.5H3.1c-0.1,0-0.2,0-0.2-0.1S3,6.2,3.1,6.2h0.7
	C3.9,6.2,4,6.3,4,6.4S3.9,6.6,3.8,6.6H3.6V7c0.4,0,0.7,0.2,1,0.4l0.2-0.2c0.1-0.1,0.3-0.1,0.4,0s0.1,0.3,0,0.4L5,7.7z M10.3,5.3
	c0.2,0,0.3,0.1,0.3,0.3v5.9c0,0.2-0.1,0.3-0.3,0.3H5.8c-0.2,0-0.3-0.1-0.3-0.3v-0.9c0.3-0.4,0.6-1,0.6-1.6c0-0.4-0.1-0.8-0.3-1.1
	C5.9,7.7,6,7.5,6,7.4c0-0.2-0.1-0.5-0.3-0.7c-0.1,0-0.1-0.1-0.2-0.1v-1c0-0.2,0.1-0.3,0.3-0.3C5.8,5.3,10.3,5.3,10.3,5.3z"/>
</svg>
