<svg class="cf-icon-svg" aria-label="paying for college" version="1.1" viewBox="0 0 13 16">
<path d="M6.6,4.9c0.2-0.1,0.4,0,0.5,0.2c0.1,0.2,0,0.4-0.2,0.5l-3,1.6l2.7,1.3L13,5.3L6.5,2L0,5.3l3,1.5c0-0.1,0.1-0.1,0.2-0.1
	L6.6,4.9z M2.3,6.8v1.4C2.3,8.6,2.5,9,3,9.4L2.9,7.1L2.3,6.8z M6.5,8.9L6.5,8.9L3.7,7.5v2.2c1.6,0.8,4.3,0.8,5.9,0
	c0.8-0.4,1.2-0.9,1.2-1.4V6.8L6.5,8.9C6.6,8.9,6.5,8.9,6.5,8.9L6.5,8.9z M3.7,11.2c0-0.2-0.1-0.3-0.3-0.3S3,11.1,3,11.2l-0.2,2.1
	c0,0.4,0.3,0.6,0.6,0.6s0.5-0.3,0.5-0.6L3.7,11.2z"/>
</svg>
