<svg class="cf-icon-svg" aria-label="paying for college" version="1.1" viewBox="0 0 13 16">
<path d="M6.5,2C2.9,2,0,4.9,0,8.5S2.9,15,6.5,15S13,12.1,13,8.5S10.1,2,6.5,2L6.5,2z M4.2,8.5L4.3,10C3.9,9.8,3.8,9.5,3.8,9.2v-1
	L4.2,8.5z M4.8,12.7c0,0.2-0.1,0.4-0.3,0.4c-0.2,0-0.4-0.1-0.4-0.4l0.1-1.4c0-0.2,0.1-0.3,0.3-0.3c0.1,0,0.2,0.1,0.2,0.2L4.8,12.7z
	 M6.6,9.7L6.6,9.7l2.9-1.4v1c0,0.3-0.3,0.7-0.8,0.9c-1.1,0.5-2.8,0.5-4,0V8.7L6.6,9.7L6.6,9.7L6.6,9.7z M4.3,8.1L4.3,8.1L2.2,7.2
	L6.6,5L11,7.2L6.6,9.4L4.8,8.5l2.1-1.1C7,7.4,7.1,7.2,7,7.1S6.8,6.9,6.7,7L4.3,8.1z"/>
</svg>
