<svg class="cf-icon-svg" aria-label="pdf" version="1.1" viewBox="0 0 13 16">
<path d="M4.4,7.7c-0.1,0-0.2,0.1-0.2,0.2v2.9c0,0.1,0.1,0.2,0.2,0.2s0.2-0.1,0.2-0.2V9.6h0.5c0.2,0,0.4-0.2,0.4-0.4v-1
	c0-0.2-0.2-0.4-0.4-0.4C5.1,7.7,4.4,7.7,4.4,7.7z M5.1,9.1C5.1,9.2,5.1,9.2,5.1,9.1L4.6,9.2V8.1h0.5c0,0,0.1,0,0.1,0.1L5.1,9.1
	L5.1,9.1z M6.5,2C2.9,2,0,4.9,0,8.5S2.9,15,6.5,15S13,12.1,13,8.5S10.1,2,6.5,2L6.5,2z M9.4,6.3H7.9V4.8L9.4,6.3z M9.6,12.3
	c0,0.1-0.1,0.1-0.1,0.1H3.6c-0.1,0-0.1-0.1-0.1-0.1V4.7c0-0.1,0.1-0.1,0.1-0.1h3.7v2.2C7.2,6.9,7.3,7,7.4,7h2.2V12.3L9.6,12.3z
	 M6,7.7c-0.1,0-0.2,0.1-0.2,0.2v2.9C5.8,10.9,5.9,11,6,11h0.6c0.4,0,0.7-0.3,0.7-0.7V8.5c0-0.4-0.3-0.7-0.6-0.7H6V7.7z M6.9,10.3
	c0,0.2-0.1,0.4-0.3,0.4H6.2V8.1h0.5C6.8,8.1,7,8.3,7,8.5L6.9,10.3L6.9,10.3z M7.9,11C8,11,8,10.9,8,10.8V9.6h0.5
	c0.1,0,0.2-0.1,0.2-0.2c0-0.1-0.1-0.2-0.2-0.2H8V8.1h0.5c0.1,0,0.2-0.1,0.2-0.2S8.6,7.7,8.5,7.7H7.9c-0.1,0-0.2,0.1-0.2,0.2v2.9
	C7.7,10.9,7.8,11,7.9,11z"/>
</svg>
