<svg class="cf-icon-svg" aria-label="pdf" version="1.1" viewBox="0 0 10.2 16">
<path d="M2.4,6.9C2.2,6.9,2.1,7,2.1,7.2V11c0,0.1,0.1,0.2,0.2,0.2c0.1,0,0.2-0.1,0.2-0.2V9.3h0.7c0.3,0,0.5-0.2,0.5-0.5V7.5
	c0-0.3-0.2-0.6-0.5-0.6H2.4z M3.3,8.8C3.3,8.8,3.3,8.9,3.3,8.8L2.6,8.9V7.4h0.7c0,0,0.1,0,0.1,0.1L3.3,8.8L3.3,8.8z M6.7,11
	c0,0.1,0.1,0.2,0.2,0.2c0.1,0,0.3-0.1,0.3-0.2V9.3h0.7c0.1,0,0.2-0.1,0.2-0.2C8.1,9,8,8.8,7.9,8.8H7.1V7.4h0.7C7.9,7.4,8,7.3,8,7.2
	C8.1,7,8,6.9,7.9,6.9h-1C6.8,6.9,6.7,7,6.7,7.2V11z M4.5,6.9C4.4,6.9,4.3,7,4.3,7.2V11c0,0.1,0.1,0.2,0.2,0.2h0.9
	c0.5,0,0.8-0.4,0.8-1V7.9c0-0.5-0.4-1-0.8-1H4.5z M5.7,10.3c0,0.3-0.2,0.5-0.4,0.5H4.8V7.4h0.6c0.2,0,0.4,0.2,0.4,0.5v2.4H5.7z
	 M10.1,5c0,0,0,0-2.8-2.8C7.2,2.1,7,2,6.8,2H0.6C0.3,2,0,2.3,0,2.6v11.8C0,14.7,0.3,15,0.6,15h9.1c0.3,0,0.6-0.3,0.6-0.6v-9
	C10.2,5.2,10.2,5.1,10.1,5L10.1,5z M1.2,13.8V3.2h5.1v2.2C6.3,5.7,6.5,6,6.8,6H9v7.8H1.2L1.2,13.8z"/>
</svg>
