<svg class="cf-icon-svg" aria-label="phone" version="1.1" viewBox="0 0 13 16">
<path d="M6.5,2C2.9,2,0,4.9,0,8.5S2.9,15,6.5,15S13,12.1,13,8.5S10.1,2,6.5,2L6.5,2z M3.2,11.1l2.1-1.2l0.2,0.3l-2.1,1.2L3.2,11.1z
	 M7.7,7.6C7.5,7.4,7.5,7.2,7.5,6.9C7,7.1,6.5,7.4,5.9,7.7c-0.5,0.3-1,0.7-1.4,1C4.7,8.8,4.9,8.9,5,9.2c0.1,0.1,0.1,0.2,0.1,0.3
	L3,10.7c-0.1-0.1-0.2-0.2-0.2-0.3c-0.2-0.2-0.3-0.5-0.2-0.7c0.1-0.9,1.1-1.9,2.8-2.9l0,0c1.7-1,3.2-1.3,4-0.9C9.6,6,9.8,6.2,9.9,6.4
	C10,6.4,10,6.5,10,6.6L7.9,7.9C7.8,7.8,7.7,7.7,7.7,7.6L7.7,7.6z M8.1,8.2L10.2,7l0.2,0.3L8.3,8.6L8.1,8.2z"/>
</svg>
