<svg class="cf-icon-svg" aria-label="phone" version="1.1" viewBox="0 0 13 16">
<path d="M1.4,13.6l3.5-2L4.6,11l-3.5,2L1.4,13.6z M12.1,5.2c-0.2-0.4-0.5-0.7-0.9-0.9C9.9,3.6,7.5,4.2,4.7,5.8H4.6
	C1.8,7.5,0.1,9.3,0,10.7c0,0.5,0.1,0.9,0.3,1.3l0,0c0.1,0.2,0.2,0.3,0.3,0.4l3.6-2.1c0-0.1-0.1-0.3-0.2-0.5C3.8,9.5,3.5,9.2,3.2,9
	c0.7-0.6,1.5-1.1,2.4-1.6s1.7-0.9,2.5-1.2c0,0.4,0.1,0.8,0.3,1.1c0.1,0.2,0.2,0.3,0.3,0.4l3.6-2.1C12.3,5.5,12.2,5.3,12.1,5.2
	L12.1,5.2z M9.2,8.3l0.3,0.5l3.5-2l-0.3-0.5L9.2,8.3z"/>
</svg>
