<svg class="cf-icon-svg" aria-label="prepaid cards" version="1.1" viewBox="0 0 13 16">
<path d="M6.5,2C2.9,2,0,4.9,0,8.5S2.9,15,6.5,15S13,12.1,13,8.5S10.1,2,6.5,2L6.5,2z M6.4,9.9V9.5H3v0.3L6.4,9.9L6.4,9.9z M9.9,9.3
	c-0.1,0-0.4,0-0.4-0.2c0-0.1-0.1-0.2-0.2-0.2C9.1,8.8,9,8.9,9,9.1c0,0.4,0.3,0.6,0.6,0.7V10c0,0.1,0.1,0.3,0.3,0.3
	c0.1,0,0.2-0.1,0.2-0.2V9.8c0.4-0.1,0.7-0.4,0.7-0.7c0-0.2-0.1-0.3-0.2-0.5c-0.2-0.2-0.4-0.3-0.7-0.3c-0.2,0-0.4-0.1-0.4-0.2
	s0.2-0.2,0.4-0.2c0.1,0,0.4,0.1,0.4,0.2s0.1,0.2,0.2,0.2c0.1,0,0.2-0.1,0.2-0.2c0-0.4-0.3-0.6-0.6-0.7V7.1c0-0.1-0.1-0.2-0.2-0.2
	S9.7,7,9.7,7.1v0.3C9.3,7.5,9.1,7.8,9.1,8.1c0,0.2,0.1,0.3,0.2,0.5C9.4,8.7,9.7,8.8,10,8.8c0.1,0,0.4,0.1,0.4,0.2
	C10.3,9.2,10.2,9.3,9.9,9.3L9.9,9.3z M8.1,6.2C7.7,6.5,7.5,6.8,7.3,7.1H1.8V6.8c0-0.3,0.3-0.6,0.5-0.6C2.3,6.2,8.1,6.2,8.1,6.2z
	 M6.9,8.1C6.7,9.2,7.3,10.3,8.1,11H2.4c-0.3,0-0.6-0.3-0.6-0.6V8.1H6.9L6.9,8.1z M10,6.2c1.3,0,2.4,1.1,2.4,2.4
	c0,1.3-1.1,2.4-2.4,2.4c-1.4,0-2.4-1.1-2.4-2.4S8.6,6.2,10,6.2z"/>
</svg>
