<svg class="cf-icon-svg" aria-label="prepaid cards" version="1.1" viewBox="0 0 13 16">
<path d="M0.7,5C0.3,5,0,5.3,0,5.7v0.4h6.8C7,5.7,7.3,5.3,7.7,5H0.7z M6.4,7.3H0v2.9c0,0.4,0.3,0.7,0.7,0.7h7.1
	C6.7,10.1,6.1,8.7,6.4,7.3L6.4,7.3z M1.5,9.6V9.1h4.2v0.4H1.5V9.6z M10.1,5c-1.7,0-3,1.3-3,2.9s1.3,3,2.9,3s2.9-1.3,2.9-3
	C13,6.3,11.7,5,10.1,5L10.1,5z M10.1,8.8c0.3,0,0.5-0.2,0.5-0.3c0-0.2-0.3-0.3-0.5-0.3c-0.3,0-0.7-0.1-0.9-0.3C9.1,7.8,9,7.6,9,7.3
	c0-0.4,0.3-0.8,0.8-0.9V6.1c0-0.2,0.1-0.3,0.3-0.3s0.3,0.1,0.3,0.3v0.3c0.4,0.1,0.8,0.4,0.8,0.9c0,0.2-0.1,0.3-0.3,0.3
	s-0.3-0.1-0.3-0.3S10.3,7,10.1,7C9.8,7,9.6,7.1,9.6,7.3s0.3,0.3,0.5,0.3c0.3,0,0.6,0.1,0.9,0.3c0.2,0.2,0.2,0.4,0.2,0.6
	c0,0.4-0.3,0.8-0.8,0.9v0.4c0,0.2-0.1,0.3-0.3,0.3S9.8,10,9.8,9.8V9.4C9.4,9.3,9,9,9,8.5c0-0.2,0.1-0.3,0.3-0.3s0.3,0.1,0.3,0.3
	C9.6,8.8,9.9,8.8,10.1,8.8z"/>
</svg>
