<svg class="cf-icon-svg" aria-label="print" version="1.1" viewBox="0 0 13 16">
<path d="M11.4,6.6V5.4c0-0.2-0.1-0.3-0.2-0.4L8.4,2.2C8.3,2.1,8.2,2,8,2H2.2C1.9,2,1.7,2.3,1.7,2.6v4H0.6C0.3,6.6,0,6.9,0,7.2v5.3
	c0,0.3,0.3,0.6,0.6,0.6h1.1v1.2c0,0.3,0.3,0.6,0.6,0.6h8.6c0.3,0,0.6-0.3,0.6-0.6v-1.2h1.1c0.3,0,0.6-0.3,0.6-0.6V7.2
	c0-0.3-0.2-0.6-0.6-0.6C12.4,6.6,11.4,6.6,11.4,6.6z M2.8,13.7V9.9h7.4v3.7L2.8,13.7L2.8,13.7z M2.8,6.6V3.2h4.6v2.2
	C7.4,5.7,7.7,6,8,6h2.2v0.7L2.8,6.6L2.8,6.6z M11.4,8.8c-0.3,0-0.6-0.3-0.6-0.6c0-0.3,0.3-0.6,0.6-0.6S12,7.9,12,8.2
	C12,8.6,11.7,8.8,11.4,8.8L11.4,8.8z M3.7,10.6v0.9h5.6v-0.9H3.7z M3.7,12v0.9h5.6V12H3.7z"/>
</svg>
