<svg class="cf-icon-svg" aria-label="print" version="1.1" viewBox="0 0 13 16">
<path d="M9.8,7.8C9.6,7.8,9.5,8,9.5,8.2s0.1,0.3,0.3,0.3s0.3-0.1,0.3-0.3S10,7.8,9.8,7.8L9.8,7.8z M6.5,2C2.9,2,0,4.9,0,8.5
	S2.9,15,6.5,15S13,12.1,13,8.5S10.1,2,6.5,2L6.5,2z M8.7,5.8H7.3V4.4L8.7,5.8z M6.7,4.1v2c0,0.2,0.1,0.3,0.3,0.3h2v0.4H3.9V4.1H6.7z
	 M9.1,12.4H4v-3h5.2C9.1,9.4,9.1,12.4,9.1,12.4z M10.4,11c0,0.2-0.1,0.3-0.3,0.3H9.8V9.4c0-0.4-0.3-0.7-0.6-0.7H4
	C3.6,8.7,3.3,9,3.3,9.4v1.9H3c-0.2,0-0.4-0.2-0.4-0.3V7.7c0-0.2,0.1-0.3,0.3-0.3H10c0.2,0,0.3,0.1,0.3,0.3L10.4,11L10.4,11z
	 M4.8,10.1v0.5h3.4v-0.5H4.8z M4.8,11v0.5h3.4V11H4.8z"/>
</svg>
