<svg class="cf-icon-svg" aria-label="quick cash" version="1.1" viewBox="0 0 13 16">
<path d="M6.5,2C2.9,2,0,4.9,0,8.5S2.9,15,6.5,15S13,12.1,13,8.5S10.1,2,6.5,2L6.5,2z M6.5,12.4c-2,0-3.6-1.6-3.6-3.5
	C3,7,4.4,5.5,6.2,5.4V4.6H5.9c-0.2,0-0.3-0.1-0.3-0.3C5.6,4.1,5.7,4,5.9,4h1.3c0.2,0,0.3,0.1,0.3,0.3c0,0.2-0.1,0.3-0.3,0.3H6.8v0.8
	c0.7,0.1,1.3,0.3,1.8,0.7L9,5.7c0.2-0.2,0.5-0.2,0.7,0s0.2,0.5,0,0.7L9.3,6.7C9.8,7.3,10,8.1,10,8.9C10.1,10.8,8.5,12.4,6.5,12.4
	L6.5,12.4z M6.5,6C5,6,3.7,7.3,3.7,8.9s1.3,2.8,2.8,2.8c1.6,0,2.8-1.3,2.8-2.8S8.1,6,6.5,6L6.5,6z M6.1,8.4c0.1,0.1,0.2,0.1,0.4,0.1
	c0.3,0,0.6,0.1,0.8,0.3C7.4,9,7.5,9.2,7.5,9.4c0,0.4-0.3,0.7-0.8,0.8v0.3c0,0.2-0.1,0.3-0.3,0.3c-0.2,0-0.3-0.1-0.3-0.3v-0.3
	c-0.1,0-0.3-0.1-0.4-0.3C5.5,9.8,5.5,9.6,5.5,9.4c0-0.2,0.1-0.3,0.3-0.3C5.9,9.1,6,9.3,6,9.4c0,0.1,0,0.1,0.1,0.1
	c0.1,0.1,0.2,0.1,0.4,0.1C6.8,9.6,7,9.4,7,9.3c0-0.1,0-0.1-0.1-0.1S6.6,9.1,6.5,9.1C6.2,9.1,5.9,9,5.7,8.8C5.5,8.6,5.5,8.5,5.5,8.3
	c0-0.4,0.3-0.7,0.7-0.8V7.2c0-0.2,0.1-0.3,0.3-0.3S6.8,7,6.8,7.2v0.3c0.2,0,0.3,0.1,0.4,0.2c0.2,0.2,0.3,0.4,0.3,0.6
	c0,0.2-0.1,0.3-0.3,0.3C7,8.6,6.9,8.5,6.9,8.3c0-0.1-0.1-0.1-0.1-0.2c0,0-0.2-0.1-0.3-0.1C6.2,8,6,8.2,6.1,8.4
	C6,8.4,6.1,8.4,6.1,8.4z"/>
</svg>
