<svg class="cf-icon-svg" aria-label="quick cash" version="1.1" viewBox="0 0 10.8 16">
<path d="M10.4,5.7c0.3-0.3,0.3-0.7,0-1c-0.3-0.3-0.7-0.3-1,0L8.7,5.3c-0.8-0.6-1.8-1-2.8-1.1V3h0.5c0.3,0,0.4-0.2,0.4-0.5
	S6.7,2,6.4,2H4.5C4.2,2,4,2.2,4,2.5S4.2,3,4.5,3H5v1.2C2.2,4.4,0,6.8,0,9.6c0,3,2.4,5.4,5.4,5.4s5.4-2.4,5.4-5.4
	c0-1.2-0.4-2.4-1.1-3.3L10.4,5.7z M5.4,13.9C3,13.9,1.1,12,1.1,9.6S3,5.3,5.4,5.3s4.3,1.9,4.3,4.3C9.8,12,7.8,13.9,5.4,13.9
	L5.4,13.9z M5.4,8.3c0.2,0,0.4,0.1,0.5,0.2c0.1,0,0.2,0.1,0.2,0.3s0.2,0.4,0.4,0.4S6.9,9,6.9,8.8c0-0.3-0.2-0.7-0.5-0.9
	C6.2,7.6,6,7.6,5.8,7.5V7c0-0.2-0.2-0.4-0.4-0.4C5.1,6.6,4.9,6.8,4.9,7v0.5C4.3,7.6,3.8,8.1,3.8,8.7c0,0.3,0.1,0.6,0.4,0.8
	C4.4,9.8,4.9,10,5.4,10c0.2,0,0.4,0.1,0.6,0.2c0,0.1,0.1,0.1,0.1,0.2c0,0.2-0.3,0.4-0.7,0.4c-0.2,0-0.5-0.1-0.6-0.2
	c-0.1,0-0.1-0.1-0.1-0.2c0-0.2-0.2-0.4-0.5-0.4c-0.2,0-0.4,0.2-0.4,0.4c0,0.3,0.1,0.6,0.4,0.8c0.2,0.2,0.5,0.3,0.8,0.4v0.5
	c0,0.2,0.2,0.4,0.4,0.4c0.2,0,0.4-0.2,0.4-0.4v-0.5c0.6-0.1,1.1-0.6,1.1-1.2c0-0.3-0.1-0.6-0.3-0.8C6.3,9.3,5.8,9.1,5.4,9.1
	C5.2,9.1,4.9,9,4.8,8.9c-0.1,0-0.2-0.1-0.2-0.2C4.7,8.5,4.9,8.3,5.4,8.3z"/>
</svg>
