<svg class="cf-icon-svg" aria-label="retirement" version="1.1" viewBox="0 0 13 16">
<path d="M6.5,2C2.9,2,0,4.9,0,8.5S2.9,15,6.5,15S13,12.1,13,8.5S10.1,2,6.5,2L6.5,2z M4.2,8.7l0.3-0.5l0,0v0.5H4.2z M5.6,8.6
	c0-0.2,0.1-0.4,0.2-0.4C5.9,8.1,6,8.3,6,8.6C6,8.9,5.9,9,5.8,9C5.6,9,5.6,8.8,5.6,8.6L5.6,8.6z M7.2,9.3V7.9H6.9L6.4,8.2l0.2,0.2
	l0.3-0.2v1C6.9,9.3,7.2,9.3,7.2,9.3z M5.1,9V8.7H4.9V7.9H4.5L3.9,8.7V9h0.7v0.3h0.3V9H5.1z M8.4,9.3h0.4L8.2,8.5l0.6-0.6H8.4
	L7.9,8.5V7.9H7.5v1.4h0.3V8.6L8.4,9.3z M7.3,6.5c0.1,0,0.3,0,0.3-0.2c0-0.1,0-0.2-0.2-0.3C7,5.9,6.6,5.8,6.3,5.8
	C6,5.8,5.6,5.9,5.1,6C5,6.1,4.9,6.2,5,6.3c0,0.2,0.2,0.2,0.3,0.2c0.4-0.1,0.7-0.2,1-0.2C6.6,6.3,6.9,6.3,7.3,6.5L7.3,6.5z M5.2,8.6
	c0,0.4,0.2,0.7,0.5,0.7c0.4,0,0.5-0.3,0.5-0.7c0-0.5-0.1-0.7-0.5-0.7C5.5,7.8,5.2,8.1,5.2,8.6L5.2,8.6z M10.7,9.2
	c0,0.2-0.1,0.3-0.4,0.3H9.6c-0.2,0.5-0.5,0.9-0.9,1.3l-0.1,1.4H7.5l-0.1-0.8c-0.4,0.2-0.7,0.2-1.1,0.2c-0.4,0-0.7,0-1.1-0.1
	l-0.1,0.7h-1l-0.2-1.4c-0.5-0.5-0.9-1-1-1.7c-0.3,0-0.6-0.3-0.6-0.6c0-0.3,0.3-0.6,0.6-0.6c0.3-1.4,1.7-2.5,3.5-2.5
	C7,5.4,7.5,5.5,8,5.7c0,0,1.4-1,1.6-0.8c0.3,0.1-1,0.7-0.2,2c0.1,0.2,0.2,0.4,0.3,0.5h0.7c0.2,0,0.3,0.2,0.3,0.4L10.7,9.2z"/>
</svg>
