<svg class="cf-icon-svg" aria-label="retirement" version="1.1" viewBox="0 0 13 16">
<path d="M3.6,9V8.2l0,0L3,9H3.6z M13,7.5C13,7.2,12.8,7,12.5,7h-1.1c-0.1-0.3-0.3-0.5-0.5-0.8c-1.1-2,0.8-2.9,0.3-3.1
	c-0.4-0.2-2.5,1.3-2.5,1.3C7.9,4,7.1,3.8,6.2,3.8c-2.6,0-4.8,1.7-5.3,3.9C0.4,7.7,0,8.1,0,8.6s0.4,0.9,0.9,0.9
	c0.2,1,0.8,1.9,1.6,2.6l0.2,2.1h1.7l0.1-1.1c0.5,0.1,1.1,0.2,1.6,0.2s1.1-0.1,1.6-0.2L8,14.3h1.8l0.1-2.2c0.6-0.5,1.1-1.2,1.4-1.9
	h1.1c0.3,0,0.5-0.2,0.5-0.5L13,7.5L13,7.5z M4,9.4v0.4H3.6V9.4h-1V9l0.9-1.3H4V9h0.3v0.4H4z M7,9.8V8.2L6.6,8.6L6.4,8.2l0.7-0.5h0.4
	v2.1C7.6,9.8,7,9.8,7,9.8z M7.8,5.5C7.2,5.3,6.7,5.2,6.2,5.2s-1,0.1-1.6,0.3c-0.2,0.1-0.4,0-0.5-0.2C4,5.1,4.1,4.9,4.3,4.8
	C5,4.6,5.6,4.4,6.1,4.4s1.1,0.1,1.8,0.4c0.2,0.1,0.3,0.3,0.2,0.5C8.2,5.5,8,5.6,7.8,5.5L7.8,5.5z M8.6,8.8v1H8.1V7.7h0.5v0.9
	l0.8-0.9H10L9,8.6l1,1.2H9.4L8.6,8.8z M5.1,8.7c0,0.4,0.1,0.7,0.3,0.7c0.2,0,0.3-0.3,0.3-0.7C5.7,8.4,5.6,8,5.4,8
	C5.2,8,5.1,8.4,5.1,8.7L5.1,8.7z M4.6,8.7c0-0.8,0.3-1.1,0.8-1.1C6,7.6,6.2,8,6.2,8.7S6,9.8,5.4,9.8C4.9,9.9,4.6,9.4,4.6,8.7z"/>
</svg>
