<svg class="cf-icon-svg" aria-label="save" version="1.1" viewBox="0 0 13 16">
<path d="M0.5,2C0.2,2,0,2.2,0,2.5v10.6c0,0.1,0,0.3,0.1,0.4l1.3,1.3C1.6,14.9,1.7,15,1.8,15h10.6c0.3,0,0.5-0.2,0.5-0.5v-12
	C13,2.2,12.7,2,12.4,2H0.5z M10.1,13.9c0,0.3-0.2,0.5-0.4,0.5H3.3c-0.2,0-0.4-0.2-0.4-0.5v-3.7c0-0.3,0.2-0.5,0.4-0.5h6.3
	c0.2,0,0.4,0.3,0.4,0.5v3.7H10.1z M10.6,7c0,0.3-0.2,0.5-0.5,0.5H2.9C2.6,7.5,2.4,7.3,2.4,7V3.5C2.4,3.2,2.6,3,2.9,3h7.2
	c0.3,0,0.5,0.2,0.5,0.5V7z M5.4,13.3v-2.4H4v2.4L5.4,13.3L5.4,13.3z"/>
</svg>
