<svg class="cf-icon-svg" aria-label="save" version="1.1" viewBox="0 0 13 16">
<path d="M4.7,9.2c-0.1,0-0.2,0.1-0.2,0.3v2c0,0.2,0.1,0.3,0.2,0.3h3.5c0.1,0,0.2-0.1,0.2-0.3V9.4c0-0.2-0.1-0.3-0.2-0.3L4.7,9.2
	L4.7,9.2z M5.2,11.1V9.8h0.7v1.3H5.2z M4.5,5.5c-0.2,0-0.3,0.1-0.3,0.3v1.9C4.2,7.8,4.4,8,4.5,8h3.9c0.2,0,0.3-0.1,0.3-0.3V5.8
	c0-0.2-0.1-0.3-0.3-0.3H4.5z M6.5,2C2.9,2,0,4.9,0,8.5S2.9,15,6.5,15S13,12.1,13,8.5S10.1,2,6.5,2L6.5,2z M10.1,11.8
	c0,0.2-0.1,0.3-0.3,0.3H3.9c-0.1,0-0.2,0-0.2-0.1L3,11.3c-0.1-0.1-0.1-0.2-0.1-0.2V5.2C2.9,5,3,4.9,3.2,4.9h6.6
	c0.2,0,0.3,0.1,0.3,0.3V11.8z"/>
</svg>
