<svg class="cf-icon-svg" aria-label="settings" version="1.1" viewBox="0 0 13 16">
<path d="M11.2,7c-0.1-0.3-0.2-0.5-0.3-0.8c0.3-0.4,0.6-0.8,0.9-1.2c0.1-0.1,0.1-0.2,0-0.4c-0.3-0.5-0.9-1-1.4-1.4
	c-0.1-0.1-0.3-0.1-0.4,0L8.7,4.1C8.5,4,8.2,3.9,8,3.8L7.7,2.3C7.7,2.1,7.6,2,7.4,2H5.6C5.4,2,5.3,2.1,5.2,2.2C5.1,2.7,5.1,3.3,5,3.8
	C4.8,3.9,4.5,4,4.3,4.1L3.1,3.2C3,3.2,2.9,3.1,2.9,3.1c-0.3,0-1.4,1.3-1.6,1.5C1.1,4.8,1.1,4.9,1.2,5c0.3,0.4,0.6,0.8,0.9,1.2
	C2,6.5,1.9,6.7,1.8,7L0.2,7.2C0.1,7.3,0,7.4,0,7.6v1.9c0,0.1,0.1,0.3,0.2,0.3L1.8,10c0,0.2,0.2,0.5,0.3,0.8
	c-0.3,0.4-0.6,0.7-0.9,1.2c-0.1,0.1-0.1,0.3,0,0.4c0.4,0.5,0.9,1,1.4,1.4c0.1,0.1,0.3,0.1,0.4,0l1.2-0.9C4.5,13,4.8,13.1,5,13.2
	l0.2,1.5c0,0.1,0.1,0.3,0.3,0.3h1.9c0.2,0,0.3-0.1,0.3-0.2c0.1-0.5,0.2-1.1,0.2-1.5c0.3-0.1,0.5-0.2,0.8-0.3l1.2,0.9
	C10,14,10.1,14,10.1,14c0.3,0,1.4-1.3,1.6-1.5c0.1-0.1,0.1-0.2,0-0.4c-0.3-0.4-0.6-0.8-0.9-1.2c0.2-0.4,0.3-0.6,0.4-0.9l1.5-0.2
	c0.1,0,0.2-0.2,0.2-0.3V7.6c0-0.1-0.1-0.3-0.2-0.3L11.2,7z M6.5,10.7c-1.2,0-2.2-1-2.2-2.2s1-2.2,2.2-2.2s2.2,1,2.2,2.2
	S7.7,10.7,6.5,10.7z"/>
</svg>
