<svg class="cf-icon-svg" aria-label="settings" version="1.1" viewBox="0 0 13 16">
<path d="M6.5,2C2.9,2,0,4.9,0,8.5S2.9,15,6.5,15S13,12.1,13,8.5S10.1,2,6.5,2L6.5,2z M6.5,9.9c0.8,0,1.4-0.6,1.4-1.4
	S7.3,7.1,6.5,7.1S5.1,7.7,5.1,8.5S5.7,9.9,6.5,9.9L6.5,9.9z M10.6,7.7c0.1,0,0.2,0.1,0.2,0.2v1.2c0,0.1-0.1,0.2-0.2,0.2l-1,0.2
	C9.5,9.7,9.4,9.8,9.4,10c0.2,0.3,0.4,0.5,0.6,0.8c0,0.1,0,0.1,0,0.2c-0.1,0.2-0.9,1-1.1,1c-0.1,0-0.1,0-0.2-0.1L8,11.3
	c-0.2,0.1-0.4,0.2-0.5,0.3c0,0.3-0.1,0.7-0.2,1c0,0.1-0.1,0.2-0.2,0.2H5.9c-0.1,0-0.2-0.1-0.2-0.2l-0.1-1c-0.2-0.1-0.4-0.2-0.5-0.2
	l-0.8,0.5C4.2,12,4.1,12,4,11.9c-0.3-0.3-0.7-0.6-0.9-0.9c-0.1-0.1-0.1-0.2,0-0.3c0.2-0.2,0.4-0.5,0.6-0.7C3.6,9.8,3.5,9.6,3.5,9.5
	l-1-0.2c-0.1,0-0.2-0.1-0.2-0.2V7.9c0-0.1,0.1-0.2,0.2-0.2l1-0.2c0-0.2,0.1-0.3,0.2-0.5C3.5,6.7,3.3,6.5,3.1,6.2C3,6.1,3,6.1,3.1,6
	C3.2,5.8,4,5,4.2,5c0,0,0.1,0,0.2,0.1l0.8,0.6c0.2-0.1,0.3-0.2,0.5-0.2c0-0.3,0.1-0.7,0.2-1c0-0.1,0.1-0.2,0.2-0.2h1.2
	c0.1,0,0.2,0.1,0.2,0.2l0.2,1c0,0,0.1,0,0.3,0.1L8.8,5C8.9,5,9,5,9,5c0.3,0.3,0.7,0.7,1,1c0,0.1,0,0.1,0,0.2C9.8,6.5,9.6,6.7,9.4,7
	c0.1,0.2,0.2,0.4,0.2,0.5L10.6,7.7z"/>
</svg>
