<svg class="cf-icon-svg" aria-label="share" version="1.1" viewBox="0 0 13 16">
<path d="M6.5,2C2.9,2,0,4.9,0,8.5S2.9,15,6.5,15S13,12.1,13,8.5S10.1,2,6.5,2L6.5,2z M5.5,8.5c0,0.1,0,0.2,0,0.3l1.8,1.1
	C7.5,9.7,7.7,9.6,8,9.6c0.5,0,1,0.5,1,1.1c0,0.6-0.5,1.1-1.1,1.1s-1.1-0.5-1.1-1.1c0-0.1,0-0.2,0-0.3L5.1,9.3
	C4.9,9.5,4.7,9.6,4.4,9.6c-0.6,0-1.1-0.5-1.1-1.1s0.5-1.1,1.1-1.1c0.3,0,0.5,0.1,0.7,0.3l1.8-1.1c0-0.1,0-0.2,0-0.3
	c0-0.6,0.5-1.1,1.1-1.1c0.5,0,1,0.5,1,1.1S8.5,7.4,7.9,7.4c-0.3,0-0.5-0.1-0.7-0.3L5.5,8.2C5.5,8.3,5.5,8.4,5.5,8.5z"/>
</svg>
