<svg class="cf-icon-svg" aria-label="speech bubble" version="1.1" viewBox="0 0 13 16">
<path d="M6.5,2C2.9,2,0,4.9,0,8.5S2.9,15,6.5,15S13,12.1,13,8.5S10.1,2,6.5,2L6.5,2z M10.1,10.7c0,0.1-0.1,0.2-0.2,0.2H8.3v1.3
	L7,10.9H3.1c-0.1,0-0.2-0.1-0.2-0.2V6c0-0.1,0.1-0.2,0.2-0.2h6.8c0.1,0,0.2,0.1,0.2,0.2V10.7z M8.9,7.1H4.1C4,7.1,3.8,7.2,3.8,7.4
	S4,7.7,4.1,7.7h4.7c0.2,0,0.3-0.1,0.3-0.3C9.2,7.2,9,7.1,8.9,7.1L8.9,7.1z M8.9,9H4.1C4,9,3.8,9.1,3.8,9.3S4,9.6,4.1,9.6h4.7
	c0.2,0,0.3-0.1,0.3-0.3C9.2,9.1,9,9,8.9,9z"/>
</svg>
