<svg class="cf-icon-svg" aria-label="speech bubble" version="1.1" viewBox="0 0 13 16">
<path d="M11.7,2H1.4C0.6,2,0,2.6,0,3.4v7.1c0,0.7,0.6,1.3,1.4,1.3h5.5L9.1,14c0.2,0.2,0.4,0.2,0.5,0.2c0.3,0,0.6-0.2,0.6-0.7v-1.8
	h1.4c0.8,0,1.4-0.6,1.4-1.3v-7C13,2.6,12.4,2,11.7,2L11.7,2z M12,10.4c0,0.2-0.1,0.3-0.3,0.3H9.2v1.9l-2-1.9H1.4
	C1.2,10.8,1,10.6,1,10.4v-7C1,3.2,1.2,3,1.4,3h10.3C11.8,3,12,3.2,12,3.4V10.4z M10.1,5H2.9C2.7,5,2.4,5.2,2.4,5.5S2.7,6,2.9,6H10
	c0.3,0,0.5-0.2,0.5-0.5C10.6,5.2,10.4,5,10.1,5L10.1,5z M10.1,7.8H2.9C2.6,7.8,2.4,8,2.4,8.3s0.2,0.5,0.5,0.5H10
	c0.3,0,0.5-0.2,0.5-0.5C10.6,8.1,10.4,7.8,10.1,7.8z"/>
</svg>
