<svg class="cf-icon-svg" version="1.1" viewBox="0 0 1000 1200">
	<path d="M499.4,385.6c-134.6,0-243.7,109.1-243.7,243.7S364.8,873,499.4,873,743.1,763.9,743.1,629.3,634,385.6,499.4,385.6Zm144,387.7a203.52,203.52,0,1,1,59.7-144A202.27,202.27,0,0,1,643.4,773.3Z"/><path d="M462.9,569.2c7.5-4.7,18.4-7.6,28.6-7.6,2.1,0,5.9.8,10,1.7l1.3.3a65.19,65.19,0,0,1,12.3,4.3,34.7,34.7,0,0,1,9.4,6.4c2.6,2.6,4.5,6.8,4.5,9.9a25,25,0,1,0,50,0c0-16.3-7.1-33.2-19.2-45.2a83.52,83.52,0,0,0-24.3-16.7,107.4,107.4,0,0,0-19.8-7V496.4a25,25,0,1,0-50,0v18.3A99.52,99.52,0,0,0,436,527c-21.2,13.4-33.3,34-33.3,56.7a66.16,66.16,0,0,0,15.2,41.5,78.43,78.43,0,0,0,25.6,20.5,97.89,97.89,0,0,0,26.8,8.7,124.81,124.81,0,0,0,20.7,1.7,54.85,54.85,0,0,1,11.8,1.2,47.9,47.9,0,0,1,11.9,4.3,36.16,36.16,0,0,1,9.5,7.7,14.94,14.94,0,0,1,3.7,9.8c0,2.3,0,7.1-9,12.9-7.6,4.9-19,8.1-29.2,8.1-3.9,0-10.7-1.2-13-1.6a66,66,0,0,1-11.9-3.9,23.4,23.4,0,0,1-8.5-6.6c-1.9-2.2-4.2-5.5-4.2-8.9v-2.3a25,25,0,0,0-50,0v2.3c0,14.9,5.7,29.3,16.4,41.7,8.1,9.4,17.4,16.2,27.7,20.3a113.2,113.2,0,0,0,19.4,6.2V766a25,25,0,1,0,50,0V747a99.14,99.14,0,0,0,30.5-12.9c26.3-17.1,31.8-39.3,31.8-54.9a65,65,0,0,0-16.1-42.7,85.32,85.32,0,0,0-23.9-19,101.58,101.58,0,0,0-24.6-8.9,110,110,0,0,0-22.5-2.3,70.36,70.36,0,0,1-12.5-1,44.35,44.35,0,0,1-12.6-4.1,28,28,0,0,1-9.1-7.3,16.79,16.79,0,0,1-4-10C452.9,578.2,456.3,573.4,462.9,569.2Z"/><path d="M500,102.9c-276.1,0-500,223.9-500,500s223.9,500,500,500,500-223.9,500-500S776.1,102.9,500,102.9ZM499.4,920c-160.5,0-290.7-130.1-290.7-290.7,0-152.1,116.8-276.9,265.7-289.6v-38l-20.3.1H454a25,25,0,0,1-.1-50l90.7-.3h.1a25,25,0,0,1,.1,50l-20.4.1v38.2a289,289,0,0,1,159.7,65.1l28.2-28.2a25,25,0,1,1,35.4,35.4l-27.8,27.8a289.45,289.45,0,0,1,70.2,189.5C790.1,789.8,659.9,920,499.4,920Z"/>
</svg>
