<svg class="cf-icon-svg" version="1.1" viewBox="0 0 1000 1200">
	<path d="M773.4,620.2a296.91,296.91,0,0,0-546.8,0,296.8,296.8,0,0,0,546.8,231,297.92,297.92,0,0,0,0-231Zm-342,71.4a50.45,50.45,0,0,0,16.5,13.2,73.72,73.72,0,0,0,21,6.7,119.68,119.68,0,0,0,19.5,1.5,137.91,137.91,0,0,1,29.7,3.1,131.75,131.75,0,0,1,32.4,11.7,111.17,111.17,0,0,1,31,24.7,81.71,81.71,0,0,1,20.2,53.8c0,28.1-14,52-40.5,69.2-13.7,8.9-30.7,15.3-48.3,18.7v35.7a25,25,0,0,1-50,0V894.4c-1.7-.3-3.5-.6-5.1-.9-11.1-1.9-20.8-5.6-29.1-8.9-13.1-5.2-25-13.9-35.4-26-13.6-15.6-20.7-33.7-20.7-52.4V803a25,25,0,0,1,50,0v3.2c0,8.1,4.6,15.1,8.5,19.6,5.1,5.9,10.6,10.1,16.2,12.3,6.2,2.5,12.7,5,19.1,6.1,3.8.7,13.8,2.4,20.3,2.4,16.7,0,34.8-5,47.3-13.2,15.7-10.2,17.7-19.9,17.7-27.3a32.52,32.52,0,0,0-7.9-20.9,59.71,59.71,0,0,0-16.6-13.3,78.15,78.15,0,0,0-19.7-7.1,90.32,90.32,0,0,0-19.1-1.9,163.67,163.67,0,0,1-27.7-2.2,127.61,127.61,0,0,1-35.1-11.3A100.28,100.28,0,0,1,392.7,723c-12.4-15.2-19.3-33.9-19.3-52.4,0-28.5,15.5-54.7,42.4-71.7,13.6-8.6,30-14.7,47.2-17.8V546.5a25,25,0,0,1,50,0V582c1,.2,2,.4,3,.7l1.9.4a147.6,147.6,0,0,1,29.5,10.1,106.61,106.61,0,0,1,31.4,21.6C594,630,603,651.2,603,671.7a25,25,0,0,1-50,0c0-7.2-3.8-15.8-9.5-21.5A55.65,55.65,0,0,0,527,638.9a98,98,0,0,0-19.6-6.8l-1.9-.4c-6.7-1.5-12.4-2.7-16.5-2.7-16.6,0-34,4.7-46.4,12.5-15.8,10-19.1,21.5-19.1,29.4C423.3,677.6,426.3,685.4,431.4,691.6Z"/><path d="M810,461.9l39.3-39.3a30,30,0,1,0-42.4-42.4L767.1,420A411,411,0,0,0,530,323.3V263.9l34.6-.1a30,30,0,0,0-.1-60h-.1l-129,.5a30,30,0,0,0,.1,60h.1L470,264v59.2C255.6,338.6,86.4,517.4,86.4,735.7c0,228.4,185.2,413.6,413.6,413.6S913.6,964.1,913.6,735.7A412.31,412.31,0,0,0,810,461.9ZM500,1082.4c-191.5,0-346.7-155.2-346.7-346.7S308.5,389,500,389,846.7,544.2,846.7,735.7,691.5,1082.4,500,1082.4Z"/>
</svg>
