<svg class="cf-icon-svg" aria-label="supplement" version="1.1" viewBox="0 0 13 16">
<path d="M6.5,2C2.9,2,0,4.9,0,8.5S2.9,15,6.5,15S13,12.1,13,8.5S10.1,2,6.5,2L6.5,2z M8.2,5.8H6.9V4.4L8.2,5.8z M3,4.4
	C3,4.3,3.1,4.3,3,4.4l3.2-0.1V6c0,0.2,0.1,0.3,0.3,0.3h1.8v4.6C8.4,11,8.3,11,8.2,11h-5C3.1,11,3,11,3,10.9V4.4z M9.8,12.3
	c0,0.1-0.1,0.1-0.1,0.1H4.6c-0.1,0-0.1-0.1-0.1-0.1v-0.8h4.2c0.2,0,0.3-0.1,0.3-0.3V8.7h0.8c0.1,0,0.1,0.1,0.1,0.1v3.5H9.8z M6,8.2
	v-1C6,7,5.9,6.9,5.7,6.9S5.4,7,5.4,7.2v1h-1c-0.2,0-0.3,0.1-0.3,0.3s0.1,0.3,0.3,0.3h1v1c0,0.2,0.1,0.3,0.3,0.3S6,10,6,9.8v-1h1
	c0.2,0,0.3-0.2,0.3-0.3c0-0.2-0.1-0.3-0.3-0.3H6z"/>
</svg>
