<svg class="cf-icon-svg" aria-label="supplement" version="1.1" viewBox="0 0 10.6 16">
<path d="M4.9,8.3V7.2c0-0.3-0.2-0.5-0.5-0.5S3.9,7,3.9,7.2v1.1h-1c-0.3,0-0.5,0.2-0.5,0.5c0,0.3,0.2,0.5,0.5,0.5h1v1
	c0,0.3,0.2,0.5,0.5,0.5s0.5-0.2,0.5-0.5v-1H6c0.3,0,0.5-0.2,0.5-0.5S6.3,8.3,6,8.3C6,8.3,4.9,8.3,4.9,8.3z M8.9,8.9v-4
	c0-0.1-0.1-0.3-0.2-0.4L6.3,2.2C6.2,2.1,6.1,2,5.9,2H0.5C0.2,2,0,2.2,0,2.5v10.2c0,0.3,0.2,0.5,0.5,0.5h1.3v1.3
	c0,0.3,0.3,0.5,0.5,0.5h7.8c0.3,0,0.5-0.2,0.5-0.5V9.4c0-0.3-0.2-0.5-0.5-0.5H8.9z M1,3h4.4v1.9c0,0.3,0.2,0.5,0.5,0.5h1.9v6.7H1V3z
	 M2.8,14v-0.8h5.5c0.3,0,0.5-0.2,0.5-0.5V9.9h0.8V14H2.8z"/>
</svg>
