<svg class="cf-icon-svg" aria-label="technology" version="1.1" viewBox="0 0 7.7 16">
<path d="M1.5,2C0.7,2,0,2.6,0,3.5v10.1C0,14.3,0.7,15,1.5,15h4.7c0.8,0,1.5-0.7,1.5-1.5v-10C7.7,2.6,7,2,6.2,2H1.5z M5.1,3.3
	c0.2,0,0.3,0.1,0.3,0.3c0,0.2-0.1,0.3-0.3,0.3H2.7c-0.2,0-0.3-0.1-0.3-0.3c0-0.2,0.1-0.3,0.3-0.3H5.1z M3.9,13.9
	c-0.3,0-0.6-0.3-0.6-0.6s0.3-0.6,0.6-0.6s0.6,0.3,0.6,0.6S4.2,13.9,3.9,13.9L3.9,13.9z M6.9,11.9c0,0.2-0.1,0.3-0.3,0.3H1.3
	C1.1,12.2,1,12,1,11.9V4.8c0-0.2,0.1-0.3,0.3-0.3h5.3c0.2,0,0.3,0.1,0.3,0.3L6.9,11.9L6.9,11.9z"/>
</svg>
