<svg class="cf-icon-svg" aria-label="technology" version="1.1" viewBox="0 0 13 16">
<path d="M7.3,5.7c0.1,0,0.2-0.1,0.2-0.2S7.3,5.3,7.3,5.3H5.8c-0.1,0-0.2,0.1-0.2,0.2c0,0.1,0.1,0.2,0.2,0.2H7.3z M6.5,11
	c-0.2,0-0.3,0.2-0.3,0.4s0.2,0.4,0.4,0.4c0.2,0,0.4-0.2,0.4-0.4C6.9,11.2,6.7,11,6.5,11L6.5,11z M6.5,2C2.9,2,0,4.9,0,8.5
	S2.9,15,6.5,15S13,12.1,13,8.5S10.1,2,6.5,2L6.5,2z M8.8,11.5c0,0.5-0.4,0.9-0.9,0.9H5.1c-0.5,0-0.9-0.4-0.9-0.9v-6
	c0-0.5,0.4-0.9,0.9-0.9h2.8c0.5,0,0.9,0.4,0.9,0.9L8.8,11.5L8.8,11.5z M5,6.1c-0.1,0-0.2,0.1-0.2,0.2v4.3c0,0.1,0.1,0.2,0.2,0.2h3.2
	c0.1,0,0.2-0.1,0.2-0.2V6.3c0-0.1-0.1-0.2-0.2-0.2C8.2,6.1,5,6.1,5,6.1z"/>
</svg>
