<svg class="cf-icon-svg" aria-label="unfavorite" version="1.1" viewBox="0 0 13 16">
<path d="M6.5,2C2.9,2,0,4.9,0,8.5S2.9,15,6.5,15S13,12.1,13,8.5S10.1,2,6.5,2L6.5,2z M9.6,7.8l-2-0.3c-0.1,0-0.3-0.1-0.3-0.2
	L6.5,5.6L5.6,7.3C5.5,7.4,5.4,7.5,5.3,7.6l-2,0.2l1.4,1.4c0.1,0.1,0.1,0.2,0.1,0.4l-0.2,1.9l1.8-0.9c0.1-0.1,0.3-0.1,0.4,0l1.7,0.9
	l-0.3-2c0-0.1,0-0.3,0.1-0.4L9.6,7.8z M10.7,7.7c0,0.2-0.1,0.3-0.2,0.5L9,9.7l0.4,2.2c0.1,0.5-0.5,0.8-1,0.5l-1.8-1l-1.9,1
	c-0.5,0.3-1.1-0.1-1-0.7c0,0,0,0,0.4-2.1C2.7,8.3,2.5,8.2,2.5,8.2C2.4,8.1,2.3,7.9,2.3,7.7c0-0.3,0.2-0.6,0.6-0.7L5,6.7l0.9-1.9
	C6,4.6,6.3,4.4,6.5,4.4S7,4.6,7.1,4.8L8,6.7L10.1,7C10.5,7.1,10.7,7.4,10.7,7.7z"/>
</svg>
