<svg class="cf-icon-svg" aria-label="unlock" version="1.1" viewBox="0 0 9.8 16">
<path d="M2.6,7.3L2.2,6C2,5.5,2,4.9,2.3,4.4S3,3.5,3.6,3.3c0.5-0.2,1.1-0.1,1.6,0.2s0.9,0.7,1.1,1.3C6.4,5.1,6.7,5.3,7,5.1
	C7.4,5,7.6,4.7,7.5,4.4c-0.3-0.9-0.9-1.6-1.7-2S4,1.9,3.2,2.2C2.3,2.4,1.6,3,1.2,3.8S0.7,5.6,0.9,6.4l0.3,0.9C0.5,7.6,0,8.2,0,9v4.2
	c0,1,0.8,1.7,1.7,1.7H8c0.9,0,1.7-0.8,1.7-1.7V9c0-1-0.8-1.7-1.7-1.7H2.6L2.6,7.3z M5.2,13c0,0.2-0.1,0.3-0.3,0.3
	c-0.2,0-0.4-0.1-0.4-0.3v-1.8c-0.4-0.1-0.7-0.5-0.7-1s0.5-1,1.1-1c0.5,0,1,0.5,1,1s-0.3,0.9-0.7,1V13z"/>
</svg>
