<svg class="cf-icon-svg" aria-label="unlock" version="1.1" viewBox="0 0 13 16">
<path d="M6.5,8.9c-0.4,0-0.7,0.3-0.7,0.7c0,0.3,0.2,0.5,0.4,0.6v1.1c0,0.1,0.1,0.2,0.2,0.2s0.2-0.1,0.2-0.2v-1.1
	C7,10.1,7.2,9.9,7.2,9.6C7.2,9.2,6.9,8.9,6.5,8.9L6.5,8.9z M6.5,2C2.9,2,0,4.9,0,8.5S2.9,15,6.5,15S13,12.1,13,8.5S10.1,2,6.5,2
	L6.5,2z M9.6,11.5c0,0.6-0.5,1.1-1.1,1.1h-4c-0.6,0-1.1-0.5-1.1-1.1V8.8c0-0.5,0.3-0.9,0.8-1L4,7.2C3.8,6.7,3.9,6.1,4.2,5.6
	c0.3-0.5,0.7-0.9,1.3-1.1s1.1-0.1,1.6,0.1C7.6,4.9,8,5.3,8.2,5.9c0.1,0.2-0.1,0.4-0.3,0.5s-0.4,0-0.5-0.3C7.3,5.8,7,5.5,6.7,5.4
	C6.4,5.2,6,5.1,5.6,5.3C5.3,5.4,5,5.6,4.9,5.9C4.7,6.3,4.7,6.6,4.8,7L5,7.7h3.5c0.6,0,1.1,0.5,1.1,1.1V11.5z"/>
</svg>
