<svg class="cf-icon-svg" version="1.1" viewBox="0 0 1000 1200"><defs><style>.cls-1{fill:none;stroke:#fff;stroke-linecap:round;stroke-linejoin:round;stroke-width:31.3px;}</style></defs>
<polyline class="cls-1" points="280 529.1 500.7 308.3 721.5 529.1"/><line class="cls-1" x1="500.7" y1="327.1" x2="500.7" y2="895.5"/><path d="M500,102.9c-276.1,0-500,223.9-500,500s223.9,500,500,500,500-223.9,500-500S776.1,102.9,500,102.9ZM743,570a50.22,50.22,0,0,1-70.8,0L550,447.8V879.3a50,50,0,0,1-100,0V447.8L327.8,570a50,50,0,1,1-70.7-70.7L464.7,291.7a50,50,0,0,1,70.7,0L743,499.3A50,50,0,0,1,743,570Z"/>
</svg>
