<svg class="cf-icon-svg" aria-label="update" version="1.1" viewBox="0 0 13 16">
<path d="M6.5,2C2.9,2,0,4.9,0,8.5S2.9,15,6.5,15S13,12.1,13,8.5S10.1,2,6.5,2L6.5,2z M6.2,4.5L6.2,4.5c0.4,0,0.6,0.2,0.6,0.5
	S6.6,5.5,6.3,5.5l0,0l0,0C6,5.6,5.7,5.4,5.7,5.1C5.7,4.8,5.9,4.5,6.2,4.5L6.2,4.5z M4.2,5.1L4.2,5.1C4.5,4.9,4.8,5,5,5.2
	C5.1,5.5,5,5.8,4.8,6l0,0C4.6,6.1,4.5,6.1,4.4,6.1C4.2,6.1,4.1,6,4,5.8C3.8,5.6,3.9,5.2,4.2,5.1L4.2,5.1z M2.7,6.6L2.7,6.6
	c0.2-0.3,0.5-0.4,0.8-0.2c0.3,0.2,0.3,0.5,0.2,0.7l0,0C3.4,7.4,3.1,7.5,2.9,7.3C2.6,7.2,2.5,6.9,2.7,6.6L2.7,6.6z M2.1,8.9
	c0-0.1,0-0.2,0-0.2c0-0.3,0.2-0.5,0.5-0.5s0.5,0.2,0.5,0.5c0,0,0,0.1,0,0.2c0,0.3-0.2,0.5-0.5,0.6l0,0C2.4,9.4,2.1,9.2,2.1,8.9
	L2.1,8.9z M3.5,11.1c-0.1,0-0.2,0.1-0.3,0.1c-0.2,0-0.3-0.1-0.4-0.3l-0.2-0.3C2.4,10.3,2.5,10,2.8,9.8c0.3-0.1,0.6,0,0.7,0.2
	c0,0.1,0.1,0.2,0.1,0.3C3.8,10.6,3.8,10.9,3.5,11.1L3.5,11.1z M5.1,12.1c-0.1,0.2-0.3,0.3-0.5,0.3c-0.1,0-0.2,0-0.2-0.1
	c-0.1-0.1-0.2-0.1-0.3-0.2c-0.3-0.1-0.4-0.4-0.2-0.7c0.1-0.2,0.4-0.3,0.7-0.1c0.1,0.1,0.2,0.1,0.3,0.1C5.1,11.5,5.2,11.9,5.1,12.1
	L5.1,12.1z M6.6,12.8c-0.1,0-0.2,0-0.3,0c-0.1,0-0.1,0-0.2,0c-0.3,0-0.5-0.3-0.5-0.6s0.3-0.5,0.6-0.5h0.2c0.1,0,0.2,0,0.2,0
	c0.3,0,0.6,0.2,0.6,0.5C7.1,12.5,6.9,12.8,6.6,12.8L6.6,12.8z M8.9,11.9c-0.2,0.1-0.3,0.3-0.5,0.4c-0.1,0.1-0.2,0.1-0.3,0.1
	c-0.2,0-0.4-0.1-0.5-0.3c-0.1-0.3,0-0.6,0.3-0.8c0.1-0.1,0.2-0.1,0.3-0.2c0.3-0.2,0.6-0.2,0.8,0C9.2,11.3,9.2,11.7,8.9,11.9
	L8.9,11.9z M10.3,9.7c-0.1,0.2-0.1,0.4-0.2,0.6c-0.1,0.3-0.3,0.4-0.5,0.4c-0.1,0-0.2,0-0.2,0c-0.3-0.2-0.5-0.5-0.3-0.8
	c0.1-0.1,0.1-0.3,0.2-0.4c0-0.3,0.3-0.5,0.6-0.4C10.2,9.2,10.4,9.5,10.3,9.7L10.3,9.7z M9.5,6.1c0.3,0.4,0.6,0.9,0.8,1.5
	c0,0.2,0.1,0.2,0.1,0.3c0.1,0.3-0.1,0.6-0.4,0.6H9.9c-0.3,0-0.5-0.2-0.5-0.4c0-0.1,0-0.1-0.1-0.2C9.1,7.4,8.9,7,8.6,6.7v0.8
	C8.6,7.8,8.3,8,8.1,8C7.8,8,7.5,7.8,7.5,7.5v-2C7.5,5.2,7.8,5,8.1,5H10c0.3,0,0.5,0.2,0.5,0.5S10.3,6,10,6L9.5,6.1L9.5,6.1z"/>
</svg>
