<svg class="cf-icon-svg" aria-label="update" version="1.1" viewBox="0 0 13 16">
<path d="M2.4,11c0-0.2-0.1-0.3-0.2-0.4C2,10.2,1.5,10,1.1,10.2s-0.6,0.7-0.4,1.1c0.1,0.2,0.2,0.4,0.3,0.6c0.2,0.2,0.4,0.4,0.7,0.4
	c0.2,0,0.3,0,0.4-0.1C2.6,11.9,2.7,11.3,2.4,11L2.4,11z M4.2,12.6c-0.1-0.1-0.3-0.1-0.4-0.2c-0.4-0.2-0.9-0.1-1.2,0.2
	c-0.2,0.4-0.1,0.9,0.2,1.2C3,13.9,3.1,14,3.3,14.1c0.1,0.1,0.3,0.1,0.4,0.1c0.3,0,0.6-0.2,0.7-0.4C4.8,13.3,4.6,12.8,4.2,12.6
	L4.2,12.6z M6.3,3.7L6.3,3.7L6.3,3.7c0.5,0,0.9-0.4,0.9-0.8S6.8,2,6.4,2H6.3C5.8,2,5.5,2.4,5.5,2.9C5.5,3.3,5.9,3.7,6.3,3.7L6.3,3.7
	z M6.8,13.1c-0.1,0-0.2,0-0.4,0H6.2c-0.5,0-0.9,0.3-0.9,0.8s0.3,0.9,0.8,0.9c0.1,0,0.2,0,0.3,0c0.2,0,0.3,0,0.5,0
	c0.5,0,0.8-0.4,0.8-0.9C7.6,13.4,7.2,13.1,6.8,13.1L6.8,13.1z M0.9,9.5c0.5,0,0.8-0.4,0.8-0.9c0-0.1,0-0.3,0-0.3
	c0-0.5-0.4-0.8-0.8-0.8S0,7.9,0,8.4c0,0,0,0.2,0,0.4C0,9.2,0.4,9.5,0.9,9.5L0.9,9.5L0.9,9.5z M12,9c-0.4-0.1-0.9,0.1-1,0.6
	c-0.1,0.2-0.1,0.5-0.2,0.7c-0.2,0.4,0,0.9,0.4,1.1c0.1,0,0.2,0.1,0.3,0.1c0.3,0,0.6-0.2,0.8-0.5c0.1-0.3,0.2-0.6,0.3-0.9
	C12.7,9.6,12.4,9.2,12,9L12,9z M3.6,4.4c0.1,0,0.3,0,0.4-0.1l0,0c0.4-0.2,0.5-0.7,0.3-1.1S3.6,2.6,3.2,2.8H3.1
	C2.8,3.1,2.6,3.6,2.9,4C3,4.3,3.3,4.4,3.6,4.4L3.6,4.4z M13,3.6c0-0.5-0.4-0.8-0.8-0.8h-3c-0.5,0-0.8,0.4-0.8,0.8v3
	c0,0.5,0.4,0.8,0.8,0.8S10,7,10,6.6V5.4c0.4,0.5,0.8,1.1,0.9,1.8C11,7.3,11,7.3,11,7.5c0.1,0.4,0.4,0.7,0.8,0.7c0.1,0,0.1,0,0.2,0
	c0.4-0.1,0.7-0.5,0.6-1c0-0.1-0.1-0.3-0.1-0.5c-0.2-0.8-0.6-1.6-1.2-2.2h0.8C12.6,4.4,13,4,13,3.6L13,3.6z M9.4,12
	c-0.2,0.2-0.4,0.3-0.6,0.4c-0.4,0.2-0.5,0.8-0.3,1.1C8.7,13.9,9,14,9.2,14c0.1,0,0.3,0,0.4-0.1c0.3-0.2,0.5-0.4,0.8-0.6
	c0.3-0.3,0.4-0.8,0.1-1.2C10.3,11.8,9.8,11.8,9.4,12L9.4,12z M1.1,6.4C1.5,6.6,2,6.5,2.3,6.1V6C2.5,5.6,2.4,5.1,2,4.9
	C1.6,4.6,1.1,4.8,0.9,5.2v0.1C0.6,5.6,0.7,6.2,1.1,6.4z"/>
</svg>
