<svg class="cf-icon-svg" version="1.1" viewBox="0 0 1000 1200">
	<path d="M518.3,510.7a25,25,0,0,0-35.4,0L374.5,619.2a25,25,0,0,0,35.4,35.4l65.8-65.8V817a25,25,0,1,0,50,0V588.7l65.8,65.8a25,25,0,0,0,35.4-35.4Z"/><path d="M500,102.9c-276.1,0-500,223.9-500,500s223.9,500,500,500,500-223.9,500-500S776.1,102.9,500,102.9Zm75.8,187.5v-.3L730.7,440.9H575.8Zm130,626.9H295.3a25,25,0,0,1-25-25V315a25,25,0,0,1,25-25H529.5V456.5a30.73,30.73,0,0,0,30.6,30.6H730.8V892.3A25.07,25.07,0,0,1,705.8,917.3Z"/>
</svg>
