<svg class="cf-icon-svg" aria-label="upload" version="1.1" viewBox="0 0 13 16">
<path d="M6.5,2C2.9,2,0,4.9,0,8.5S2.9,15,6.5,15S13,12.1,13,8.5S10.1,2,6.5,2L6.5,2z M9.4,6.3H7.9V4.8L9.4,6.3z M9.6,12.3
	c0,0.1-0.1,0.1-0.1,0.1H3.6c-0.1,0-0.1-0.1-0.1-0.1V4.7c0-0.1,0.1-0.1,0.1-0.1h3.7v2.2C7.2,6.9,7.3,7,7.4,7h2.2V12.3L9.6,12.3z
	 M6.3,7.2c0,0-1.1,1-1.1,1.1C5,8.4,5,8.6,5.2,8.8c0.1,0.1,0.4,0.1,0.5,0l0.5-0.5v2.5c0,0.2,0.2,0.3,0.3,0.3c0.2,0,0.3-0.2,0.3-0.3
	V8.3l0.5,0.5c0.1,0.1,0.4,0.1,0.5,0C8,8.6,8,8.4,7.8,8.3L6.7,7.2C6.6,7,6.4,7,6.3,7.2z"/>
</svg>
