<?xml version="1.0" encoding="utf-8"?>
<!-- Generator: Adobe Illustrator 21.1.0, SVG Export Plug-In . SVG Version: 6.00 Build 0)  -->
<svg version="1.1" id="Icon" xmlns="http://www.w3.org/2000/svg" xmlns:xlink="http://www.w3.org/1999/xlink" x="0px" y="0px"
	 viewBox="0 0 950 1200" style="enable-background:new 0 0 950 1200;" xml:space="preserve">
<title>Artboard 3</title>
<path d="M583.7,683.3l-93.5-93.5c-8.4-8.4-22-8.4-30.4,0c0,0,0,0,0,0l-93.5,93.5c-8.6,8.2-8.8,21.8-0.6,30.4
	c8.2,8.6,21.8,8.8,30.4,0.6c0.2-0.2,0.4-0.4,0.6-0.6l56.8-56.8v196.8c0,11.9,9.6,21.5,21.5,21.5s21.5-9.6,21.5-21.5V656.9l56.8,56.8
	c8.2,8.6,21.8,8.8,30.4,0.6c8.6-8.2,8.8-21.8,0.6-30.4C584.1,683.7,583.9,683.5,583.7,683.3L583.7,683.3z"/>
<path d="M562.4,418.7H298.6c-12.2,0-22.1,9.9-22.1,22.1v497.1c0,12.2,9.9,22.1,22.1,22.1h353.2c12.2,0,22.1-9.9,22.1-22.1V530.1
	L562.4,418.7z M633.8,581.4V920H316.5V458.7h215.8v78.8c0,12.2,9.9,22.1,22.1,22.1h79.4L633.8,581.4z"/>
</svg>
