<svg class="cf-icon-svg" version="1.1" viewBox="0 0 950 1200">
	<path d="M475,249.9c-262.3,0-475,212.7-475,475s212.7,475,475,475s475-212.7,475-475S737.3,249.9,475,249.9z M547.3,470.9
		c0.2,0.2,0.5,0.4,0.7,0.6L658.2,581c0.3,0.2,0.5,0.5,0.7,0.8H554.4c-3.9,0-7.1-3.2-7.1-7.1L547.3,470.9L547.3,470.9z M673.8,975.2
		c0,12.2-9.9,22.1-22.1,22.1H298.6c-12.2,0-22.1-9.9-22.1-22.1V478.1c0-12.2,9.9-22.1,22.1-22.1h211.6c2.4,0,4.8,0.2,7.1,0.7v118.1
		c0,20.5,16.6,37.1,37.1,37.1c0,0,0,0,0,0h118.8c0.4,2.3,0.7,4.6,0.7,6.9v356.4H673.8z"/>
	<path d="M490.2,625.4c-8.4-8.4-22-8.4-30.4,0c0,0,0,0,0,0l-93.5,93.5c-8.6,8.2-8.8,21.8-0.6,30.4c8.2,8.6,21.8,8.8,30.4,0.6
		c0.2-0.2,0.4-0.4,0.6-0.6l56.8-56.8v196.8c0,11.9,9.6,21.5,21.5,21.5s21.5-9.6,21.5-21.5V692.6l56.8,56.8c8.6,8.2,22.2,8,30.4-0.6
		c8-8.3,8-21.5,0-29.8L490.2,625.4z"/>
</svg>
