<svg class="cf-icon-svg" aria-label="web" version="1.1" viewBox="0 0 13 16">
<path d="M6.5,2C2.9,2,0,4.9,0,8.5S2.9,15,6.5,15S13,12.1,13,8.5S10.1,2,6.5,2L6.5,2z M6.5,12.4c-2.2,0-3.9-1.7-3.9-3.9
	s1.7-3.9,3.9-3.9s3.9,1.7,3.9,3.9S8.7,12.4,6.5,12.4L6.5,12.4z M5.1,5.7C4.2,6.2,3.5,7.1,3.4,8.1h1.2C4.6,7.2,4.8,6.3,5.1,5.7
	L5.1,5.7z M6.5,11.5c0.4,0,1.1-1,1.2-2.6H5.3C5.4,10.5,6.1,11.5,6.5,11.5L6.5,11.5z M3.4,8.9c0.1,1.1,0.8,2,1.8,2.4
	c-0.3-0.6-0.6-1.4-0.6-2.4H3.4z M7.9,5.7c0.3,0.6,0.5,1.4,0.5,2.4h1.1C9.5,7.1,8.8,6.2,7.9,5.7L7.9,5.7z M6.5,5.4
	c-0.5,0-1.1,1-1.2,2.7h2.3C7.6,6.4,7,5.4,6.5,5.4L6.5,5.4z M7.8,11.3c1-0.4,1.6-1.3,1.8-2.4H8.4C8.4,9.9,8.2,10.7,7.8,11.3z"/>
</svg>
