<svg class="cf-icon-svg" aria-label="web" version="1.1" viewBox="0 0 13 16">
<path d="M6.5,2C2.9,2,0,4.9,0,8.5S2.9,15,6.5,15S13,12.1,13,8.5S10.1,2,6.5,2L6.5,2z M9.7,7.8c-0.1-1.6-0.4-3-0.9-4
	c1.5,0.8,2.6,2.2,2.8,4H9.7z M4.2,3.9c-0.5,1-0.8,2.4-0.9,4h-2C1.6,6.1,2.7,4.6,4.2,3.9L4.2,3.9z M3.3,9.2c0.1,1.6,0.5,3,1.1,4.1
	c-1.6-0.7-2.7-2.3-3-4.1C1.4,9.2,3.3,9.2,3.3,9.2z M6.5,13.5c-0.7,0-1.8-1.6-1.9-4.3h3.8C8.2,11.9,7.2,13.5,6.5,13.5L6.5,13.5z
	 M4.6,7.8C4.7,5,5.7,3.3,6.5,3.3S8.3,5,8.4,7.8H4.6z M8.7,13.2c0.6-1,1-2.4,1-4.1h1.9C11.4,11,10.3,12.5,8.7,13.2z"/>
</svg>
